%TF.GenerationSoftware,KiCad,Pcbnew,7.0.9-7.0.9~ubuntu22.04.1*%
%TF.CreationDate,2024-01-26T14:57:20+02:00*%
%TF.ProjectId,USB-NeoHUB_Rev_A,5553422d-4e65-46f4-9855-425f5265765f,A*%
%TF.SameCoordinates,PX5cfbb60PY69925e0*%
%TF.FileFunction,Legend,Top*%
%TF.FilePolarity,Positive*%
%FSLAX46Y46*%
G04 Gerber Fmt 4.6, Leading zero omitted, Abs format (unit mm)*
G04 Created by KiCad (PCBNEW 7.0.9-7.0.9~ubuntu22.04.1) date 2024-01-26 14:57:20*
%MOMM*%
%LPD*%
G01*
G04 APERTURE LIST*
%ADD10C,0.304800*%
%ADD11C,0.254000*%
%ADD12C,0.222250*%
%ADD13C,0.203200*%
%ADD14C,0.228600*%
%ADD15C,0.127000*%
%ADD16C,0.050000*%
%ADD17C,0.100000*%
G04 APERTURE END LIST*
D10*
X7021954Y13927941D02*
X7263859Y13081274D01*
X7263859Y13081274D02*
X7505764Y13686036D01*
X7505764Y13686036D02*
X7747668Y13081274D01*
X7747668Y13081274D02*
X7989573Y13927941D01*
X8352430Y13927941D02*
X8594335Y13081274D01*
X8594335Y13081274D02*
X8836240Y13686036D01*
X8836240Y13686036D02*
X9078144Y13081274D01*
X9078144Y13081274D02*
X9320049Y13927941D01*
X9682906Y13927941D02*
X9924811Y13081274D01*
X9924811Y13081274D02*
X10166716Y13686036D01*
X10166716Y13686036D02*
X10408620Y13081274D01*
X10408620Y13081274D02*
X10650525Y13927941D01*
X11134334Y13202227D02*
X11194811Y13141750D01*
X11194811Y13141750D02*
X11134334Y13081274D01*
X11134334Y13081274D02*
X11073858Y13141750D01*
X11073858Y13141750D02*
X11134334Y13202227D01*
X11134334Y13202227D02*
X11134334Y13081274D01*
X11920525Y13081274D02*
X11799573Y13141750D01*
X11799573Y13141750D02*
X11739096Y13202227D01*
X11739096Y13202227D02*
X11678620Y13323179D01*
X11678620Y13323179D02*
X11678620Y13686036D01*
X11678620Y13686036D02*
X11739096Y13806989D01*
X11739096Y13806989D02*
X11799573Y13867465D01*
X11799573Y13867465D02*
X11920525Y13927941D01*
X11920525Y13927941D02*
X12101954Y13927941D01*
X12101954Y13927941D02*
X12222906Y13867465D01*
X12222906Y13867465D02*
X12283382Y13806989D01*
X12283382Y13806989D02*
X12343858Y13686036D01*
X12343858Y13686036D02*
X12343858Y13323179D01*
X12343858Y13323179D02*
X12283382Y13202227D01*
X12283382Y13202227D02*
X12222906Y13141750D01*
X12222906Y13141750D02*
X12101954Y13081274D01*
X12101954Y13081274D02*
X11920525Y13081274D01*
X13069573Y13081274D02*
X12948621Y13141750D01*
X12948621Y13141750D02*
X12888144Y13262703D01*
X12888144Y13262703D02*
X12888144Y14351274D01*
X13553382Y13081274D02*
X13553382Y13927941D01*
X13553382Y14351274D02*
X13492906Y14290798D01*
X13492906Y14290798D02*
X13553382Y14230322D01*
X13553382Y14230322D02*
X13613859Y14290798D01*
X13613859Y14290798D02*
X13553382Y14351274D01*
X13553382Y14351274D02*
X13553382Y14230322D01*
X14158144Y13081274D02*
X14158144Y13927941D01*
X14158144Y13806989D02*
X14218621Y13867465D01*
X14218621Y13867465D02*
X14339573Y13927941D01*
X14339573Y13927941D02*
X14521002Y13927941D01*
X14521002Y13927941D02*
X14641954Y13867465D01*
X14641954Y13867465D02*
X14702430Y13746512D01*
X14702430Y13746512D02*
X14702430Y13081274D01*
X14702430Y13746512D02*
X14762906Y13867465D01*
X14762906Y13867465D02*
X14883859Y13927941D01*
X14883859Y13927941D02*
X15065287Y13927941D01*
X15065287Y13927941D02*
X15186240Y13867465D01*
X15186240Y13867465D02*
X15246716Y13746512D01*
X15246716Y13746512D02*
X15246716Y13081274D01*
X16335287Y13141750D02*
X16214335Y13081274D01*
X16214335Y13081274D02*
X15972430Y13081274D01*
X15972430Y13081274D02*
X15851477Y13141750D01*
X15851477Y13141750D02*
X15791001Y13262703D01*
X15791001Y13262703D02*
X15791001Y13746512D01*
X15791001Y13746512D02*
X15851477Y13867465D01*
X15851477Y13867465D02*
X15972430Y13927941D01*
X15972430Y13927941D02*
X16214335Y13927941D01*
X16214335Y13927941D02*
X16335287Y13867465D01*
X16335287Y13867465D02*
X16395763Y13746512D01*
X16395763Y13746512D02*
X16395763Y13625560D01*
X16395763Y13625560D02*
X15791001Y13504608D01*
X16819096Y13081274D02*
X17484334Y13927941D01*
X16819096Y13927941D02*
X17484334Y13081274D01*
X17968143Y13202227D02*
X18028620Y13141750D01*
X18028620Y13141750D02*
X17968143Y13081274D01*
X17968143Y13081274D02*
X17907667Y13141750D01*
X17907667Y13141750D02*
X17968143Y13202227D01*
X17968143Y13202227D02*
X17968143Y13081274D01*
X19117191Y13141750D02*
X18996239Y13081274D01*
X18996239Y13081274D02*
X18754334Y13081274D01*
X18754334Y13081274D02*
X18633382Y13141750D01*
X18633382Y13141750D02*
X18572905Y13202227D01*
X18572905Y13202227D02*
X18512429Y13323179D01*
X18512429Y13323179D02*
X18512429Y13686036D01*
X18512429Y13686036D02*
X18572905Y13806989D01*
X18572905Y13806989D02*
X18633382Y13867465D01*
X18633382Y13867465D02*
X18754334Y13927941D01*
X18754334Y13927941D02*
X18996239Y13927941D01*
X18996239Y13927941D02*
X19117191Y13867465D01*
X19842905Y13081274D02*
X19721953Y13141750D01*
X19721953Y13141750D02*
X19661476Y13202227D01*
X19661476Y13202227D02*
X19601000Y13323179D01*
X19601000Y13323179D02*
X19601000Y13686036D01*
X19601000Y13686036D02*
X19661476Y13806989D01*
X19661476Y13806989D02*
X19721953Y13867465D01*
X19721953Y13867465D02*
X19842905Y13927941D01*
X19842905Y13927941D02*
X20024334Y13927941D01*
X20024334Y13927941D02*
X20145286Y13867465D01*
X20145286Y13867465D02*
X20205762Y13806989D01*
X20205762Y13806989D02*
X20266238Y13686036D01*
X20266238Y13686036D02*
X20266238Y13323179D01*
X20266238Y13323179D02*
X20205762Y13202227D01*
X20205762Y13202227D02*
X20145286Y13141750D01*
X20145286Y13141750D02*
X20024334Y13081274D01*
X20024334Y13081274D02*
X19842905Y13081274D01*
X20810524Y13081274D02*
X20810524Y13927941D01*
X20810524Y13806989D02*
X20871001Y13867465D01*
X20871001Y13867465D02*
X20991953Y13927941D01*
X20991953Y13927941D02*
X21173382Y13927941D01*
X21173382Y13927941D02*
X21294334Y13867465D01*
X21294334Y13867465D02*
X21354810Y13746512D01*
X21354810Y13746512D02*
X21354810Y13081274D01*
X21354810Y13746512D02*
X21415286Y13867465D01*
X21415286Y13867465D02*
X21536239Y13927941D01*
X21536239Y13927941D02*
X21717667Y13927941D01*
X21717667Y13927941D02*
X21838620Y13867465D01*
X21838620Y13867465D02*
X21899096Y13746512D01*
X21899096Y13746512D02*
X21899096Y13081274D01*
D11*
X25296904Y16771188D02*
X25296904Y15948711D01*
X25296904Y15948711D02*
X25345285Y15851949D01*
X25345285Y15851949D02*
X25393666Y15803568D01*
X25393666Y15803568D02*
X25490428Y15755188D01*
X25490428Y15755188D02*
X25683952Y15755188D01*
X25683952Y15755188D02*
X25780714Y15803568D01*
X25780714Y15803568D02*
X25829095Y15851949D01*
X25829095Y15851949D02*
X25877476Y15948711D01*
X25877476Y15948711D02*
X25877476Y16771188D01*
X26312904Y16674426D02*
X26361285Y16722807D01*
X26361285Y16722807D02*
X26458047Y16771188D01*
X26458047Y16771188D02*
X26699952Y16771188D01*
X26699952Y16771188D02*
X26796714Y16722807D01*
X26796714Y16722807D02*
X26845095Y16674426D01*
X26845095Y16674426D02*
X26893476Y16577664D01*
X26893476Y16577664D02*
X26893476Y16480902D01*
X26893476Y16480902D02*
X26845095Y16335759D01*
X26845095Y16335759D02*
X26264523Y15755188D01*
X26264523Y15755188D02*
X26893476Y15755188D01*
X24684547Y15149848D02*
X24732928Y15246610D01*
X24732928Y15246610D02*
X24781308Y15294991D01*
X24781308Y15294991D02*
X24878070Y15343372D01*
X24878070Y15343372D02*
X25168356Y15343372D01*
X25168356Y15343372D02*
X25265118Y15294991D01*
X25265118Y15294991D02*
X25313499Y15246610D01*
X25313499Y15246610D02*
X25361880Y15149848D01*
X25361880Y15149848D02*
X25361880Y15004705D01*
X25361880Y15004705D02*
X25313499Y14907943D01*
X25313499Y14907943D02*
X25265118Y14859562D01*
X25265118Y14859562D02*
X25168356Y14811181D01*
X25168356Y14811181D02*
X24878070Y14811181D01*
X24878070Y14811181D02*
X24781308Y14859562D01*
X24781308Y14859562D02*
X24732928Y14907943D01*
X24732928Y14907943D02*
X24684547Y15004705D01*
X24684547Y15004705D02*
X24684547Y15149848D01*
D12*
X26557833Y29401288D02*
X26261500Y29824621D01*
X26049833Y29401288D02*
X26049833Y30290288D01*
X26049833Y30290288D02*
X26388500Y30290288D01*
X26388500Y30290288D02*
X26473167Y30247955D01*
X26473167Y30247955D02*
X26515500Y30205621D01*
X26515500Y30205621D02*
X26557833Y30120955D01*
X26557833Y30120955D02*
X26557833Y29993955D01*
X26557833Y29993955D02*
X26515500Y29909288D01*
X26515500Y29909288D02*
X26473167Y29866955D01*
X26473167Y29866955D02*
X26388500Y29824621D01*
X26388500Y29824621D02*
X26049833Y29824621D01*
X27362167Y30290288D02*
X26938833Y30290288D01*
X26938833Y30290288D02*
X26896500Y29866955D01*
X26896500Y29866955D02*
X26938833Y29909288D01*
X26938833Y29909288D02*
X27023500Y29951621D01*
X27023500Y29951621D02*
X27235167Y29951621D01*
X27235167Y29951621D02*
X27319833Y29909288D01*
X27319833Y29909288D02*
X27362167Y29866955D01*
X27362167Y29866955D02*
X27404500Y29782288D01*
X27404500Y29782288D02*
X27404500Y29570621D01*
X27404500Y29570621D02*
X27362167Y29485955D01*
X27362167Y29485955D02*
X27319833Y29443621D01*
X27319833Y29443621D02*
X27235167Y29401288D01*
X27235167Y29401288D02*
X27023500Y29401288D01*
X27023500Y29401288D02*
X26938833Y29443621D01*
X26938833Y29443621D02*
X26896500Y29485955D01*
D11*
X19669812Y16804668D02*
X19186003Y16466001D01*
X19669812Y16224096D02*
X18653812Y16224096D01*
X18653812Y16224096D02*
X18653812Y16611144D01*
X18653812Y16611144D02*
X18702193Y16707906D01*
X18702193Y16707906D02*
X18750574Y16756287D01*
X18750574Y16756287D02*
X18847336Y16804668D01*
X18847336Y16804668D02*
X18992479Y16804668D01*
X18992479Y16804668D02*
X19089241Y16756287D01*
X19089241Y16756287D02*
X19137622Y16707906D01*
X19137622Y16707906D02*
X19186003Y16611144D01*
X19186003Y16611144D02*
X19186003Y16224096D01*
X18653812Y17143334D02*
X18653812Y17772287D01*
X18653812Y17772287D02*
X19040860Y17433620D01*
X19040860Y17433620D02*
X19040860Y17578763D01*
X19040860Y17578763D02*
X19089241Y17675525D01*
X19089241Y17675525D02*
X19137622Y17723906D01*
X19137622Y17723906D02*
X19234384Y17772287D01*
X19234384Y17772287D02*
X19476289Y17772287D01*
X19476289Y17772287D02*
X19573051Y17723906D01*
X19573051Y17723906D02*
X19621432Y17675525D01*
X19621432Y17675525D02*
X19669812Y17578763D01*
X19669812Y17578763D02*
X19669812Y17288477D01*
X19669812Y17288477D02*
X19621432Y17191715D01*
X19621432Y17191715D02*
X19573051Y17143334D01*
D12*
X21052045Y8062834D02*
X21094379Y8020501D01*
X21094379Y8020501D02*
X21136712Y7893501D01*
X21136712Y7893501D02*
X21136712Y7808834D01*
X21136712Y7808834D02*
X21094379Y7681834D01*
X21094379Y7681834D02*
X21009712Y7597167D01*
X21009712Y7597167D02*
X20925045Y7554834D01*
X20925045Y7554834D02*
X20755712Y7512501D01*
X20755712Y7512501D02*
X20628712Y7512501D01*
X20628712Y7512501D02*
X20459379Y7554834D01*
X20459379Y7554834D02*
X20374712Y7597167D01*
X20374712Y7597167D02*
X20290045Y7681834D01*
X20290045Y7681834D02*
X20247712Y7808834D01*
X20247712Y7808834D02*
X20247712Y7893501D01*
X20247712Y7893501D02*
X20290045Y8020501D01*
X20290045Y8020501D02*
X20332379Y8062834D01*
X20544045Y8824834D02*
X21136712Y8824834D01*
X20205379Y8613167D02*
X20840379Y8401501D01*
X20840379Y8401501D02*
X20840379Y8951834D01*
D11*
X31888809Y16263188D02*
X31888809Y15440711D01*
X31888809Y15440711D02*
X31937190Y15343949D01*
X31937190Y15343949D02*
X31985571Y15295568D01*
X31985571Y15295568D02*
X32082333Y15247188D01*
X32082333Y15247188D02*
X32275857Y15247188D01*
X32275857Y15247188D02*
X32372619Y15295568D01*
X32372619Y15295568D02*
X32421000Y15343949D01*
X32421000Y15343949D02*
X32469381Y15440711D01*
X32469381Y15440711D02*
X32469381Y16263188D01*
X32904809Y15295568D02*
X33049952Y15247188D01*
X33049952Y15247188D02*
X33291857Y15247188D01*
X33291857Y15247188D02*
X33388619Y15295568D01*
X33388619Y15295568D02*
X33437000Y15343949D01*
X33437000Y15343949D02*
X33485381Y15440711D01*
X33485381Y15440711D02*
X33485381Y15537473D01*
X33485381Y15537473D02*
X33437000Y15634235D01*
X33437000Y15634235D02*
X33388619Y15682616D01*
X33388619Y15682616D02*
X33291857Y15730997D01*
X33291857Y15730997D02*
X33098333Y15779378D01*
X33098333Y15779378D02*
X33001571Y15827759D01*
X33001571Y15827759D02*
X32953190Y15876140D01*
X32953190Y15876140D02*
X32904809Y15972902D01*
X32904809Y15972902D02*
X32904809Y16069664D01*
X32904809Y16069664D02*
X32953190Y16166426D01*
X32953190Y16166426D02*
X33001571Y16214807D01*
X33001571Y16214807D02*
X33098333Y16263188D01*
X33098333Y16263188D02*
X33340238Y16263188D01*
X33340238Y16263188D02*
X33485381Y16214807D01*
X34259476Y15779378D02*
X34404619Y15730997D01*
X34404619Y15730997D02*
X34453000Y15682616D01*
X34453000Y15682616D02*
X34501381Y15585854D01*
X34501381Y15585854D02*
X34501381Y15440711D01*
X34501381Y15440711D02*
X34453000Y15343949D01*
X34453000Y15343949D02*
X34404619Y15295568D01*
X34404619Y15295568D02*
X34307857Y15247188D01*
X34307857Y15247188D02*
X33920809Y15247188D01*
X33920809Y15247188D02*
X33920809Y16263188D01*
X33920809Y16263188D02*
X34259476Y16263188D01*
X34259476Y16263188D02*
X34356238Y16214807D01*
X34356238Y16214807D02*
X34404619Y16166426D01*
X34404619Y16166426D02*
X34453000Y16069664D01*
X34453000Y16069664D02*
X34453000Y15972902D01*
X34453000Y15972902D02*
X34404619Y15876140D01*
X34404619Y15876140D02*
X34356238Y15827759D01*
X34356238Y15827759D02*
X34259476Y15779378D01*
X34259476Y15779378D02*
X33920809Y15779378D01*
X34694905Y15150426D02*
X35469000Y15150426D01*
X35710904Y15247188D02*
X35710904Y16263188D01*
X35710904Y15779378D02*
X36291476Y15779378D01*
X36291476Y15247188D02*
X36291476Y16263188D01*
X36968809Y16263188D02*
X37162333Y16263188D01*
X37162333Y16263188D02*
X37259095Y16214807D01*
X37259095Y16214807D02*
X37355857Y16118045D01*
X37355857Y16118045D02*
X37404238Y15924521D01*
X37404238Y15924521D02*
X37404238Y15585854D01*
X37404238Y15585854D02*
X37355857Y15392330D01*
X37355857Y15392330D02*
X37259095Y15295568D01*
X37259095Y15295568D02*
X37162333Y15247188D01*
X37162333Y15247188D02*
X36968809Y15247188D01*
X36968809Y15247188D02*
X36872047Y15295568D01*
X36872047Y15295568D02*
X36775285Y15392330D01*
X36775285Y15392330D02*
X36726904Y15585854D01*
X36726904Y15585854D02*
X36726904Y15924521D01*
X36726904Y15924521D02*
X36775285Y16118045D01*
X36775285Y16118045D02*
X36872047Y16214807D01*
X36872047Y16214807D02*
X36968809Y16263188D01*
X37791285Y15295568D02*
X37936428Y15247188D01*
X37936428Y15247188D02*
X38178333Y15247188D01*
X38178333Y15247188D02*
X38275095Y15295568D01*
X38275095Y15295568D02*
X38323476Y15343949D01*
X38323476Y15343949D02*
X38371857Y15440711D01*
X38371857Y15440711D02*
X38371857Y15537473D01*
X38371857Y15537473D02*
X38323476Y15634235D01*
X38323476Y15634235D02*
X38275095Y15682616D01*
X38275095Y15682616D02*
X38178333Y15730997D01*
X38178333Y15730997D02*
X37984809Y15779378D01*
X37984809Y15779378D02*
X37888047Y15827759D01*
X37888047Y15827759D02*
X37839666Y15876140D01*
X37839666Y15876140D02*
X37791285Y15972902D01*
X37791285Y15972902D02*
X37791285Y16069664D01*
X37791285Y16069664D02*
X37839666Y16166426D01*
X37839666Y16166426D02*
X37888047Y16214807D01*
X37888047Y16214807D02*
X37984809Y16263188D01*
X37984809Y16263188D02*
X38226714Y16263188D01*
X38226714Y16263188D02*
X38371857Y16214807D01*
X38662142Y16263188D02*
X39242714Y16263188D01*
X38952428Y15247188D02*
X38952428Y16263188D01*
X40113571Y15247188D02*
X39532999Y15247188D01*
X39823285Y15247188D02*
X39823285Y16263188D01*
X39823285Y16263188D02*
X39726523Y16118045D01*
X39726523Y16118045D02*
X39629761Y16021283D01*
X39629761Y16021283D02*
X39532999Y15972902D01*
D12*
X37519712Y9967834D02*
X37096379Y9671501D01*
X37519712Y9459834D02*
X36630712Y9459834D01*
X36630712Y9459834D02*
X36630712Y9798501D01*
X36630712Y9798501D02*
X36673045Y9883167D01*
X36673045Y9883167D02*
X36715379Y9925501D01*
X36715379Y9925501D02*
X36800045Y9967834D01*
X36800045Y9967834D02*
X36927045Y9967834D01*
X36927045Y9967834D02*
X37011712Y9925501D01*
X37011712Y9925501D02*
X37054045Y9883167D01*
X37054045Y9883167D02*
X37096379Y9798501D01*
X37096379Y9798501D02*
X37096379Y9459834D01*
X37519712Y10814501D02*
X37519712Y10306501D01*
X37519712Y10560501D02*
X36630712Y10560501D01*
X36630712Y10560501D02*
X36757712Y10475834D01*
X36757712Y10475834D02*
X36842379Y10391167D01*
X36842379Y10391167D02*
X36884712Y10306501D01*
X32947712Y9967834D02*
X32524379Y9671501D01*
X32947712Y9459834D02*
X32058712Y9459834D01*
X32058712Y9459834D02*
X32058712Y9798501D01*
X32058712Y9798501D02*
X32101045Y9883167D01*
X32101045Y9883167D02*
X32143379Y9925501D01*
X32143379Y9925501D02*
X32228045Y9967834D01*
X32228045Y9967834D02*
X32355045Y9967834D01*
X32355045Y9967834D02*
X32439712Y9925501D01*
X32439712Y9925501D02*
X32482045Y9883167D01*
X32482045Y9883167D02*
X32524379Y9798501D01*
X32524379Y9798501D02*
X32524379Y9459834D01*
X32143379Y10306501D02*
X32101045Y10348834D01*
X32101045Y10348834D02*
X32058712Y10433501D01*
X32058712Y10433501D02*
X32058712Y10645167D01*
X32058712Y10645167D02*
X32101045Y10729834D01*
X32101045Y10729834D02*
X32143379Y10772167D01*
X32143379Y10772167D02*
X32228045Y10814501D01*
X32228045Y10814501D02*
X32312712Y10814501D01*
X32312712Y10814501D02*
X32439712Y10772167D01*
X32439712Y10772167D02*
X32947712Y10264167D01*
X32947712Y10264167D02*
X32947712Y10814501D01*
D11*
X8024904Y12072188D02*
X8024904Y11249711D01*
X8024904Y11249711D02*
X8073285Y11152949D01*
X8073285Y11152949D02*
X8121666Y11104568D01*
X8121666Y11104568D02*
X8218428Y11056188D01*
X8218428Y11056188D02*
X8411952Y11056188D01*
X8411952Y11056188D02*
X8508714Y11104568D01*
X8508714Y11104568D02*
X8557095Y11152949D01*
X8557095Y11152949D02*
X8605476Y11249711D01*
X8605476Y11249711D02*
X8605476Y12072188D01*
X9621476Y11056188D02*
X9040904Y11056188D01*
X9331190Y11056188D02*
X9331190Y12072188D01*
X9331190Y12072188D02*
X9234428Y11927045D01*
X9234428Y11927045D02*
X9137666Y11830283D01*
X9137666Y11830283D02*
X9040904Y11781902D01*
X15154842Y2423429D02*
X15215318Y2604858D01*
X15215318Y2604858D02*
X15215318Y2907239D01*
X15215318Y2907239D02*
X15154842Y3028191D01*
X15154842Y3028191D02*
X15094365Y3088667D01*
X15094365Y3088667D02*
X14973413Y3149144D01*
X14973413Y3149144D02*
X14852461Y3149144D01*
X14852461Y3149144D02*
X14731508Y3088667D01*
X14731508Y3088667D02*
X14671032Y3028191D01*
X14671032Y3028191D02*
X14610556Y2907239D01*
X14610556Y2907239D02*
X14550080Y2665334D01*
X14550080Y2665334D02*
X14489603Y2544382D01*
X14489603Y2544382D02*
X14429127Y2483905D01*
X14429127Y2483905D02*
X14308175Y2423429D01*
X14308175Y2423429D02*
X14187222Y2423429D01*
X14187222Y2423429D02*
X14066270Y2483905D01*
X14066270Y2483905D02*
X14005794Y2544382D01*
X14005794Y2544382D02*
X13945318Y2665334D01*
X13945318Y2665334D02*
X13945318Y2967715D01*
X13945318Y2967715D02*
X14005794Y3149144D01*
X15154842Y3632953D02*
X15215318Y3814382D01*
X15215318Y3814382D02*
X15215318Y4116763D01*
X15215318Y4116763D02*
X15154842Y4237715D01*
X15154842Y4237715D02*
X15094365Y4298191D01*
X15094365Y4298191D02*
X14973413Y4358668D01*
X14973413Y4358668D02*
X14852461Y4358668D01*
X14852461Y4358668D02*
X14731508Y4298191D01*
X14731508Y4298191D02*
X14671032Y4237715D01*
X14671032Y4237715D02*
X14610556Y4116763D01*
X14610556Y4116763D02*
X14550080Y3874858D01*
X14550080Y3874858D02*
X14489603Y3753906D01*
X14489603Y3753906D02*
X14429127Y3693429D01*
X14429127Y3693429D02*
X14308175Y3632953D01*
X14308175Y3632953D02*
X14187222Y3632953D01*
X14187222Y3632953D02*
X14066270Y3693429D01*
X14066270Y3693429D02*
X14005794Y3753906D01*
X14005794Y3753906D02*
X13945318Y3874858D01*
X13945318Y3874858D02*
X13945318Y4177239D01*
X13945318Y4177239D02*
X14005794Y4358668D01*
X13945318Y5144858D02*
X13945318Y5386763D01*
X13945318Y5386763D02*
X14005794Y5507715D01*
X14005794Y5507715D02*
X14126746Y5628668D01*
X14126746Y5628668D02*
X14368651Y5689144D01*
X14368651Y5689144D02*
X14791984Y5689144D01*
X14791984Y5689144D02*
X15033889Y5628668D01*
X15033889Y5628668D02*
X15154842Y5507715D01*
X15154842Y5507715D02*
X15215318Y5386763D01*
X15215318Y5386763D02*
X15215318Y5144858D01*
X15215318Y5144858D02*
X15154842Y5023906D01*
X15154842Y5023906D02*
X15033889Y4902953D01*
X15033889Y4902953D02*
X14791984Y4842477D01*
X14791984Y4842477D02*
X14368651Y4842477D01*
X14368651Y4842477D02*
X14126746Y4902953D01*
X14126746Y4902953D02*
X14005794Y5023906D01*
X14005794Y5023906D02*
X13945318Y5144858D01*
X15215318Y6233429D02*
X13945318Y6233429D01*
X13945318Y6233429D02*
X13945318Y6717239D01*
X13945318Y6717239D02*
X14005794Y6838191D01*
X14005794Y6838191D02*
X14066270Y6898668D01*
X14066270Y6898668D02*
X14187222Y6959144D01*
X14187222Y6959144D02*
X14368651Y6959144D01*
X14368651Y6959144D02*
X14489603Y6898668D01*
X14489603Y6898668D02*
X14550080Y6838191D01*
X14550080Y6838191D02*
X14610556Y6717239D01*
X14610556Y6717239D02*
X14610556Y6233429D01*
X14731508Y7503429D02*
X14731508Y8471048D01*
X14066270Y9015334D02*
X14005794Y9075810D01*
X14005794Y9075810D02*
X13945318Y9196763D01*
X13945318Y9196763D02*
X13945318Y9499144D01*
X13945318Y9499144D02*
X14005794Y9620096D01*
X14005794Y9620096D02*
X14066270Y9680572D01*
X14066270Y9680572D02*
X14187222Y9741049D01*
X14187222Y9741049D02*
X14308175Y9741049D01*
X14308175Y9741049D02*
X14489603Y9680572D01*
X14489603Y9680572D02*
X15215318Y8954858D01*
X15215318Y8954858D02*
X15215318Y9741049D01*
X14489603Y10466763D02*
X14429127Y10345811D01*
X14429127Y10345811D02*
X14368651Y10285334D01*
X14368651Y10285334D02*
X14247699Y10224858D01*
X14247699Y10224858D02*
X14187222Y10224858D01*
X14187222Y10224858D02*
X14066270Y10285334D01*
X14066270Y10285334D02*
X14005794Y10345811D01*
X14005794Y10345811D02*
X13945318Y10466763D01*
X13945318Y10466763D02*
X13945318Y10708668D01*
X13945318Y10708668D02*
X14005794Y10829620D01*
X14005794Y10829620D02*
X14066270Y10890096D01*
X14066270Y10890096D02*
X14187222Y10950573D01*
X14187222Y10950573D02*
X14247699Y10950573D01*
X14247699Y10950573D02*
X14368651Y10890096D01*
X14368651Y10890096D02*
X14429127Y10829620D01*
X14429127Y10829620D02*
X14489603Y10708668D01*
X14489603Y10708668D02*
X14489603Y10466763D01*
X14489603Y10466763D02*
X14550080Y10345811D01*
X14550080Y10345811D02*
X14610556Y10285334D01*
X14610556Y10285334D02*
X14731508Y10224858D01*
X14731508Y10224858D02*
X14973413Y10224858D01*
X14973413Y10224858D02*
X15094365Y10285334D01*
X15094365Y10285334D02*
X15154842Y10345811D01*
X15154842Y10345811D02*
X15215318Y10466763D01*
X15215318Y10466763D02*
X15215318Y10708668D01*
X15215318Y10708668D02*
X15154842Y10829620D01*
X15154842Y10829620D02*
X15094365Y10890096D01*
X15094365Y10890096D02*
X14973413Y10950573D01*
X14973413Y10950573D02*
X14731508Y10950573D01*
X14731508Y10950573D02*
X14610556Y10890096D01*
X14610556Y10890096D02*
X14550080Y10829620D01*
X14550080Y10829620D02*
X14489603Y10708668D01*
X26591095Y10548188D02*
X26591095Y9725711D01*
X26591095Y9725711D02*
X26639476Y9628949D01*
X26639476Y9628949D02*
X26687857Y9580568D01*
X26687857Y9580568D02*
X26784619Y9532188D01*
X26784619Y9532188D02*
X26978143Y9532188D01*
X26978143Y9532188D02*
X27074905Y9580568D01*
X27074905Y9580568D02*
X27123286Y9628949D01*
X27123286Y9628949D02*
X27171667Y9725711D01*
X27171667Y9725711D02*
X27171667Y10548188D01*
X27607095Y9580568D02*
X27752238Y9532188D01*
X27752238Y9532188D02*
X27994143Y9532188D01*
X27994143Y9532188D02*
X28090905Y9580568D01*
X28090905Y9580568D02*
X28139286Y9628949D01*
X28139286Y9628949D02*
X28187667Y9725711D01*
X28187667Y9725711D02*
X28187667Y9822473D01*
X28187667Y9822473D02*
X28139286Y9919235D01*
X28139286Y9919235D02*
X28090905Y9967616D01*
X28090905Y9967616D02*
X27994143Y10015997D01*
X27994143Y10015997D02*
X27800619Y10064378D01*
X27800619Y10064378D02*
X27703857Y10112759D01*
X27703857Y10112759D02*
X27655476Y10161140D01*
X27655476Y10161140D02*
X27607095Y10257902D01*
X27607095Y10257902D02*
X27607095Y10354664D01*
X27607095Y10354664D02*
X27655476Y10451426D01*
X27655476Y10451426D02*
X27703857Y10499807D01*
X27703857Y10499807D02*
X27800619Y10548188D01*
X27800619Y10548188D02*
X28042524Y10548188D01*
X28042524Y10548188D02*
X28187667Y10499807D01*
X28961762Y10064378D02*
X29106905Y10015997D01*
X29106905Y10015997D02*
X29155286Y9967616D01*
X29155286Y9967616D02*
X29203667Y9870854D01*
X29203667Y9870854D02*
X29203667Y9725711D01*
X29203667Y9725711D02*
X29155286Y9628949D01*
X29155286Y9628949D02*
X29106905Y9580568D01*
X29106905Y9580568D02*
X29010143Y9532188D01*
X29010143Y9532188D02*
X28623095Y9532188D01*
X28623095Y9532188D02*
X28623095Y10548188D01*
X28623095Y10548188D02*
X28961762Y10548188D01*
X28961762Y10548188D02*
X29058524Y10499807D01*
X29058524Y10499807D02*
X29106905Y10451426D01*
X29106905Y10451426D02*
X29155286Y10354664D01*
X29155286Y10354664D02*
X29155286Y10257902D01*
X29155286Y10257902D02*
X29106905Y10161140D01*
X29106905Y10161140D02*
X29058524Y10112759D01*
X29058524Y10112759D02*
X28961762Y10064378D01*
X28961762Y10064378D02*
X28623095Y10064378D01*
X30171286Y9532188D02*
X29590714Y9532188D01*
X29881000Y9532188D02*
X29881000Y10548188D01*
X29881000Y10548188D02*
X29784238Y10403045D01*
X29784238Y10403045D02*
X29687476Y10306283D01*
X29687476Y10306283D02*
X29590714Y10257902D01*
X6742809Y16263188D02*
X6742809Y15440711D01*
X6742809Y15440711D02*
X6791190Y15343949D01*
X6791190Y15343949D02*
X6839571Y15295568D01*
X6839571Y15295568D02*
X6936333Y15247188D01*
X6936333Y15247188D02*
X7129857Y15247188D01*
X7129857Y15247188D02*
X7226619Y15295568D01*
X7226619Y15295568D02*
X7275000Y15343949D01*
X7275000Y15343949D02*
X7323381Y15440711D01*
X7323381Y15440711D02*
X7323381Y16263188D01*
X7758809Y15295568D02*
X7903952Y15247188D01*
X7903952Y15247188D02*
X8145857Y15247188D01*
X8145857Y15247188D02*
X8242619Y15295568D01*
X8242619Y15295568D02*
X8291000Y15343949D01*
X8291000Y15343949D02*
X8339381Y15440711D01*
X8339381Y15440711D02*
X8339381Y15537473D01*
X8339381Y15537473D02*
X8291000Y15634235D01*
X8291000Y15634235D02*
X8242619Y15682616D01*
X8242619Y15682616D02*
X8145857Y15730997D01*
X8145857Y15730997D02*
X7952333Y15779378D01*
X7952333Y15779378D02*
X7855571Y15827759D01*
X7855571Y15827759D02*
X7807190Y15876140D01*
X7807190Y15876140D02*
X7758809Y15972902D01*
X7758809Y15972902D02*
X7758809Y16069664D01*
X7758809Y16069664D02*
X7807190Y16166426D01*
X7807190Y16166426D02*
X7855571Y16214807D01*
X7855571Y16214807D02*
X7952333Y16263188D01*
X7952333Y16263188D02*
X8194238Y16263188D01*
X8194238Y16263188D02*
X8339381Y16214807D01*
X9113476Y15779378D02*
X9258619Y15730997D01*
X9258619Y15730997D02*
X9307000Y15682616D01*
X9307000Y15682616D02*
X9355381Y15585854D01*
X9355381Y15585854D02*
X9355381Y15440711D01*
X9355381Y15440711D02*
X9307000Y15343949D01*
X9307000Y15343949D02*
X9258619Y15295568D01*
X9258619Y15295568D02*
X9161857Y15247188D01*
X9161857Y15247188D02*
X8774809Y15247188D01*
X8774809Y15247188D02*
X8774809Y16263188D01*
X8774809Y16263188D02*
X9113476Y16263188D01*
X9113476Y16263188D02*
X9210238Y16214807D01*
X9210238Y16214807D02*
X9258619Y16166426D01*
X9258619Y16166426D02*
X9307000Y16069664D01*
X9307000Y16069664D02*
X9307000Y15972902D01*
X9307000Y15972902D02*
X9258619Y15876140D01*
X9258619Y15876140D02*
X9210238Y15827759D01*
X9210238Y15827759D02*
X9113476Y15779378D01*
X9113476Y15779378D02*
X8774809Y15779378D01*
X9548905Y15150426D02*
X10323000Y15150426D01*
X10564904Y15247188D02*
X10564904Y16263188D01*
X10564904Y15779378D02*
X11145476Y15779378D01*
X11145476Y15247188D02*
X11145476Y16263188D01*
X11822809Y16263188D02*
X12016333Y16263188D01*
X12016333Y16263188D02*
X12113095Y16214807D01*
X12113095Y16214807D02*
X12209857Y16118045D01*
X12209857Y16118045D02*
X12258238Y15924521D01*
X12258238Y15924521D02*
X12258238Y15585854D01*
X12258238Y15585854D02*
X12209857Y15392330D01*
X12209857Y15392330D02*
X12113095Y15295568D01*
X12113095Y15295568D02*
X12016333Y15247188D01*
X12016333Y15247188D02*
X11822809Y15247188D01*
X11822809Y15247188D02*
X11726047Y15295568D01*
X11726047Y15295568D02*
X11629285Y15392330D01*
X11629285Y15392330D02*
X11580904Y15585854D01*
X11580904Y15585854D02*
X11580904Y15924521D01*
X11580904Y15924521D02*
X11629285Y16118045D01*
X11629285Y16118045D02*
X11726047Y16214807D01*
X11726047Y16214807D02*
X11822809Y16263188D01*
X12645285Y15295568D02*
X12790428Y15247188D01*
X12790428Y15247188D02*
X13032333Y15247188D01*
X13032333Y15247188D02*
X13129095Y15295568D01*
X13129095Y15295568D02*
X13177476Y15343949D01*
X13177476Y15343949D02*
X13225857Y15440711D01*
X13225857Y15440711D02*
X13225857Y15537473D01*
X13225857Y15537473D02*
X13177476Y15634235D01*
X13177476Y15634235D02*
X13129095Y15682616D01*
X13129095Y15682616D02*
X13032333Y15730997D01*
X13032333Y15730997D02*
X12838809Y15779378D01*
X12838809Y15779378D02*
X12742047Y15827759D01*
X12742047Y15827759D02*
X12693666Y15876140D01*
X12693666Y15876140D02*
X12645285Y15972902D01*
X12645285Y15972902D02*
X12645285Y16069664D01*
X12645285Y16069664D02*
X12693666Y16166426D01*
X12693666Y16166426D02*
X12742047Y16214807D01*
X12742047Y16214807D02*
X12838809Y16263188D01*
X12838809Y16263188D02*
X13080714Y16263188D01*
X13080714Y16263188D02*
X13225857Y16214807D01*
X13516142Y16263188D02*
X14096714Y16263188D01*
X13806428Y15247188D02*
X13806428Y16263188D01*
X14386999Y16166426D02*
X14435380Y16214807D01*
X14435380Y16214807D02*
X14532142Y16263188D01*
X14532142Y16263188D02*
X14774047Y16263188D01*
X14774047Y16263188D02*
X14870809Y16214807D01*
X14870809Y16214807D02*
X14919190Y16166426D01*
X14919190Y16166426D02*
X14967571Y16069664D01*
X14967571Y16069664D02*
X14967571Y15972902D01*
X14967571Y15972902D02*
X14919190Y15827759D01*
X14919190Y15827759D02*
X14338618Y15247188D01*
X14338618Y15247188D02*
X14967571Y15247188D01*
X17568047Y29598188D02*
X17568047Y30614188D01*
X17568047Y30614188D02*
X17955095Y30614188D01*
X17955095Y30614188D02*
X18051857Y30565807D01*
X18051857Y30565807D02*
X18100238Y30517426D01*
X18100238Y30517426D02*
X18148619Y30420664D01*
X18148619Y30420664D02*
X18148619Y30275521D01*
X18148619Y30275521D02*
X18100238Y30178759D01*
X18100238Y30178759D02*
X18051857Y30130378D01*
X18051857Y30130378D02*
X17955095Y30081997D01*
X17955095Y30081997D02*
X17568047Y30081997D01*
X18487285Y30614188D02*
X18729190Y29598188D01*
X18729190Y29598188D02*
X18922714Y30323902D01*
X18922714Y30323902D02*
X19116238Y29598188D01*
X19116238Y29598188D02*
X19358143Y30614188D01*
X20325762Y29598188D02*
X19987095Y30081997D01*
X19745190Y29598188D02*
X19745190Y30614188D01*
X19745190Y30614188D02*
X20132238Y30614188D01*
X20132238Y30614188D02*
X20229000Y30565807D01*
X20229000Y30565807D02*
X20277381Y30517426D01*
X20277381Y30517426D02*
X20325762Y30420664D01*
X20325762Y30420664D02*
X20325762Y30275521D01*
X20325762Y30275521D02*
X20277381Y30178759D01*
X20277381Y30178759D02*
X20229000Y30130378D01*
X20229000Y30130378D02*
X20132238Y30081997D01*
X20132238Y30081997D02*
X19745190Y30081997D01*
X20519286Y29501426D02*
X21293381Y29501426D01*
X21728809Y30614188D02*
X21922333Y30614188D01*
X21922333Y30614188D02*
X22019095Y30565807D01*
X22019095Y30565807D02*
X22115857Y30469045D01*
X22115857Y30469045D02*
X22164238Y30275521D01*
X22164238Y30275521D02*
X22164238Y29936854D01*
X22164238Y29936854D02*
X22115857Y29743330D01*
X22115857Y29743330D02*
X22019095Y29646568D01*
X22019095Y29646568D02*
X21922333Y29598188D01*
X21922333Y29598188D02*
X21728809Y29598188D01*
X21728809Y29598188D02*
X21632047Y29646568D01*
X21632047Y29646568D02*
X21535285Y29743330D01*
X21535285Y29743330D02*
X21486904Y29936854D01*
X21486904Y29936854D02*
X21486904Y30275521D01*
X21486904Y30275521D02*
X21535285Y30469045D01*
X21535285Y30469045D02*
X21632047Y30565807D01*
X21632047Y30565807D02*
X21728809Y30614188D01*
X22599666Y30614188D02*
X22599666Y29791711D01*
X22599666Y29791711D02*
X22648047Y29694949D01*
X22648047Y29694949D02*
X22696428Y29646568D01*
X22696428Y29646568D02*
X22793190Y29598188D01*
X22793190Y29598188D02*
X22986714Y29598188D01*
X22986714Y29598188D02*
X23083476Y29646568D01*
X23083476Y29646568D02*
X23131857Y29694949D01*
X23131857Y29694949D02*
X23180238Y29791711D01*
X23180238Y29791711D02*
X23180238Y30614188D01*
X23518904Y30614188D02*
X24099476Y30614188D01*
X23809190Y29598188D02*
X23809190Y30614188D01*
X24970333Y29598188D02*
X24389761Y29598188D01*
X24680047Y29598188D02*
X24680047Y30614188D01*
X24680047Y30614188D02*
X24583285Y30469045D01*
X24583285Y30469045D02*
X24486523Y30372283D01*
X24486523Y30372283D02*
X24389761Y30323902D01*
X34940051Y13629668D02*
X34988432Y13581287D01*
X34988432Y13581287D02*
X35036812Y13436144D01*
X35036812Y13436144D02*
X35036812Y13339382D01*
X35036812Y13339382D02*
X34988432Y13194239D01*
X34988432Y13194239D02*
X34891670Y13097477D01*
X34891670Y13097477D02*
X34794908Y13049096D01*
X34794908Y13049096D02*
X34601384Y13000715D01*
X34601384Y13000715D02*
X34456241Y13000715D01*
X34456241Y13000715D02*
X34262717Y13049096D01*
X34262717Y13049096D02*
X34165955Y13097477D01*
X34165955Y13097477D02*
X34069193Y13194239D01*
X34069193Y13194239D02*
X34020812Y13339382D01*
X34020812Y13339382D02*
X34020812Y13436144D01*
X34020812Y13436144D02*
X34069193Y13581287D01*
X34069193Y13581287D02*
X34117574Y13629668D01*
X34020812Y13968334D02*
X34020812Y14645668D01*
X34020812Y14645668D02*
X35036812Y14210239D01*
D12*
X26216712Y4633834D02*
X25793379Y4337501D01*
X26216712Y4125834D02*
X25327712Y4125834D01*
X25327712Y4125834D02*
X25327712Y4464501D01*
X25327712Y4464501D02*
X25370045Y4549167D01*
X25370045Y4549167D02*
X25412379Y4591501D01*
X25412379Y4591501D02*
X25497045Y4633834D01*
X25497045Y4633834D02*
X25624045Y4633834D01*
X25624045Y4633834D02*
X25708712Y4591501D01*
X25708712Y4591501D02*
X25751045Y4549167D01*
X25751045Y4549167D02*
X25793379Y4464501D01*
X25793379Y4464501D02*
X25793379Y4125834D01*
X25624045Y5395834D02*
X26216712Y5395834D01*
X25285379Y5184167D02*
X25920379Y4972501D01*
X25920379Y4972501D02*
X25920379Y5522834D01*
D11*
X19319051Y21249668D02*
X19367432Y21201287D01*
X19367432Y21201287D02*
X19415812Y21056144D01*
X19415812Y21056144D02*
X19415812Y20959382D01*
X19415812Y20959382D02*
X19367432Y20814239D01*
X19367432Y20814239D02*
X19270670Y20717477D01*
X19270670Y20717477D02*
X19173908Y20669096D01*
X19173908Y20669096D02*
X18980384Y20620715D01*
X18980384Y20620715D02*
X18835241Y20620715D01*
X18835241Y20620715D02*
X18641717Y20669096D01*
X18641717Y20669096D02*
X18544955Y20717477D01*
X18544955Y20717477D02*
X18448193Y20814239D01*
X18448193Y20814239D02*
X18399812Y20959382D01*
X18399812Y20959382D02*
X18399812Y21056144D01*
X18399812Y21056144D02*
X18448193Y21201287D01*
X18448193Y21201287D02*
X18496574Y21249668D01*
X18835241Y21830239D02*
X18786860Y21733477D01*
X18786860Y21733477D02*
X18738479Y21685096D01*
X18738479Y21685096D02*
X18641717Y21636715D01*
X18641717Y21636715D02*
X18593336Y21636715D01*
X18593336Y21636715D02*
X18496574Y21685096D01*
X18496574Y21685096D02*
X18448193Y21733477D01*
X18448193Y21733477D02*
X18399812Y21830239D01*
X18399812Y21830239D02*
X18399812Y22023763D01*
X18399812Y22023763D02*
X18448193Y22120525D01*
X18448193Y22120525D02*
X18496574Y22168906D01*
X18496574Y22168906D02*
X18593336Y22217287D01*
X18593336Y22217287D02*
X18641717Y22217287D01*
X18641717Y22217287D02*
X18738479Y22168906D01*
X18738479Y22168906D02*
X18786860Y22120525D01*
X18786860Y22120525D02*
X18835241Y22023763D01*
X18835241Y22023763D02*
X18835241Y21830239D01*
X18835241Y21830239D02*
X18883622Y21733477D01*
X18883622Y21733477D02*
X18932003Y21685096D01*
X18932003Y21685096D02*
X19028765Y21636715D01*
X19028765Y21636715D02*
X19222289Y21636715D01*
X19222289Y21636715D02*
X19319051Y21685096D01*
X19319051Y21685096D02*
X19367432Y21733477D01*
X19367432Y21733477D02*
X19415812Y21830239D01*
X19415812Y21830239D02*
X19415812Y22023763D01*
X19415812Y22023763D02*
X19367432Y22120525D01*
X19367432Y22120525D02*
X19319051Y22168906D01*
X19319051Y22168906D02*
X19222289Y22217287D01*
X19222289Y22217287D02*
X19028765Y22217287D01*
X19028765Y22217287D02*
X18932003Y22168906D01*
X18932003Y22168906D02*
X18883622Y22120525D01*
X18883622Y22120525D02*
X18835241Y22023763D01*
D12*
X25751045Y9078834D02*
X25793379Y9036501D01*
X25793379Y9036501D02*
X25835712Y8909501D01*
X25835712Y8909501D02*
X25835712Y8824834D01*
X25835712Y8824834D02*
X25793379Y8697834D01*
X25793379Y8697834D02*
X25708712Y8613167D01*
X25708712Y8613167D02*
X25624045Y8570834D01*
X25624045Y8570834D02*
X25454712Y8528501D01*
X25454712Y8528501D02*
X25327712Y8528501D01*
X25327712Y8528501D02*
X25158379Y8570834D01*
X25158379Y8570834D02*
X25073712Y8613167D01*
X25073712Y8613167D02*
X24989045Y8697834D01*
X24989045Y8697834D02*
X24946712Y8824834D01*
X24946712Y8824834D02*
X24946712Y8909501D01*
X24946712Y8909501D02*
X24989045Y9036501D01*
X24989045Y9036501D02*
X25031379Y9078834D01*
X24946712Y9375167D02*
X24946712Y9925501D01*
X24946712Y9925501D02*
X25285379Y9629167D01*
X25285379Y9629167D02*
X25285379Y9756167D01*
X25285379Y9756167D02*
X25327712Y9840834D01*
X25327712Y9840834D02*
X25370045Y9883167D01*
X25370045Y9883167D02*
X25454712Y9925501D01*
X25454712Y9925501D02*
X25666379Y9925501D01*
X25666379Y9925501D02*
X25751045Y9883167D01*
X25751045Y9883167D02*
X25793379Y9840834D01*
X25793379Y9840834D02*
X25835712Y9756167D01*
X25835712Y9756167D02*
X25835712Y9502167D01*
X25835712Y9502167D02*
X25793379Y9417501D01*
X25793379Y9417501D02*
X25751045Y9375167D01*
X8650833Y8276955D02*
X8608500Y8234621D01*
X8608500Y8234621D02*
X8481500Y8192288D01*
X8481500Y8192288D02*
X8396833Y8192288D01*
X8396833Y8192288D02*
X8269833Y8234621D01*
X8269833Y8234621D02*
X8185167Y8319288D01*
X8185167Y8319288D02*
X8142833Y8403955D01*
X8142833Y8403955D02*
X8100500Y8573288D01*
X8100500Y8573288D02*
X8100500Y8700288D01*
X8100500Y8700288D02*
X8142833Y8869621D01*
X8142833Y8869621D02*
X8185167Y8954288D01*
X8185167Y8954288D02*
X8269833Y9038955D01*
X8269833Y9038955D02*
X8396833Y9081288D01*
X8396833Y9081288D02*
X8481500Y9081288D01*
X8481500Y9081288D02*
X8608500Y9038955D01*
X8608500Y9038955D02*
X8650833Y8996621D01*
X9455167Y9081288D02*
X9031833Y9081288D01*
X9031833Y9081288D02*
X8989500Y8657955D01*
X8989500Y8657955D02*
X9031833Y8700288D01*
X9031833Y8700288D02*
X9116500Y8742621D01*
X9116500Y8742621D02*
X9328167Y8742621D01*
X9328167Y8742621D02*
X9412833Y8700288D01*
X9412833Y8700288D02*
X9455167Y8657955D01*
X9455167Y8657955D02*
X9497500Y8573288D01*
X9497500Y8573288D02*
X9497500Y8361621D01*
X9497500Y8361621D02*
X9455167Y8276955D01*
X9455167Y8276955D02*
X9412833Y8234621D01*
X9412833Y8234621D02*
X9328167Y8192288D01*
X9328167Y8192288D02*
X9116500Y8192288D01*
X9116500Y8192288D02*
X9031833Y8234621D01*
X9031833Y8234621D02*
X8989500Y8276955D01*
D11*
X4526574Y4812239D02*
X4478193Y4715477D01*
X4478193Y4715477D02*
X4381432Y4618715D01*
X4381432Y4618715D02*
X4236289Y4473572D01*
X4236289Y4473572D02*
X4187908Y4376810D01*
X4187908Y4376810D02*
X4187908Y4280048D01*
X4429812Y4328429D02*
X4381432Y4231667D01*
X4381432Y4231667D02*
X4284670Y4134905D01*
X4284670Y4134905D02*
X4091146Y4086524D01*
X4091146Y4086524D02*
X3752479Y4086524D01*
X3752479Y4086524D02*
X3558955Y4134905D01*
X3558955Y4134905D02*
X3462193Y4231667D01*
X3462193Y4231667D02*
X3413812Y4328429D01*
X3413812Y4328429D02*
X3413812Y4521953D01*
X3413812Y4521953D02*
X3462193Y4618715D01*
X3462193Y4618715D02*
X3558955Y4715477D01*
X3558955Y4715477D02*
X3752479Y4763858D01*
X3752479Y4763858D02*
X4091146Y4763858D01*
X4091146Y4763858D02*
X4284670Y4715477D01*
X4284670Y4715477D02*
X4381432Y4618715D01*
X4381432Y4618715D02*
X4429812Y4521953D01*
X4429812Y4521953D02*
X4429812Y4328429D01*
X4429812Y5731477D02*
X4429812Y5150905D01*
X4429812Y5441191D02*
X3413812Y5441191D01*
X3413812Y5441191D02*
X3558955Y5344429D01*
X3558955Y5344429D02*
X3655717Y5247667D01*
X3655717Y5247667D02*
X3704098Y5150905D01*
X4154428Y6928688D02*
X4057666Y6977068D01*
X4057666Y6977068D02*
X4009285Y7025449D01*
X4009285Y7025449D02*
X3960904Y7122211D01*
X3960904Y7122211D02*
X3960904Y7412497D01*
X3960904Y7412497D02*
X4009285Y7509259D01*
X4009285Y7509259D02*
X4057666Y7557640D01*
X4057666Y7557640D02*
X4154428Y7606021D01*
X4154428Y7606021D02*
X4299571Y7606021D01*
X4299571Y7606021D02*
X4396333Y7557640D01*
X4396333Y7557640D02*
X4444714Y7509259D01*
X4444714Y7509259D02*
X4493095Y7412497D01*
X4493095Y7412497D02*
X4493095Y7122211D01*
X4493095Y7122211D02*
X4444714Y7025449D01*
X4444714Y7025449D02*
X4396333Y6977068D01*
X4396333Y6977068D02*
X4299571Y6928688D01*
X4299571Y6928688D02*
X4154428Y6928688D01*
X23869667Y11025949D02*
X23821286Y10977568D01*
X23821286Y10977568D02*
X23676143Y10929188D01*
X23676143Y10929188D02*
X23579381Y10929188D01*
X23579381Y10929188D02*
X23434238Y10977568D01*
X23434238Y10977568D02*
X23337476Y11074330D01*
X23337476Y11074330D02*
X23289095Y11171092D01*
X23289095Y11171092D02*
X23240714Y11364616D01*
X23240714Y11364616D02*
X23240714Y11509759D01*
X23240714Y11509759D02*
X23289095Y11703283D01*
X23289095Y11703283D02*
X23337476Y11800045D01*
X23337476Y11800045D02*
X23434238Y11896807D01*
X23434238Y11896807D02*
X23579381Y11945188D01*
X23579381Y11945188D02*
X23676143Y11945188D01*
X23676143Y11945188D02*
X23821286Y11896807D01*
X23821286Y11896807D02*
X23869667Y11848426D01*
X24837286Y10929188D02*
X24256714Y10929188D01*
X24547000Y10929188D02*
X24547000Y11945188D01*
X24547000Y11945188D02*
X24450238Y11800045D01*
X24450238Y11800045D02*
X24353476Y11703283D01*
X24353476Y11703283D02*
X24256714Y11654902D01*
X33162051Y13629668D02*
X33210432Y13581287D01*
X33210432Y13581287D02*
X33258812Y13436144D01*
X33258812Y13436144D02*
X33258812Y13339382D01*
X33258812Y13339382D02*
X33210432Y13194239D01*
X33210432Y13194239D02*
X33113670Y13097477D01*
X33113670Y13097477D02*
X33016908Y13049096D01*
X33016908Y13049096D02*
X32823384Y13000715D01*
X32823384Y13000715D02*
X32678241Y13000715D01*
X32678241Y13000715D02*
X32484717Y13049096D01*
X32484717Y13049096D02*
X32387955Y13097477D01*
X32387955Y13097477D02*
X32291193Y13194239D01*
X32291193Y13194239D02*
X32242812Y13339382D01*
X32242812Y13339382D02*
X32242812Y13436144D01*
X32242812Y13436144D02*
X32291193Y13581287D01*
X32291193Y13581287D02*
X32339574Y13629668D01*
X33258812Y14113477D02*
X33258812Y14307001D01*
X33258812Y14307001D02*
X33210432Y14403763D01*
X33210432Y14403763D02*
X33162051Y14452144D01*
X33162051Y14452144D02*
X33016908Y14548906D01*
X33016908Y14548906D02*
X32823384Y14597287D01*
X32823384Y14597287D02*
X32436336Y14597287D01*
X32436336Y14597287D02*
X32339574Y14548906D01*
X32339574Y14548906D02*
X32291193Y14500525D01*
X32291193Y14500525D02*
X32242812Y14403763D01*
X32242812Y14403763D02*
X32242812Y14210239D01*
X32242812Y14210239D02*
X32291193Y14113477D01*
X32291193Y14113477D02*
X32339574Y14065096D01*
X32339574Y14065096D02*
X32436336Y14016715D01*
X32436336Y14016715D02*
X32678241Y14016715D01*
X32678241Y14016715D02*
X32775003Y14065096D01*
X32775003Y14065096D02*
X32823384Y14113477D01*
X32823384Y14113477D02*
X32871765Y14210239D01*
X32871765Y14210239D02*
X32871765Y14403763D01*
X32871765Y14403763D02*
X32823384Y14500525D01*
X32823384Y14500525D02*
X32775003Y14548906D01*
X32775003Y14548906D02*
X32678241Y14597287D01*
D12*
X8650833Y2688955D02*
X8608500Y2646621D01*
X8608500Y2646621D02*
X8481500Y2604288D01*
X8481500Y2604288D02*
X8396833Y2604288D01*
X8396833Y2604288D02*
X8269833Y2646621D01*
X8269833Y2646621D02*
X8185167Y2731288D01*
X8185167Y2731288D02*
X8142833Y2815955D01*
X8142833Y2815955D02*
X8100500Y2985288D01*
X8100500Y2985288D02*
X8100500Y3112288D01*
X8100500Y3112288D02*
X8142833Y3281621D01*
X8142833Y3281621D02*
X8185167Y3366288D01*
X8185167Y3366288D02*
X8269833Y3450955D01*
X8269833Y3450955D02*
X8396833Y3493288D01*
X8396833Y3493288D02*
X8481500Y3493288D01*
X8481500Y3493288D02*
X8608500Y3450955D01*
X8608500Y3450955D02*
X8650833Y3408621D01*
X9412833Y3493288D02*
X9243500Y3493288D01*
X9243500Y3493288D02*
X9158833Y3450955D01*
X9158833Y3450955D02*
X9116500Y3408621D01*
X9116500Y3408621D02*
X9031833Y3281621D01*
X9031833Y3281621D02*
X8989500Y3112288D01*
X8989500Y3112288D02*
X8989500Y2773621D01*
X8989500Y2773621D02*
X9031833Y2688955D01*
X9031833Y2688955D02*
X9074167Y2646621D01*
X9074167Y2646621D02*
X9158833Y2604288D01*
X9158833Y2604288D02*
X9328167Y2604288D01*
X9328167Y2604288D02*
X9412833Y2646621D01*
X9412833Y2646621D02*
X9455167Y2688955D01*
X9455167Y2688955D02*
X9497500Y2773621D01*
X9497500Y2773621D02*
X9497500Y2985288D01*
X9497500Y2985288D02*
X9455167Y3069955D01*
X9455167Y3069955D02*
X9412833Y3112288D01*
X9412833Y3112288D02*
X9328167Y3154621D01*
X9328167Y3154621D02*
X9158833Y3154621D01*
X9158833Y3154621D02*
X9074167Y3112288D01*
X9074167Y3112288D02*
X9031833Y3069955D01*
X9031833Y3069955D02*
X8989500Y2985288D01*
D11*
X26812051Y20892858D02*
X26860432Y20844477D01*
X26860432Y20844477D02*
X26908812Y20699334D01*
X26908812Y20699334D02*
X26908812Y20602572D01*
X26908812Y20602572D02*
X26860432Y20457429D01*
X26860432Y20457429D02*
X26763670Y20360667D01*
X26763670Y20360667D02*
X26666908Y20312286D01*
X26666908Y20312286D02*
X26473384Y20263905D01*
X26473384Y20263905D02*
X26328241Y20263905D01*
X26328241Y20263905D02*
X26134717Y20312286D01*
X26134717Y20312286D02*
X26037955Y20360667D01*
X26037955Y20360667D02*
X25941193Y20457429D01*
X25941193Y20457429D02*
X25892812Y20602572D01*
X25892812Y20602572D02*
X25892812Y20699334D01*
X25892812Y20699334D02*
X25941193Y20844477D01*
X25941193Y20844477D02*
X25989574Y20892858D01*
X26908812Y21860477D02*
X26908812Y21279905D01*
X26908812Y21570191D02*
X25892812Y21570191D01*
X25892812Y21570191D02*
X26037955Y21473429D01*
X26037955Y21473429D02*
X26134717Y21376667D01*
X26134717Y21376667D02*
X26183098Y21279905D01*
X25892812Y22489429D02*
X25892812Y22586191D01*
X25892812Y22586191D02*
X25941193Y22682953D01*
X25941193Y22682953D02*
X25989574Y22731334D01*
X25989574Y22731334D02*
X26086336Y22779715D01*
X26086336Y22779715D02*
X26279860Y22828096D01*
X26279860Y22828096D02*
X26521765Y22828096D01*
X26521765Y22828096D02*
X26715289Y22779715D01*
X26715289Y22779715D02*
X26812051Y22731334D01*
X26812051Y22731334D02*
X26860432Y22682953D01*
X26860432Y22682953D02*
X26908812Y22586191D01*
X26908812Y22586191D02*
X26908812Y22489429D01*
X26908812Y22489429D02*
X26860432Y22392667D01*
X26860432Y22392667D02*
X26812051Y22344286D01*
X26812051Y22344286D02*
X26715289Y22295905D01*
X26715289Y22295905D02*
X26521765Y22247524D01*
X26521765Y22247524D02*
X26279860Y22247524D01*
X26279860Y22247524D02*
X26086336Y22295905D01*
X26086336Y22295905D02*
X25989574Y22344286D01*
X25989574Y22344286D02*
X25941193Y22392667D01*
X25941193Y22392667D02*
X25892812Y22489429D01*
D12*
X24481045Y5014834D02*
X24523379Y4972501D01*
X24523379Y4972501D02*
X24565712Y4845501D01*
X24565712Y4845501D02*
X24565712Y4760834D01*
X24565712Y4760834D02*
X24523379Y4633834D01*
X24523379Y4633834D02*
X24438712Y4549167D01*
X24438712Y4549167D02*
X24354045Y4506834D01*
X24354045Y4506834D02*
X24184712Y4464501D01*
X24184712Y4464501D02*
X24057712Y4464501D01*
X24057712Y4464501D02*
X23888379Y4506834D01*
X23888379Y4506834D02*
X23803712Y4549167D01*
X23803712Y4549167D02*
X23719045Y4633834D01*
X23719045Y4633834D02*
X23676712Y4760834D01*
X23676712Y4760834D02*
X23676712Y4845501D01*
X23676712Y4845501D02*
X23719045Y4972501D01*
X23719045Y4972501D02*
X23761379Y5014834D01*
X23761379Y5353501D02*
X23719045Y5395834D01*
X23719045Y5395834D02*
X23676712Y5480501D01*
X23676712Y5480501D02*
X23676712Y5692167D01*
X23676712Y5692167D02*
X23719045Y5776834D01*
X23719045Y5776834D02*
X23761379Y5819167D01*
X23761379Y5819167D02*
X23846045Y5861501D01*
X23846045Y5861501D02*
X23930712Y5861501D01*
X23930712Y5861501D02*
X24057712Y5819167D01*
X24057712Y5819167D02*
X24565712Y5311167D01*
X24565712Y5311167D02*
X24565712Y5861501D01*
D11*
X20658380Y515188D02*
X20658380Y1531188D01*
X20658380Y1531188D02*
X21045428Y1531188D01*
X21045428Y1531188D02*
X21142190Y1482807D01*
X21142190Y1482807D02*
X21190571Y1434426D01*
X21190571Y1434426D02*
X21238952Y1337664D01*
X21238952Y1337664D02*
X21238952Y1192521D01*
X21238952Y1192521D02*
X21190571Y1095759D01*
X21190571Y1095759D02*
X21142190Y1047378D01*
X21142190Y1047378D02*
X21045428Y998997D01*
X21045428Y998997D02*
X20658380Y998997D01*
X21577618Y1531188D02*
X21819523Y515188D01*
X21819523Y515188D02*
X22013047Y1240902D01*
X22013047Y1240902D02*
X22206571Y515188D01*
X22206571Y515188D02*
X22448476Y1531188D01*
X23416095Y515188D02*
X23077428Y998997D01*
X22835523Y515188D02*
X22835523Y1531188D01*
X22835523Y1531188D02*
X23222571Y1531188D01*
X23222571Y1531188D02*
X23319333Y1482807D01*
X23319333Y1482807D02*
X23367714Y1434426D01*
X23367714Y1434426D02*
X23416095Y1337664D01*
X23416095Y1337664D02*
X23416095Y1192521D01*
X23416095Y1192521D02*
X23367714Y1095759D01*
X23367714Y1095759D02*
X23319333Y1047378D01*
X23319333Y1047378D02*
X23222571Y998997D01*
X23222571Y998997D02*
X22835523Y998997D01*
X23609619Y418426D02*
X24383714Y418426D01*
X24625618Y515188D02*
X24625618Y1531188D01*
X25109428Y515188D02*
X25109428Y1531188D01*
X25109428Y1531188D02*
X25690000Y515188D01*
X25690000Y515188D02*
X25690000Y1531188D01*
X26706000Y515188D02*
X26125428Y515188D01*
X26415714Y515188D02*
X26415714Y1531188D01*
X26415714Y1531188D02*
X26318952Y1386045D01*
X26318952Y1386045D02*
X26222190Y1289283D01*
X26222190Y1289283D02*
X26125428Y1240902D01*
D13*
X21801640Y18396400D02*
X23422160Y18396400D01*
X21804180Y17494700D02*
X21804180Y17405800D01*
X21804180Y16542200D02*
X21804180Y16453300D01*
X23422160Y17494700D02*
X23422160Y17405800D01*
X23422160Y16542200D02*
X23422160Y16453300D01*
X23422160Y15551600D02*
X21801640Y15551600D01*
D11*
X23048780Y16034200D02*
G75*
G03*
X23048780Y16034200I-208280J0D01*
G01*
D14*
X25944000Y32023500D02*
X26452000Y32023500D01*
X25944000Y31134500D02*
X26452000Y31134500D01*
X18768500Y14688000D02*
X18768500Y15196000D01*
X19657500Y14688000D02*
X19657500Y15196000D01*
X21689500Y7957000D02*
X21689500Y8465000D01*
X22578500Y7957000D02*
X22578500Y8465000D01*
D11*
X43100000Y25700000D02*
X43100000Y34000000D01*
X43098920Y20400560D02*
X43098920Y21698500D01*
X43098920Y33999720D02*
X41999100Y33999720D01*
X42000000Y34000000D02*
X38000000Y34000000D01*
X41999100Y33999720D02*
X40497960Y25998720D01*
X40497960Y25998720D02*
X38999360Y25998720D01*
X38999360Y25998720D02*
X37998600Y33999720D01*
X38498980Y22998980D02*
X38498980Y23999740D01*
X38498980Y23999740D02*
X34501020Y23999740D01*
X38000000Y34000000D02*
X29900000Y34000000D01*
X35001400Y33999720D02*
X33500260Y25998720D01*
X34501020Y22998980D02*
X38498980Y22998980D01*
X34501020Y23999740D02*
X34501020Y22998980D01*
X33500260Y25998720D02*
X32001660Y25998720D01*
X32001660Y25998720D02*
X31000900Y33999720D01*
X31600000Y17000000D02*
X41400000Y17000000D01*
X29901080Y21698500D02*
X29901080Y20400560D01*
X29900000Y34000000D02*
X29900000Y25700000D01*
D14*
X36167500Y11132000D02*
X36167500Y10624000D01*
X35278500Y11132000D02*
X35278500Y10624000D01*
X31595500Y11132000D02*
X31595500Y10624000D01*
X30706500Y11132000D02*
X30706500Y10624000D01*
D11*
X17441000Y11937000D02*
X17441000Y1437000D01*
X11841000Y11937000D02*
X17441000Y11937000D01*
X17441000Y1437000D02*
X11841000Y1437000D01*
X11841000Y1437000D02*
X11841000Y11937000D01*
X11141000Y11887000D02*
G75*
G03*
X11141000Y11887000I-300000J0D01*
G01*
X36970000Y5850000D02*
X36970000Y4550000D01*
X28030000Y5850000D02*
X28030000Y4550000D01*
X28030000Y1850000D02*
X28030000Y-18000D01*
X36970000Y-18000D02*
X36970000Y1850000D01*
X28030000Y-18000D02*
X36970000Y-18000D01*
X16100000Y25700000D02*
X16100000Y34000000D01*
X16098920Y20400560D02*
X16098920Y21698500D01*
X16098920Y33999720D02*
X14999100Y33999720D01*
X15000000Y34000000D02*
X11000000Y34000000D01*
X14999100Y33999720D02*
X13497960Y25998720D01*
X13497960Y25998720D02*
X11999360Y25998720D01*
X11999360Y25998720D02*
X10998600Y33999720D01*
X11498980Y22998980D02*
X11498980Y23999740D01*
X11498980Y23999740D02*
X7501020Y23999740D01*
X11000000Y34000000D02*
X2900000Y34000000D01*
X8001400Y33999720D02*
X6500260Y25998720D01*
X7501020Y22998980D02*
X11498980Y22998980D01*
X7501020Y23999740D02*
X7501020Y22998980D01*
X6500260Y25998720D02*
X5001660Y25998720D01*
X5001660Y25998720D02*
X4000900Y33999720D01*
X4600000Y17000000D02*
X14400000Y17000000D01*
X2901080Y21698500D02*
X2901080Y20400560D01*
X2900000Y34000000D02*
X2900000Y25700000D01*
X24562100Y32044500D02*
X24562100Y31219000D01*
X24409700Y31079300D02*
X24549400Y31206300D01*
X24409700Y32171500D02*
X24562100Y32044500D01*
D15*
X24397000Y31015800D02*
X23381000Y31015800D01*
D11*
X24397000Y31117400D02*
X24397000Y32158800D01*
D15*
X23381000Y32235000D02*
X24397000Y32235000D01*
D16*
X23177800Y31354400D02*
X23047800Y31244400D01*
D17*
X23100000Y31710000D02*
X23100000Y31490000D01*
D16*
X23046200Y31245400D02*
X23126200Y31255400D01*
X23046200Y31245400D02*
X23046200Y31325400D01*
X22970800Y31375400D02*
X22840800Y31265400D01*
D17*
X22910000Y31490000D02*
X23010000Y31590000D01*
X22910000Y31710000D02*
X23020000Y31610000D01*
X22910000Y31710000D02*
X22910000Y31490000D01*
D16*
X22830800Y31245400D02*
X22910800Y31255400D01*
X22830800Y31245400D02*
X22830800Y31325400D01*
D17*
X22740000Y31600000D02*
X23260000Y31600000D01*
D11*
X29627000Y13418000D02*
X29627000Y14434000D01*
X31659000Y13418000D02*
X31659000Y14434000D01*
D14*
X25155500Y2646000D02*
X25155500Y3154000D01*
X26044500Y2646000D02*
X26044500Y3154000D01*
D11*
X20102000Y20911000D02*
X20102000Y21927000D01*
X22134000Y20911000D02*
X22134000Y21927000D01*
X22896000Y8084000D02*
X22896000Y9100000D01*
X24420000Y8084000D02*
X24420000Y9100000D01*
D14*
X6767000Y9036500D02*
X7275000Y9036500D01*
X6767000Y8147500D02*
X7275000Y8147500D01*
D11*
X7656000Y5721800D02*
X7656000Y6128200D01*
X5116000Y5721800D02*
X5116000Y6128200D01*
X23531000Y14561000D02*
X24547000Y14561000D01*
X23531000Y12529000D02*
X24547000Y12529000D01*
X27087000Y13418000D02*
X27087000Y14434000D01*
X29119000Y13418000D02*
X29119000Y14434000D01*
D14*
X7275000Y2813500D02*
X6767000Y2813500D01*
X7275000Y3702500D02*
X6767000Y3702500D01*
D11*
X22642000Y20911000D02*
X22642000Y21927000D01*
X24674000Y20911000D02*
X24674000Y21927000D01*
X23150000Y5671000D02*
X23150000Y4655000D01*
X21626000Y5671000D02*
X21626000Y4655000D01*
X24562100Y2844500D02*
X24562100Y2019000D01*
X24409700Y1879300D02*
X24549400Y2006300D01*
X24409700Y2971500D02*
X24562100Y2844500D01*
D15*
X24397000Y1815800D02*
X23381000Y1815800D01*
D11*
X24397000Y1917400D02*
X24397000Y2958800D01*
D15*
X23381000Y3035000D02*
X24397000Y3035000D01*
D16*
X23177800Y2154400D02*
X23047800Y2044400D01*
D17*
X23100000Y2510000D02*
X23100000Y2290000D01*
D16*
X23046200Y2045400D02*
X23126200Y2055400D01*
X23046200Y2045400D02*
X23046200Y2125400D01*
X22970800Y2175400D02*
X22840800Y2065400D01*
D17*
X22910000Y2290000D02*
X23010000Y2390000D01*
X22910000Y2510000D02*
X23020000Y2410000D01*
X22910000Y2510000D02*
X22910000Y2290000D01*
D16*
X22830800Y2045400D02*
X22910800Y2055400D01*
X22830800Y2045400D02*
X22830800Y2125400D01*
D17*
X22740000Y2400000D02*
X23260000Y2400000D01*
M02*
