%TF.GenerationSoftware,KiCad,Pcbnew,7.0.9-7.0.9~ubuntu22.04.1*%
%TF.CreationDate,2024-01-26T14:57:20+02:00*%
%TF.ProjectId,USB-NeoHUB_Rev_A,5553422d-4e65-46f4-9855-425f5265765f,A*%
%TF.SameCoordinates,PX5cfbb60PY69925e0*%
%TF.FileFunction,Copper,L2,Bot*%
%TF.FilePolarity,Positive*%
%FSLAX46Y46*%
G04 Gerber Fmt 4.6, Leading zero omitted, Abs format (unit mm)*
G04 Created by KiCad (PCBNEW 7.0.9-7.0.9~ubuntu22.04.1) date 2024-01-26 14:57:20*
%MOMM*%
%LPD*%
G01*
G04 APERTURE LIST*
%TA.AperFunction,ComponentPad*%
%ADD10C,3.400000*%
%TD*%
%TA.AperFunction,ComponentPad*%
%ADD11C,1.500000*%
%TD*%
%TA.AperFunction,ComponentPad*%
%ADD12O,1.200000X2.200000*%
%TD*%
%TA.AperFunction,ComponentPad*%
%ADD13O,1.300000X2.000000*%
%TD*%
%TA.AperFunction,ViaPad*%
%ADD14C,1.000000*%
%TD*%
%TA.AperFunction,ViaPad*%
%ADD15C,0.800000*%
%TD*%
%TA.AperFunction,ViaPad*%
%ADD16C,0.700000*%
%TD*%
%TA.AperFunction,Conductor*%
%ADD17C,0.508000*%
%TD*%
%TA.AperFunction,Conductor*%
%ADD18C,1.016000*%
%TD*%
%TA.AperFunction,Conductor*%
%ADD19C,2.032000*%
%TD*%
%TA.AperFunction,Conductor*%
%ADD20C,1.524000*%
%TD*%
%TA.AperFunction,Conductor*%
%ADD21C,0.762000*%
%TD*%
%TA.AperFunction,Conductor*%
%ADD22C,0.203200*%
%TD*%
%TA.AperFunction,Conductor*%
%ADD23C,0.254000*%
%TD*%
G04 APERTURE END LIST*
D10*
X43070000Y18000000D03*
X43070000Y23700000D03*
X29930000Y18000000D03*
X29930000Y23700000D03*
D11*
X40000000Y18380000D03*
X37500000Y18380000D03*
X35500000Y18380000D03*
X33000000Y18380000D03*
X40000000Y21000000D03*
X37500000Y21000000D03*
X35500000Y21000000D03*
X33000000Y21000000D03*
D12*
X36820000Y7330000D03*
X28180000Y7330000D03*
D13*
X36820000Y3150000D03*
X28180000Y3150000D03*
D10*
X16070000Y18000000D03*
X16070000Y23700000D03*
X2930000Y18000000D03*
X2930000Y23700000D03*
D11*
X13000000Y18380000D03*
X10500000Y18380000D03*
X8500000Y18380000D03*
X6000000Y18380000D03*
X13000000Y21000000D03*
X10500000Y21000000D03*
X8500000Y21000000D03*
X6000000Y21000000D03*
D14*
X8799000Y4147000D03*
X13498000Y1353000D03*
D15*
X14387000Y14688000D03*
D14*
X1433000Y8084000D03*
X9688000Y31833000D03*
X43851000Y29293000D03*
X22614502Y18879000D03*
X25309000Y29293000D03*
X5751000Y31833000D03*
X40930000Y31579000D03*
X12609000Y29293000D03*
X6513000Y25864000D03*
X22614502Y15196000D03*
X7910000Y29293000D03*
X3592000Y6052000D03*
X30897000Y3131000D03*
X16419000Y1353000D03*
X7656000Y9735000D03*
X40422000Y1226000D03*
D15*
X15276000Y9100000D03*
D14*
X17054000Y29293000D03*
D15*
X22134000Y10497000D03*
D14*
X37247000Y28785000D03*
X14387000Y31833000D03*
D15*
X14006000Y5671000D03*
X19975000Y12783000D03*
D14*
X25309000Y20276000D03*
X7402000Y14688000D03*
X42073000Y6306000D03*
X28357000Y31579000D03*
X36485000Y12910000D03*
X23912000Y3766000D03*
X25055000Y7830000D03*
X22614502Y16974000D03*
D15*
X16292000Y7322000D03*
D14*
X11593000Y16593000D03*
X27214000Y972000D03*
X34072000Y12529000D03*
X32421000Y28912000D03*
X34707000Y3131000D03*
X40041000Y8211000D03*
X34453000Y31579000D03*
X44867000Y8465000D03*
D15*
X12482000Y8084000D03*
D14*
X8037000Y1353000D03*
X29373000Y13418000D03*
X19975000Y1353000D03*
X5497000Y3258000D03*
X19086000Y31833000D03*
D15*
X18197000Y14434000D03*
D14*
X44867000Y4909000D03*
X1941000Y27769000D03*
X39406000Y26118000D03*
X42000000Y3600000D03*
X25278900Y17355000D03*
X3592000Y1353000D03*
X12482000Y13037000D03*
X32421000Y1226000D03*
X1433000Y4655000D03*
D15*
X17562000Y13284600D03*
X17562000Y12281400D03*
X12484482Y6538600D03*
X12484482Y5535400D03*
X13725685Y3866685D03*
X13016315Y3157315D03*
X24547000Y18625000D03*
X20229000Y5163000D03*
X16641750Y8785400D03*
X31913000Y6560000D03*
X33791685Y10523315D03*
X33082315Y11232685D03*
X16641750Y9788600D03*
X33062900Y6966400D03*
D16*
X20929330Y10939670D03*
X20290670Y11578330D03*
D17*
X28180000Y7330000D02*
X28680000Y7830000D01*
D18*
X28180000Y7330000D02*
X26714000Y7330000D01*
D19*
X29930000Y23700000D02*
X24669000Y23700000D01*
D17*
X28680000Y7830000D02*
X29881000Y7830000D01*
D18*
X22614502Y16974000D02*
X22614502Y18879000D01*
D19*
X26237000Y14307000D02*
X29930000Y18000000D01*
D18*
X7656000Y9735000D02*
X8037000Y10116000D01*
X8037000Y10116000D02*
X8037000Y13672000D01*
X8037000Y13672000D02*
X7529000Y14180000D01*
D17*
X36820000Y7330000D02*
X36820000Y6387000D01*
X36820000Y6387000D02*
X36231000Y5798000D01*
D18*
X29373000Y13418000D02*
X29373000Y14561000D01*
X22614502Y15350498D02*
X23658000Y14307000D01*
D17*
X16292000Y7322000D02*
X18197000Y7322000D01*
D18*
X22614502Y16974000D02*
X22614502Y15350498D01*
X22614502Y21645502D02*
X22614502Y18879000D01*
X24669000Y23700000D02*
X22614502Y21645502D01*
D20*
X23658000Y14307000D02*
X26237000Y14307000D01*
D21*
X37500000Y21000000D02*
X37062400Y21437600D01*
D22*
X36703201Y23139169D02*
X32378170Y27464200D01*
X32378170Y27464200D02*
X22811830Y27464200D01*
X17733400Y13113200D02*
X17562000Y13284600D01*
X20660800Y25313170D02*
X20660800Y15364336D01*
X37062400Y21437600D02*
X36703201Y21796799D01*
X36703201Y21796799D02*
X36703201Y23139169D01*
X22811830Y27464200D02*
X20660800Y25313170D01*
X18409664Y13113200D02*
X17733400Y13113200D01*
X20660800Y15364336D02*
X18409664Y13113200D01*
X35948000Y21448000D02*
X36296799Y21796799D01*
X32209830Y27057800D02*
X22980170Y27057800D01*
X36296799Y21796799D02*
X36296799Y22970831D01*
X36296799Y22970831D02*
X32209830Y27057800D01*
X21067200Y25144830D02*
X21067200Y15196000D01*
X22980170Y27057800D02*
X21067200Y25144830D01*
D21*
X35500000Y21000000D02*
X35948000Y21448000D01*
D22*
X17987400Y12706800D02*
X17562000Y12281400D01*
X21067200Y15196000D02*
X18578000Y12706800D01*
X18578000Y12706800D02*
X17987400Y12706800D01*
D21*
X10064100Y17944100D02*
X10500000Y18380000D01*
D22*
X11658799Y6240201D02*
X11466000Y6433000D01*
X11262800Y7068000D02*
X10483366Y7068000D01*
X12484482Y6538600D02*
X12186083Y6240201D01*
X9703201Y7848165D02*
X9703201Y17583201D01*
X11466000Y6433000D02*
X11466000Y6864800D01*
X11466000Y6864800D02*
X11262800Y7068000D01*
X10483366Y7068000D02*
X9703201Y7848165D01*
X12186083Y6240201D02*
X11658799Y6240201D01*
X9703201Y17583201D02*
X10064100Y17944100D01*
D21*
X8933400Y17946600D02*
X8500000Y18380000D01*
D22*
X12186083Y5833799D02*
X11142831Y5833799D01*
X9296799Y17583201D02*
X8933400Y17946600D01*
X11142831Y5833799D02*
X9296799Y7679831D01*
X9296799Y7679831D02*
X9296799Y17583201D01*
X12484482Y5535400D02*
X12186083Y5833799D01*
X13836170Y26930800D02*
X9637200Y22731830D01*
X17096830Y26930800D02*
X13836170Y26930800D01*
X14856900Y5290000D02*
X15276000Y5290000D01*
X15504600Y5917030D02*
X13802800Y7618830D01*
X15504600Y4172400D02*
X15276000Y4401000D01*
X15504600Y3680336D02*
X15504600Y4172400D01*
X14641000Y5074100D02*
X14856900Y5290000D01*
X14641000Y4629600D02*
X14641000Y5074100D01*
X13802800Y7618830D02*
X13802800Y12071800D01*
X13802800Y12071800D02*
X18882800Y17151800D01*
X15276000Y5290000D02*
X15504600Y5518600D01*
X13725685Y3866685D02*
X13725685Y3224051D01*
X18882800Y25144830D02*
X17096830Y26930800D01*
D21*
X10500000Y21000000D02*
X10234000Y21000000D01*
D22*
X14904464Y3080200D02*
X15504600Y3680336D01*
X15276000Y4401000D02*
X14869600Y4401000D01*
D21*
X10234000Y21000000D02*
X9815000Y21419000D01*
D22*
X15504600Y5518600D02*
X15504600Y5917030D01*
X9637200Y21596800D02*
X9815000Y21419000D01*
X13869536Y3080200D02*
X14904464Y3080200D01*
X9637200Y22731830D02*
X9637200Y21596800D01*
X13725685Y3224051D02*
X13869536Y3080200D01*
X18882800Y17151800D02*
X18882800Y25144830D01*
X14869600Y4401000D02*
X14641000Y4629600D01*
X19289200Y16983464D02*
X19289200Y25313170D01*
D21*
X8500000Y21297800D02*
X8875200Y21673000D01*
D22*
X9230800Y22900170D02*
X9230800Y22028600D01*
X14209200Y11903464D02*
X19289200Y16983464D01*
X15911000Y6085370D02*
X14209200Y7787170D01*
X13701200Y2673800D02*
X15072800Y2673800D01*
X13217685Y3157315D02*
X13701200Y2673800D01*
X13667830Y27337200D02*
X9230800Y22900170D01*
X15072800Y2673800D02*
X15911000Y3512000D01*
X9230800Y22028600D02*
X8875200Y21673000D01*
X13016315Y3157315D02*
X13217685Y3157315D01*
D21*
X8500000Y21000000D02*
X8500000Y21297800D01*
D22*
X19289200Y25313170D02*
X17265170Y27337200D01*
X14209200Y7787170D02*
X14209200Y11903464D01*
X17265170Y27337200D02*
X13667830Y27337200D01*
X15911000Y3512000D02*
X15911000Y6085370D01*
D23*
X38771000Y19387000D02*
X38771000Y15069000D01*
X38009000Y6052000D02*
X37120000Y5163000D01*
X34961000Y5163000D02*
X34199000Y4401000D01*
X31862200Y19691800D02*
X38466200Y19691800D01*
X31151000Y20403000D02*
X31862200Y19691800D01*
X38466200Y19691800D02*
X38771000Y19387000D01*
X38009000Y14307000D02*
X38009000Y6052000D01*
X37120000Y5163000D02*
X34961000Y5163000D01*
X24547000Y18625000D02*
X26960000Y18625000D01*
X30706500Y4401000D02*
X29944500Y5163000D01*
X26960000Y18625000D02*
X28738000Y20403000D01*
X28738000Y20403000D02*
X31151000Y20403000D01*
X29944500Y5163000D02*
X20229000Y5163000D01*
X34199000Y4401000D02*
X30706500Y4401000D01*
X38771000Y15069000D02*
X38009000Y14307000D01*
D22*
X34808600Y10709664D02*
X34538664Y10979600D01*
X23514799Y9083799D02*
X24470800Y10039800D01*
X34538664Y10979600D02*
X34046600Y10979600D01*
X16940149Y9083799D02*
X23514799Y9083799D01*
X31913000Y6560000D02*
X32294000Y6941000D01*
X24470800Y10039800D02*
X32886169Y10039800D01*
X32656500Y8098870D02*
X34808600Y10250970D01*
X32886169Y10039800D02*
X33369684Y10523315D01*
X16641750Y8785400D02*
X16940149Y9083799D01*
X33791685Y10724685D02*
X33791685Y10523315D01*
X32294000Y7245800D02*
X32656500Y7608300D01*
X34046600Y10979600D02*
X33791685Y10724685D01*
X34808600Y10250970D02*
X34808600Y10709664D01*
X33369684Y10523315D02*
X33791685Y10523315D01*
X32294000Y6941000D02*
X32294000Y7245800D01*
X32656500Y7608300D02*
X32656500Y8098870D01*
X24302464Y10446200D02*
X32717831Y10446200D01*
X32717831Y10446200D02*
X33082315Y10810684D01*
X33235630Y11386000D02*
X33082315Y11232685D01*
X23346465Y9490201D02*
X24302464Y10446200D01*
X16940149Y9490201D02*
X23346465Y9490201D01*
X16641750Y9788600D02*
X16940149Y9490201D01*
X33062900Y6966400D02*
X33062900Y7930530D01*
X33082315Y10810684D02*
X33082315Y11232685D01*
X35215000Y10082630D02*
X35215000Y10878000D01*
X33062900Y7930530D02*
X35215000Y10082630D01*
X35215000Y10878000D02*
X34707000Y11386000D01*
X34707000Y11386000D02*
X33235630Y11386000D01*
X31362170Y11690800D02*
X21524400Y11690800D01*
X36703201Y17031831D02*
X31362170Y11690800D01*
D18*
X37500000Y18380000D02*
X37115000Y17995000D01*
D22*
X20929330Y11095730D02*
X20929330Y10939670D01*
X36703201Y17583201D02*
X36703201Y17031831D01*
X21524400Y11690800D02*
X20929330Y11095730D01*
X37115000Y17995000D02*
X36703201Y17583201D01*
X20848064Y11589200D02*
X20301540Y11589200D01*
X20301540Y11589200D02*
X20290670Y11578330D01*
D18*
X35500000Y18380000D02*
X35870000Y18010000D01*
D22*
X36296799Y17200169D02*
X31193830Y12097200D01*
X21356064Y12097200D02*
X20848064Y11589200D01*
X35870000Y18010000D02*
X36296799Y17583201D01*
X31193830Y12097200D02*
X21356064Y12097200D01*
X36296799Y17583201D02*
X36296799Y17200169D01*
%TA.AperFunction,Conductor*%
G36*
X45560621Y33098498D02*
G01*
X45607114Y33044842D01*
X45618500Y32992500D01*
X45618500Y13179260D01*
X45598498Y13111139D01*
X45544842Y13064646D01*
X45474568Y13054542D01*
X45409988Y13084036D01*
X45371865Y13142885D01*
X45297600Y13389181D01*
X45297596Y13389190D01*
X45285437Y13418000D01*
X45152511Y13732967D01*
X44971707Y14059374D01*
X44757232Y14364713D01*
X44757227Y14364719D01*
X44757222Y14364725D01*
X44511517Y14645527D01*
X44511515Y14645529D01*
X44237344Y14898630D01*
X43937828Y15121152D01*
X43937827Y15121154D01*
X43758157Y15227023D01*
X43616345Y15310585D01*
X43276554Y15464770D01*
X43276551Y15464771D01*
X43018391Y15550175D01*
X42960000Y15590560D01*
X42932712Y15656103D01*
X42945191Y15725994D01*
X42993475Y15778044D01*
X43062234Y15795727D01*
X43066215Y15795529D01*
X43070006Y15795281D01*
X43357769Y15814142D01*
X43357787Y15814145D01*
X43640619Y15870404D01*
X43640632Y15870407D01*
X43913702Y15963102D01*
X43913716Y15963108D01*
X44172357Y16090654D01*
X44412144Y16250876D01*
X44412147Y16250879D01*
X44440607Y16275838D01*
X44440607Y16275840D01*
X43725308Y16991139D01*
X43881898Y17109390D01*
X44031723Y17273740D01*
X44076880Y17346673D01*
X44794160Y16629393D01*
X44794162Y16629393D01*
X44819121Y16657853D01*
X44819124Y16657856D01*
X44979346Y16897643D01*
X45106892Y17156284D01*
X45106898Y17156298D01*
X45199593Y17429368D01*
X45199596Y17429381D01*
X45255855Y17712213D01*
X45255858Y17712231D01*
X45274720Y17999997D01*
X45274720Y18000004D01*
X45255858Y18287770D01*
X45255855Y18287788D01*
X45199596Y18570620D01*
X45199593Y18570633D01*
X45106898Y18843703D01*
X45106892Y18843717D01*
X44979346Y19102358D01*
X44819123Y19342147D01*
X44794161Y19370610D01*
X44076880Y18653329D01*
X44031723Y18726260D01*
X43881898Y18890610D01*
X43725307Y19008862D01*
X44440607Y19724162D01*
X44440607Y19724164D01*
X44412152Y19749119D01*
X44412148Y19749122D01*
X44172357Y19909347D01*
X43913716Y20036893D01*
X43913702Y20036899D01*
X43640632Y20129594D01*
X43640619Y20129597D01*
X43357787Y20185856D01*
X43357769Y20185859D01*
X43070003Y20204720D01*
X43069997Y20204720D01*
X42782230Y20185859D01*
X42782212Y20185856D01*
X42499380Y20129597D01*
X42499367Y20129594D01*
X42226297Y20036899D01*
X42226283Y20036893D01*
X41967642Y19909347D01*
X41727852Y19749123D01*
X41727849Y19749121D01*
X41699391Y19724164D01*
X41699391Y19724162D01*
X42414691Y19008862D01*
X42258102Y18890610D01*
X42108277Y18726260D01*
X42063119Y18653328D01*
X41345838Y19370609D01*
X41345836Y19370609D01*
X41320879Y19342151D01*
X41320877Y19342148D01*
X41160653Y19102358D01*
X41073469Y18925563D01*
X41025401Y18873314D01*
X40956715Y18855347D01*
X40889220Y18877366D01*
X40849341Y18921894D01*
X40847499Y18925340D01*
X40839252Y18940770D01*
X40713725Y19093725D01*
X40560770Y19219252D01*
X40386265Y19312527D01*
X40196916Y19369965D01*
X40196915Y19369966D01*
X40196909Y19369967D01*
X40000003Y19389360D01*
X39999997Y19389360D01*
X39803090Y19369967D01*
X39613734Y19312527D01*
X39439229Y19219252D01*
X39415771Y19200000D01*
X39376290Y19167598D01*
X39358434Y19152944D01*
X39293087Y19125190D01*
X39223108Y19137172D01*
X39170717Y19185084D01*
X39152500Y19250343D01*
X39152500Y19334367D01*
X39155182Y19360227D01*
X39157445Y19371017D01*
X39152983Y19406811D01*
X39152500Y19414601D01*
X39152500Y19418612D01*
X39148596Y19442005D01*
X39141696Y19497361D01*
X39139426Y19504987D01*
X39136818Y19512581D01*
X39136818Y19512586D01*
X39110270Y19561642D01*
X39085776Y19611746D01*
X39085772Y19611750D01*
X39081129Y19618254D01*
X39076216Y19624567D01*
X39035181Y19662341D01*
X38922767Y19774755D01*
X38773177Y19924345D01*
X38756790Y19944526D01*
X38750760Y19953756D01*
X38750759Y19953758D01*
X38722304Y19975904D01*
X38716445Y19981078D01*
X38713613Y19983910D01*
X38713602Y19983920D01*
X38694299Y19997701D01*
X38650286Y20031958D01*
X38643264Y20035758D01*
X38636072Y20039274D01*
X38636070Y20039275D01*
X38636067Y20039276D01*
X38582612Y20055191D01*
X38529864Y20073299D01*
X38529863Y20073300D01*
X38529861Y20073300D01*
X38529858Y20073300D01*
X38521948Y20074621D01*
X38514042Y20075606D01*
X38458316Y20073300D01*
X38304940Y20073300D01*
X38236819Y20093302D01*
X38190326Y20146958D01*
X38180222Y20217232D01*
X38209716Y20281812D01*
X38212630Y20284943D01*
X38213719Y20286271D01*
X38213725Y20286275D01*
X38339252Y20439230D01*
X38432527Y20613735D01*
X38489965Y20803084D01*
X38502280Y20928111D01*
X38509360Y20999998D01*
X38990640Y20999998D01*
X39010033Y20803091D01*
X39010034Y20803085D01*
X39010035Y20803084D01*
X39067473Y20613735D01*
X39160748Y20439230D01*
X39286275Y20286275D01*
X39439230Y20160748D01*
X39613735Y20067473D01*
X39803084Y20010035D01*
X39803088Y20010035D01*
X39803090Y20010034D01*
X39999997Y19990640D01*
X40000000Y19990640D01*
X40000003Y19990640D01*
X40196909Y20010034D01*
X40196910Y20010035D01*
X40196916Y20010035D01*
X40386265Y20067473D01*
X40560770Y20160748D01*
X40713725Y20286275D01*
X40839252Y20439230D01*
X40932527Y20613735D01*
X40989965Y20803084D01*
X41002280Y20928111D01*
X41009360Y20999998D01*
X41009360Y21000003D01*
X40989966Y21196910D01*
X40989965Y21196912D01*
X40989965Y21196916D01*
X40932527Y21386265D01*
X40839252Y21560770D01*
X40713725Y21713725D01*
X40560770Y21839252D01*
X40386265Y21932527D01*
X40196916Y21989965D01*
X40196915Y21989966D01*
X40196909Y21989967D01*
X40000003Y22009360D01*
X39999997Y22009360D01*
X39803090Y21989967D01*
X39613734Y21932527D01*
X39439229Y21839252D01*
X39286275Y21713725D01*
X39160748Y21560771D01*
X39067473Y21386266D01*
X39010033Y21196910D01*
X38990640Y21000003D01*
X38990640Y20999998D01*
X38509360Y20999998D01*
X38509360Y21000003D01*
X38489966Y21196910D01*
X38489965Y21196912D01*
X38489965Y21196916D01*
X38432527Y21386265D01*
X38339252Y21560770D01*
X38213725Y21713725D01*
X38060770Y21839252D01*
X37886266Y21932527D01*
X37710768Y21985763D01*
X37698632Y21989445D01*
X37639252Y22028360D01*
X37610336Y22093201D01*
X37621067Y22163382D01*
X37628000Y22173273D01*
X37628000Y23578000D01*
X37627999Y23578002D01*
X37506004Y23699997D01*
X40865280Y23699997D01*
X40884141Y23412231D01*
X40884144Y23412213D01*
X40940403Y23129381D01*
X40940406Y23129368D01*
X41033101Y22856298D01*
X41033107Y22856284D01*
X41160653Y22597643D01*
X41320878Y22357852D01*
X41320881Y22357848D01*
X41345836Y22329393D01*
X41345838Y22329393D01*
X42063118Y23046674D01*
X42108277Y22973740D01*
X42258102Y22809390D01*
X42414690Y22691140D01*
X41699390Y21975839D01*
X41727853Y21950877D01*
X41967642Y21790654D01*
X42226283Y21663108D01*
X42226297Y21663102D01*
X42499367Y21570407D01*
X42499380Y21570404D01*
X42782212Y21514145D01*
X42782230Y21514142D01*
X43069997Y21495280D01*
X43070003Y21495280D01*
X43357769Y21514142D01*
X43357787Y21514145D01*
X43640619Y21570404D01*
X43640632Y21570407D01*
X43913702Y21663102D01*
X43913716Y21663108D01*
X44172357Y21790654D01*
X44412144Y21950876D01*
X44412147Y21950879D01*
X44440607Y21975838D01*
X44440607Y21975840D01*
X43725308Y22691139D01*
X43881898Y22809390D01*
X44031723Y22973740D01*
X44076880Y23046673D01*
X44794160Y22329393D01*
X44794162Y22329393D01*
X44819121Y22357853D01*
X44819124Y22357856D01*
X44979346Y22597643D01*
X45106892Y22856284D01*
X45106898Y22856298D01*
X45199593Y23129368D01*
X45199596Y23129381D01*
X45255855Y23412213D01*
X45255858Y23412231D01*
X45274720Y23699997D01*
X45274720Y23700004D01*
X45255858Y23987770D01*
X45255855Y23987788D01*
X45199596Y24270620D01*
X45199593Y24270633D01*
X45106898Y24543703D01*
X45106892Y24543717D01*
X44979346Y24802358D01*
X44819123Y25042147D01*
X44794161Y25070610D01*
X44076880Y24353329D01*
X44031723Y24426260D01*
X43881898Y24590610D01*
X43725307Y24708862D01*
X44440607Y25424162D01*
X44440607Y25424164D01*
X44412152Y25449119D01*
X44412148Y25449122D01*
X44172357Y25609347D01*
X43913716Y25736893D01*
X43913702Y25736899D01*
X43640632Y25829594D01*
X43640619Y25829597D01*
X43357787Y25885856D01*
X43357769Y25885859D01*
X43070003Y25904720D01*
X43069997Y25904720D01*
X42782230Y25885859D01*
X42782212Y25885856D01*
X42499380Y25829597D01*
X42499367Y25829594D01*
X42226297Y25736899D01*
X42226283Y25736893D01*
X41967642Y25609347D01*
X41727852Y25449123D01*
X41727849Y25449121D01*
X41699391Y25424164D01*
X41699391Y25424162D01*
X42414691Y24708862D01*
X42258102Y24590610D01*
X42108277Y24426260D01*
X42063119Y24353328D01*
X41345838Y25070609D01*
X41345836Y25070609D01*
X41320879Y25042151D01*
X41320877Y25042148D01*
X41160653Y24802358D01*
X41033107Y24543717D01*
X41033101Y24543703D01*
X40940406Y24270633D01*
X40940403Y24270620D01*
X40884144Y23987788D01*
X40884141Y23987770D01*
X40865280Y23700004D01*
X40865280Y23699997D01*
X37506004Y23699997D01*
X32802001Y28404000D01*
X32802000Y28404000D01*
X22261000Y28404000D01*
X22260998Y28404000D01*
X20000595Y26143596D01*
X19938283Y26109570D01*
X19867468Y26114635D01*
X19822405Y26143596D01*
X17689001Y28277000D01*
X17689000Y28277000D01*
X13244000Y28277000D01*
X13243998Y28277000D01*
X8291000Y23324002D01*
X8291000Y22180999D01*
X8291737Y22180262D01*
X8325763Y22117950D01*
X8320698Y22047135D01*
X8278151Y21990299D01*
X8239218Y21970593D01*
X8113740Y21932530D01*
X8113735Y21932528D01*
X7939229Y21839252D01*
X7786275Y21713725D01*
X7660748Y21560771D01*
X7567473Y21386266D01*
X7510033Y21196910D01*
X7498545Y21080271D01*
X7471962Y21014439D01*
X7453050Y21001058D01*
X7463649Y20995050D01*
X7496682Y20932206D01*
X7498545Y20919730D01*
X7510033Y20803091D01*
X7510034Y20803085D01*
X7510035Y20803084D01*
X7567473Y20613735D01*
X7660748Y20439230D01*
X7786275Y20286275D01*
X7939230Y20160748D01*
X8113735Y20067473D01*
X8303084Y20010035D01*
X8303088Y20010035D01*
X8303090Y20010034D01*
X8499997Y19990640D01*
X8500000Y19990640D01*
X8500003Y19990640D01*
X8696909Y20010034D01*
X8696910Y20010035D01*
X8696916Y20010035D01*
X8886265Y20067473D01*
X9060770Y20160748D01*
X9213725Y20286275D01*
X9339252Y20439230D01*
X9388878Y20532075D01*
X9438630Y20582722D01*
X9507867Y20598432D01*
X9574606Y20574216D01*
X9611121Y20532075D01*
X9660748Y20439230D01*
X9786275Y20286275D01*
X9939230Y20160748D01*
X10113735Y20067473D01*
X10303084Y20010035D01*
X10303088Y20010035D01*
X10303090Y20010034D01*
X10499997Y19990640D01*
X10500000Y19990640D01*
X10500003Y19990640D01*
X10696909Y20010034D01*
X10696910Y20010035D01*
X10696916Y20010035D01*
X10886265Y20067473D01*
X11060770Y20160748D01*
X11213725Y20286275D01*
X11339252Y20439230D01*
X11432527Y20613735D01*
X11489965Y20803084D01*
X11502280Y20928111D01*
X11509360Y20999998D01*
X11990640Y20999998D01*
X12010033Y20803091D01*
X12010034Y20803085D01*
X12010035Y20803084D01*
X12067473Y20613735D01*
X12160748Y20439230D01*
X12286275Y20286275D01*
X12439230Y20160748D01*
X12613735Y20067473D01*
X12803084Y20010035D01*
X12803088Y20010035D01*
X12803090Y20010034D01*
X12999997Y19990640D01*
X13000000Y19990640D01*
X13000003Y19990640D01*
X13196909Y20010034D01*
X13196910Y20010035D01*
X13196916Y20010035D01*
X13386265Y20067473D01*
X13560770Y20160748D01*
X13713725Y20286275D01*
X13839252Y20439230D01*
X13932527Y20613735D01*
X13989965Y20803084D01*
X14002280Y20928111D01*
X14009360Y20999998D01*
X14009360Y21000003D01*
X13989966Y21196910D01*
X13989965Y21196912D01*
X13989965Y21196916D01*
X13932527Y21386265D01*
X13839252Y21560770D01*
X13713725Y21713725D01*
X13560770Y21839252D01*
X13386265Y21932527D01*
X13196916Y21989965D01*
X13196915Y21989966D01*
X13196909Y21989967D01*
X13000003Y22009360D01*
X12999997Y22009360D01*
X12803090Y21989967D01*
X12613734Y21932527D01*
X12439229Y21839252D01*
X12286275Y21713725D01*
X12160748Y21560771D01*
X12067473Y21386266D01*
X12010033Y21196910D01*
X11990640Y21000003D01*
X11990640Y20999998D01*
X11509360Y20999998D01*
X11509360Y21000003D01*
X11489966Y21196910D01*
X11489965Y21196912D01*
X11489965Y21196916D01*
X11432527Y21386265D01*
X11339252Y21560770D01*
X11213725Y21713725D01*
X11060770Y21839252D01*
X10886265Y21932527D01*
X10696916Y21989965D01*
X10696915Y21989966D01*
X10696909Y21989967D01*
X10500003Y22009360D01*
X10500001Y22009360D01*
X10500000Y22009360D01*
X10488658Y22008243D01*
X10463717Y22005787D01*
X10393964Y22019018D01*
X10342437Y22067859D01*
X10325496Y22136805D01*
X10348518Y22203965D01*
X10362264Y22220265D01*
X10577000Y22435000D01*
X14096095Y25954095D01*
X14158407Y25988121D01*
X14185190Y25991000D01*
X15211687Y25991000D01*
X15279808Y25970998D01*
X15326301Y25917342D01*
X15336405Y25847068D01*
X15306911Y25782488D01*
X15252188Y25745687D01*
X15226297Y25736899D01*
X15226283Y25736893D01*
X14967642Y25609347D01*
X14727852Y25449123D01*
X14727849Y25449121D01*
X14699391Y25424164D01*
X14699391Y25424162D01*
X15414691Y24708862D01*
X15258102Y24590610D01*
X15108277Y24426260D01*
X15063119Y24353328D01*
X14345838Y25070609D01*
X14345836Y25070609D01*
X14320879Y25042151D01*
X14320877Y25042148D01*
X14160653Y24802358D01*
X14033107Y24543717D01*
X14033101Y24543703D01*
X13940406Y24270633D01*
X13940403Y24270620D01*
X13884144Y23987788D01*
X13884141Y23987770D01*
X13865280Y23700004D01*
X13865280Y23699997D01*
X13884141Y23412231D01*
X13884144Y23412213D01*
X13940403Y23129381D01*
X13940406Y23129368D01*
X14033101Y22856298D01*
X14033107Y22856284D01*
X14160653Y22597643D01*
X14320878Y22357852D01*
X14320881Y22357848D01*
X14345836Y22329393D01*
X14345838Y22329393D01*
X15063118Y23046674D01*
X15108277Y22973740D01*
X15258102Y22809390D01*
X15414690Y22691140D01*
X14699390Y21975839D01*
X14727853Y21950877D01*
X14967642Y21790654D01*
X15226283Y21663108D01*
X15226297Y21663102D01*
X15499367Y21570407D01*
X15499380Y21570404D01*
X15782212Y21514145D01*
X15782230Y21514142D01*
X16069997Y21495280D01*
X16070003Y21495280D01*
X16357769Y21514142D01*
X16357787Y21514145D01*
X16640619Y21570404D01*
X16640632Y21570407D01*
X16913702Y21663102D01*
X16913716Y21663108D01*
X17172357Y21790654D01*
X17412144Y21950876D01*
X17412147Y21950879D01*
X17440607Y21975838D01*
X17440607Y21975840D01*
X16725308Y22691139D01*
X16881898Y22809390D01*
X17031723Y22973740D01*
X17076880Y23046673D01*
X17794160Y22329393D01*
X17812879Y22330005D01*
X17881617Y22312241D01*
X17929840Y22260135D01*
X17943000Y22204072D01*
X17943000Y19495930D01*
X17922998Y19427809D01*
X17869342Y19381316D01*
X17812879Y19369997D01*
X17794161Y19370610D01*
X17076880Y18653329D01*
X17031723Y18726260D01*
X16881898Y18890610D01*
X16725307Y19008862D01*
X17440607Y19724162D01*
X17440607Y19724164D01*
X17412152Y19749119D01*
X17412148Y19749122D01*
X17172357Y19909347D01*
X16913716Y20036893D01*
X16913702Y20036899D01*
X16640632Y20129594D01*
X16640619Y20129597D01*
X16357787Y20185856D01*
X16357769Y20185859D01*
X16070003Y20204720D01*
X16069997Y20204720D01*
X15782230Y20185859D01*
X15782212Y20185856D01*
X15499380Y20129597D01*
X15499367Y20129594D01*
X15226297Y20036899D01*
X15226283Y20036893D01*
X14967642Y19909347D01*
X14727852Y19749123D01*
X14727849Y19749121D01*
X14699391Y19724164D01*
X14699391Y19724162D01*
X15414691Y19008862D01*
X15258102Y18890610D01*
X15108277Y18726260D01*
X15063119Y18653328D01*
X14345838Y19370609D01*
X14345836Y19370609D01*
X14320879Y19342151D01*
X14320877Y19342148D01*
X14160653Y19102358D01*
X14073469Y18925563D01*
X14025401Y18873314D01*
X13956715Y18855347D01*
X13889220Y18877366D01*
X13849341Y18921894D01*
X13847499Y18925340D01*
X13839252Y18940770D01*
X13713725Y19093725D01*
X13560770Y19219252D01*
X13386265Y19312527D01*
X13196916Y19369965D01*
X13196915Y19369966D01*
X13196909Y19369967D01*
X13000003Y19389360D01*
X12999997Y19389360D01*
X12803090Y19369967D01*
X12613734Y19312527D01*
X12439229Y19219252D01*
X12286275Y19093725D01*
X12160748Y18940771D01*
X12067473Y18766266D01*
X12010033Y18576910D01*
X11990640Y18380003D01*
X11990640Y18379998D01*
X12010033Y18183091D01*
X12010034Y18183085D01*
X12010035Y18183084D01*
X12067473Y17993735D01*
X12160748Y17819230D01*
X12286275Y17666275D01*
X12439230Y17540748D01*
X12613735Y17447473D01*
X12803084Y17390035D01*
X12803088Y17390035D01*
X12803090Y17390034D01*
X12999997Y17370640D01*
X13000000Y17370640D01*
X13000003Y17370640D01*
X13196909Y17390034D01*
X13196910Y17390035D01*
X13196916Y17390035D01*
X13386265Y17447473D01*
X13560770Y17540748D01*
X13705586Y17659596D01*
X13770929Y17687348D01*
X13840907Y17675367D01*
X13893299Y17627454D01*
X13909095Y17586777D01*
X13940404Y17429378D01*
X13940406Y17429368D01*
X14033101Y17156298D01*
X14033107Y17156284D01*
X14160653Y16897643D01*
X14320878Y16657852D01*
X14320881Y16657848D01*
X14345836Y16629393D01*
X14345838Y16629393D01*
X15063118Y17346674D01*
X15108277Y17273740D01*
X15258102Y17109390D01*
X15414690Y16991139D01*
X14699390Y16275839D01*
X14727853Y16250877D01*
X14967642Y16090654D01*
X15226283Y15963108D01*
X15226297Y15963102D01*
X15499367Y15870407D01*
X15499380Y15870404D01*
X15782212Y15814145D01*
X15782229Y15814142D01*
X15967329Y15802010D01*
X16033995Y15777596D01*
X16076880Y15721014D01*
X16082366Y15650230D01*
X16048712Y15587716D01*
X16048183Y15587185D01*
X12863000Y12402002D01*
X12863000Y7702000D01*
X12842998Y7633879D01*
X12789342Y7587386D01*
X12737000Y7576000D01*
X12153190Y7576000D01*
X12085069Y7596002D01*
X12064099Y7612901D01*
X11720000Y7957000D01*
X11137190Y7957000D01*
X11069069Y7977002D01*
X11048095Y7993905D01*
X10613905Y8428095D01*
X10579879Y8490407D01*
X10577000Y8517190D01*
X10577000Y17264025D01*
X10597002Y17332146D01*
X10650658Y17378639D01*
X10690656Y17389419D01*
X10696916Y17390035D01*
X10886265Y17447473D01*
X11060770Y17540748D01*
X11213725Y17666275D01*
X11339252Y17819230D01*
X11432527Y17993735D01*
X11489965Y18183084D01*
X11490430Y18187799D01*
X11509360Y18379998D01*
X11509360Y18380003D01*
X11489966Y18576910D01*
X11489965Y18576912D01*
X11489965Y18576916D01*
X11432527Y18766265D01*
X11339252Y18940770D01*
X11213725Y19093725D01*
X11060770Y19219252D01*
X10886265Y19312527D01*
X10696916Y19369965D01*
X10696915Y19369966D01*
X10696909Y19369967D01*
X10500003Y19389360D01*
X10499997Y19389360D01*
X10303090Y19369967D01*
X10113734Y19312527D01*
X9939229Y19219252D01*
X9786275Y19093725D01*
X9660748Y18940771D01*
X9611122Y18847927D01*
X9561370Y18797279D01*
X9492133Y18781569D01*
X9425394Y18805785D01*
X9388878Y18847927D01*
X9349341Y18921894D01*
X9339252Y18940770D01*
X9213725Y19093725D01*
X9060770Y19219252D01*
X8886265Y19312527D01*
X8696916Y19369965D01*
X8696915Y19369966D01*
X8696909Y19369967D01*
X8500003Y19389360D01*
X8499997Y19389360D01*
X8303090Y19369967D01*
X8113734Y19312527D01*
X7939229Y19219252D01*
X7786275Y19093725D01*
X7660748Y18940771D01*
X7567473Y18766266D01*
X7510033Y18576910D01*
X7498545Y18460271D01*
X7471962Y18394439D01*
X7453050Y18381058D01*
X7463649Y18375050D01*
X7496682Y18312206D01*
X7498545Y18299730D01*
X7510033Y18183091D01*
X7510034Y18183085D01*
X7510035Y18183084D01*
X7567473Y17993735D01*
X7660748Y17819230D01*
X7786275Y17666275D01*
X7939230Y17540748D01*
X8113735Y17447473D01*
X8303084Y17390035D01*
X8303089Y17390035D01*
X8303091Y17390034D01*
X8367911Y17383650D01*
X8431349Y17377402D01*
X8497182Y17350820D01*
X8538192Y17292866D01*
X8545000Y17252009D01*
X8545000Y7067999D01*
X11084998Y4528001D01*
X11085000Y4528000D01*
X12318818Y4528000D01*
X12386939Y4507998D01*
X12433432Y4454342D01*
X12443536Y4384068D01*
X12415614Y4321337D01*
X11847000Y3639001D01*
X11847000Y2749999D01*
X12735998Y1861001D01*
X12736000Y1861000D01*
X15784000Y1861000D01*
X16800000Y2877000D01*
X16800000Y6560000D01*
X16799999Y6560002D01*
X15185905Y8174096D01*
X15151879Y8236408D01*
X15149000Y8263191D01*
X15149000Y11587810D01*
X15169002Y11655931D01*
X15185905Y11676905D01*
X16203905Y12694905D01*
X16266217Y12728931D01*
X16337032Y12723866D01*
X16393868Y12681319D01*
X16418679Y12614799D01*
X16419000Y12605810D01*
X16419000Y11766999D01*
X16926998Y11259001D01*
X16927000Y11259000D01*
X18324000Y11259000D01*
X22007000Y14942000D01*
X22007000Y24795810D01*
X22027002Y24863931D01*
X22043905Y24884905D01*
X23240095Y26081095D01*
X23302407Y26115121D01*
X23329190Y26118000D01*
X29529982Y26118000D01*
X29598103Y26097998D01*
X29644596Y26044342D01*
X29654700Y25974068D01*
X29625206Y25909488D01*
X29565480Y25871104D01*
X29554563Y25868421D01*
X29359380Y25829597D01*
X29359367Y25829594D01*
X29086297Y25736899D01*
X29086283Y25736893D01*
X28827642Y25609347D01*
X28587852Y25449123D01*
X28587849Y25449121D01*
X28559391Y25424164D01*
X28559391Y25424162D01*
X29274691Y24708862D01*
X29118102Y24590610D01*
X28968277Y24426260D01*
X28923119Y24353328D01*
X28205838Y25070609D01*
X28205836Y25070609D01*
X28180879Y25042151D01*
X28180877Y25042148D01*
X28020653Y24802358D01*
X27893107Y24543717D01*
X27893101Y24543703D01*
X27800406Y24270633D01*
X27800403Y24270620D01*
X27744144Y23987788D01*
X27744141Y23987770D01*
X27725280Y23700004D01*
X27725280Y23699997D01*
X27744141Y23412231D01*
X27744144Y23412213D01*
X27800403Y23129381D01*
X27800406Y23129368D01*
X27893101Y22856298D01*
X27893107Y22856284D01*
X28020653Y22597643D01*
X28180878Y22357852D01*
X28180881Y22357848D01*
X28205836Y22329393D01*
X28205838Y22329393D01*
X28923118Y23046674D01*
X28968277Y22973740D01*
X29118102Y22809390D01*
X29274690Y22691140D01*
X28559390Y21975839D01*
X28587853Y21950877D01*
X28827642Y21790654D01*
X29086283Y21663108D01*
X29086297Y21663102D01*
X29359367Y21570407D01*
X29359380Y21570404D01*
X29642212Y21514145D01*
X29642230Y21514142D01*
X29929997Y21495280D01*
X29930003Y21495280D01*
X30217769Y21514142D01*
X30217787Y21514145D01*
X30500619Y21570404D01*
X30500632Y21570407D01*
X30773702Y21663102D01*
X30773716Y21663108D01*
X31032357Y21790654D01*
X31272144Y21950876D01*
X31272147Y21950879D01*
X31300607Y21975838D01*
X31300607Y21975840D01*
X30585308Y22691139D01*
X30741898Y22809390D01*
X30891723Y22973740D01*
X30936880Y23046673D01*
X31654160Y22329393D01*
X31654162Y22329393D01*
X31679121Y22357853D01*
X31679124Y22357856D01*
X31839346Y22597643D01*
X31966892Y22856284D01*
X31966898Y22856298D01*
X32059593Y23129368D01*
X32059596Y23129381D01*
X32115855Y23412213D01*
X32115858Y23412231D01*
X32134720Y23699997D01*
X32134720Y23700004D01*
X32115858Y23987770D01*
X32115855Y23987788D01*
X32059596Y24270620D01*
X32059593Y24270633D01*
X31966898Y24543703D01*
X31966892Y24543717D01*
X31839346Y24802358D01*
X31679123Y25042147D01*
X31654161Y25070610D01*
X30936880Y24353329D01*
X30891723Y24426260D01*
X30741898Y24590610D01*
X30585307Y24708862D01*
X31300607Y25424162D01*
X31300607Y25424164D01*
X31272152Y25449119D01*
X31272148Y25449122D01*
X31032357Y25609347D01*
X30773716Y25736893D01*
X30773702Y25736899D01*
X30500632Y25829594D01*
X30500619Y25829597D01*
X30305437Y25868421D01*
X30242527Y25901329D01*
X30207395Y25963024D01*
X30211195Y26033918D01*
X30252721Y26091504D01*
X30318788Y26117499D01*
X30330018Y26118000D01*
X31860810Y26118000D01*
X31928931Y26097998D01*
X31949905Y26081095D01*
X35432095Y22598905D01*
X35466121Y22536593D01*
X35469000Y22509810D01*
X35469000Y22156603D01*
X35473679Y22148034D01*
X35468614Y22077219D01*
X35426067Y22020383D01*
X35362908Y21995858D01*
X35303090Y21989967D01*
X35113734Y21932527D01*
X34939229Y21839252D01*
X34786275Y21713725D01*
X34660748Y21560771D01*
X34567473Y21386266D01*
X34510033Y21196910D01*
X34498545Y21080271D01*
X34471962Y21014439D01*
X34453050Y21001058D01*
X34463649Y20995050D01*
X34496682Y20932206D01*
X34498545Y20919730D01*
X34510033Y20803091D01*
X34510034Y20803085D01*
X34510035Y20803084D01*
X34567473Y20613735D01*
X34660748Y20439230D01*
X34786275Y20286275D01*
X34786277Y20286273D01*
X34790202Y20281491D01*
X34788629Y20280201D01*
X34818181Y20226083D01*
X34813116Y20155268D01*
X34770569Y20098432D01*
X34704049Y20073621D01*
X34695060Y20073300D01*
X34119130Y20073300D01*
X34051009Y20093302D01*
X34004516Y20146958D01*
X33994412Y20217232D01*
X34015917Y20271570D01*
X34086666Y20372612D01*
X34086667Y20372614D01*
X34179101Y20570839D01*
X34179103Y20570845D01*
X34235711Y20782108D01*
X34247631Y20918360D01*
X34273494Y20984478D01*
X34293592Y20999033D01*
X34281703Y21005944D01*
X34249358Y21069145D01*
X34247631Y21081641D01*
X34235711Y21217893D01*
X34179103Y21429156D01*
X34179101Y21429161D01*
X34086667Y21627387D01*
X34043124Y21689572D01*
X34043122Y21689572D01*
X33483076Y21129526D01*
X33459493Y21209844D01*
X33381761Y21330798D01*
X33273100Y21424952D01*
X33142315Y21484680D01*
X33132532Y21486087D01*
X33689571Y22043126D01*
X33627389Y22086666D01*
X33429160Y22179102D01*
X33429155Y22179104D01*
X33217892Y22235712D01*
X33000000Y22254775D01*
X32782107Y22235712D01*
X32570844Y22179104D01*
X32570839Y22179102D01*
X32372609Y22086666D01*
X32310428Y22043127D01*
X32310428Y22043126D01*
X32867467Y21486087D01*
X32857685Y21484680D01*
X32726900Y21424952D01*
X32618239Y21330798D01*
X32540507Y21209844D01*
X32516923Y21129524D01*
X31956875Y21689572D01*
X31956873Y21689572D01*
X31913334Y21627391D01*
X31820898Y21429161D01*
X31820896Y21429156D01*
X31764288Y21217893D01*
X31745225Y21000000D01*
X31764288Y20782108D01*
X31808345Y20617686D01*
X31806655Y20546709D01*
X31766861Y20487914D01*
X31701596Y20459966D01*
X31631583Y20471740D01*
X31597543Y20495980D01*
X31457980Y20635543D01*
X31441591Y20655724D01*
X31435560Y20664956D01*
X31407103Y20687105D01*
X31401245Y20692278D01*
X31398413Y20695110D01*
X31398402Y20695120D01*
X31379099Y20708901D01*
X31335086Y20743158D01*
X31328064Y20746958D01*
X31320872Y20750474D01*
X31320870Y20750475D01*
X31320867Y20750476D01*
X31267412Y20766391D01*
X31214664Y20784499D01*
X31214663Y20784500D01*
X31214661Y20784500D01*
X31214658Y20784500D01*
X31206748Y20785821D01*
X31198842Y20786806D01*
X31143116Y20784500D01*
X28790635Y20784500D01*
X28764776Y20787182D01*
X28753982Y20789446D01*
X28731788Y20786679D01*
X28718189Y20784984D01*
X28710401Y20784500D01*
X28706389Y20784500D01*
X28688842Y20781572D01*
X28682992Y20780596D01*
X28627642Y20773697D01*
X28619974Y20771414D01*
X28612414Y20768819D01*
X28563369Y20742278D01*
X28513255Y20717778D01*
X28506760Y20713141D01*
X28500436Y20708219D01*
X28464518Y20669202D01*
X28462669Y20667193D01*
X26838880Y19043404D01*
X26776570Y19009380D01*
X26749787Y19006500D01*
X25145076Y19006500D01*
X25076955Y19026502D01*
X25045764Y19056681D01*
X25045554Y19056494D01*
X25043138Y19059221D01*
X25041384Y19060918D01*
X25040499Y19062199D01*
X25040498Y19062201D01*
X24921529Y19167599D01*
X24921528Y19167600D01*
X24921525Y19167602D01*
X24780797Y19241461D01*
X24780795Y19241462D01*
X24780793Y19241463D01*
X24780791Y19241464D01*
X24780790Y19241464D01*
X24626472Y19279500D01*
X24626471Y19279500D01*
X24467529Y19279500D01*
X24467527Y19279500D01*
X24313209Y19241464D01*
X24313202Y19241461D01*
X24172474Y19167602D01*
X24172469Y19167598D01*
X24089085Y19093725D01*
X24060239Y19068169D01*
X24053501Y19062200D01*
X23963215Y18931399D01*
X23963212Y18931393D01*
X23906849Y18782780D01*
X23887693Y18625004D01*
X23887693Y18624997D01*
X23906849Y18467221D01*
X23947203Y18360820D01*
X23963213Y18318605D01*
X24053502Y18187799D01*
X24172471Y18082401D01*
X24172472Y18082401D01*
X24172474Y18082399D01*
X24235726Y18049202D01*
X24313207Y18008537D01*
X24467529Y17970500D01*
X24467530Y17970500D01*
X24626470Y17970500D01*
X24626471Y17970500D01*
X24780793Y18008537D01*
X24921529Y18082401D01*
X25040498Y18187799D01*
X25041384Y18189082D01*
X25042271Y18189802D01*
X25045554Y18193506D01*
X25046170Y18192961D01*
X25096545Y18233779D01*
X25145076Y18243500D01*
X26907366Y18243500D01*
X26933224Y18240819D01*
X26944017Y18238555D01*
X26979809Y18243017D01*
X26987600Y18243500D01*
X26991611Y18243500D01*
X27015005Y18247404D01*
X27027094Y18248911D01*
X27070360Y18254304D01*
X27070362Y18254306D01*
X27078011Y18256583D01*
X27085584Y18259182D01*
X27085586Y18259182D01*
X27134641Y18285730D01*
X27184746Y18310224D01*
X27184750Y18310229D01*
X27191266Y18314880D01*
X27197562Y18319780D01*
X27235341Y18360820D01*
X27326410Y18451889D01*
X27600866Y18726345D01*
X27663173Y18760367D01*
X27733989Y18755303D01*
X27790825Y18712756D01*
X27815636Y18646236D01*
X27809272Y18596750D01*
X27800404Y18570626D01*
X27800403Y18570620D01*
X27744144Y18287788D01*
X27744141Y18287770D01*
X27725280Y18000004D01*
X27725280Y17999997D01*
X27744141Y17712231D01*
X27744144Y17712213D01*
X27800403Y17429381D01*
X27800406Y17429368D01*
X27893101Y17156298D01*
X27893107Y17156284D01*
X28020653Y16897643D01*
X28180878Y16657852D01*
X28180881Y16657848D01*
X28205836Y16629393D01*
X28205838Y16629393D01*
X28923118Y17346673D01*
X28968277Y17273740D01*
X29118102Y17109390D01*
X29274690Y16991140D01*
X28559390Y16275839D01*
X28587853Y16250877D01*
X28827642Y16090654D01*
X29086283Y15963108D01*
X29086297Y15963102D01*
X29359367Y15870407D01*
X29359380Y15870404D01*
X29642212Y15814145D01*
X29642230Y15814142D01*
X29929997Y15795280D01*
X29930003Y15795280D01*
X30217769Y15814142D01*
X30217787Y15814145D01*
X30500619Y15870404D01*
X30500632Y15870407D01*
X30773702Y15963102D01*
X30773716Y15963108D01*
X31032357Y16090654D01*
X31272144Y16250876D01*
X31272147Y16250879D01*
X31300607Y16275838D01*
X31300607Y16275840D01*
X30585308Y16991139D01*
X30741898Y17109390D01*
X30891723Y17273740D01*
X30936880Y17346673D01*
X31654160Y16629393D01*
X31654162Y16629393D01*
X31679121Y16657853D01*
X31679124Y16657856D01*
X31839346Y16897643D01*
X31966892Y17156284D01*
X31966898Y17156298D01*
X32028404Y17337490D01*
X32069241Y17395566D01*
X32134993Y17422345D01*
X32204786Y17409324D01*
X32219987Y17400202D01*
X32372611Y17293334D01*
X32372613Y17293333D01*
X32570838Y17200899D01*
X32570844Y17200897D01*
X32782107Y17144289D01*
X33000000Y17125226D01*
X33217892Y17144289D01*
X33429155Y17200897D01*
X33429161Y17200899D01*
X33627384Y17293332D01*
X33689571Y17336876D01*
X33689571Y17336877D01*
X33132534Y17893914D01*
X33142315Y17895320D01*
X33273100Y17955048D01*
X33381761Y18049202D01*
X33459493Y18170156D01*
X33483076Y18250476D01*
X34043123Y17690429D01*
X34043124Y17690429D01*
X34086668Y17752616D01*
X34179101Y17950839D01*
X34179103Y17950845D01*
X34235711Y18162108D01*
X34247631Y18298360D01*
X34273494Y18364478D01*
X34293592Y18379033D01*
X34281703Y18385944D01*
X34249358Y18449145D01*
X34247631Y18461641D01*
X34235711Y18597893D01*
X34179103Y18809156D01*
X34179101Y18809161D01*
X34086666Y19007388D01*
X34013396Y19112029D01*
X33990708Y19179303D01*
X34007993Y19248164D01*
X34059763Y19296748D01*
X34116609Y19310300D01*
X34698660Y19310300D01*
X34766781Y19290298D01*
X34813274Y19236642D01*
X34823378Y19166368D01*
X34793884Y19101788D01*
X34787755Y19095205D01*
X34786279Y19093730D01*
X34660748Y18940771D01*
X34567473Y18766266D01*
X34510033Y18576910D01*
X34498545Y18460271D01*
X34471962Y18394439D01*
X34453050Y18381058D01*
X34463649Y18375050D01*
X34496682Y18312206D01*
X34498545Y18299730D01*
X34510033Y18183091D01*
X34510034Y18183085D01*
X34510035Y18183084D01*
X34567473Y17993735D01*
X34660748Y17819230D01*
X34786275Y17666275D01*
X34939230Y17540748D01*
X35090159Y17460075D01*
X35140806Y17410324D01*
X35156516Y17341088D01*
X35132300Y17274349D01*
X35119857Y17259859D01*
X30933905Y13073905D01*
X30871593Y13039880D01*
X30844810Y13037000D01*
X20482998Y13037000D01*
X19086000Y11640002D01*
X19086000Y10623000D01*
X19065998Y10554879D01*
X19012342Y10508386D01*
X18960000Y10497000D01*
X17741190Y10497000D01*
X17673069Y10517002D01*
X17652099Y10533901D01*
X17308000Y10878000D01*
X16165000Y10878000D01*
X16164998Y10878000D01*
X15657000Y10370002D01*
X15657000Y8210999D01*
X16164998Y7703001D01*
X16165000Y7703000D01*
X17307999Y7703000D01*
X17308000Y7703000D01*
X17652096Y8047097D01*
X17714407Y8081120D01*
X17741190Y8084000D01*
X24420000Y8084000D01*
X25399095Y9063095D01*
X25461407Y9097120D01*
X25488190Y9100000D01*
X27733744Y9100000D01*
X27801865Y9079998D01*
X27848358Y9026342D01*
X27858462Y8956068D01*
X27828968Y8891488D01*
X27786086Y8859386D01*
X27627497Y8786962D01*
X27456376Y8665107D01*
X27311406Y8513066D01*
X27197830Y8336339D01*
X27119756Y8141319D01*
X27119756Y8141317D01*
X27080001Y7935044D01*
X27080000Y7935033D01*
X27080000Y7580000D01*
X27780000Y7580000D01*
X27780000Y7080000D01*
X27080000Y7080000D01*
X27080000Y6777577D01*
X27094963Y6620888D01*
X27094966Y6620873D01*
X27154149Y6419314D01*
X27154153Y6419304D01*
X27250408Y6232594D01*
X27250414Y6232585D01*
X27380265Y6067467D01*
X27380276Y6067455D01*
X27539036Y5929890D01*
X27539036Y5929889D01*
X27720964Y5824854D01*
X27720966Y5824853D01*
X27822908Y5789570D01*
X27880740Y5748388D01*
X27907126Y5682477D01*
X27893690Y5612763D01*
X27844697Y5561381D01*
X27781697Y5544500D01*
X20827076Y5544500D01*
X20758955Y5564502D01*
X20727764Y5594681D01*
X20727554Y5594494D01*
X20725138Y5597221D01*
X20723384Y5598918D01*
X20722499Y5600199D01*
X20722498Y5600201D01*
X20603529Y5705599D01*
X20603528Y5705600D01*
X20603525Y5705602D01*
X20462797Y5779461D01*
X20462795Y5779462D01*
X20462793Y5779463D01*
X20462791Y5779464D01*
X20462790Y5779464D01*
X20308472Y5817500D01*
X20308471Y5817500D01*
X20149529Y5817500D01*
X20149527Y5817500D01*
X19995209Y5779464D01*
X19995202Y5779461D01*
X19854474Y5705602D01*
X19854469Y5705598D01*
X19735501Y5600200D01*
X19645215Y5469399D01*
X19645212Y5469393D01*
X19588849Y5320780D01*
X19569693Y5163004D01*
X19569693Y5162997D01*
X19588849Y5005221D01*
X19629203Y4898820D01*
X19645213Y4856605D01*
X19735502Y4725799D01*
X19854471Y4620401D01*
X19854472Y4620401D01*
X19854474Y4620399D01*
X19929033Y4581268D01*
X19995207Y4546537D01*
X20149529Y4508500D01*
X20149530Y4508500D01*
X20308470Y4508500D01*
X20308471Y4508500D01*
X20462793Y4546537D01*
X20603529Y4620401D01*
X20722498Y4725799D01*
X20723384Y4727082D01*
X20724271Y4727802D01*
X20727554Y4731506D01*
X20728170Y4730961D01*
X20778545Y4771779D01*
X20827076Y4781500D01*
X27630429Y4781500D01*
X27698550Y4761498D01*
X27745043Y4707842D01*
X27755147Y4637568D01*
X27725653Y4572988D01*
X27675945Y4538008D01*
X27665205Y4533848D01*
X27665204Y4533848D01*
X27484001Y4421653D01*
X27326500Y4278071D01*
X27198060Y4107990D01*
X27103063Y3917208D01*
X27103061Y3917203D01*
X27044738Y3712219D01*
X27030000Y3553164D01*
X27030000Y3400000D01*
X27780000Y3400000D01*
X27780000Y2900000D01*
X27030000Y2900000D01*
X27030000Y2746837D01*
X27044738Y2587782D01*
X27103061Y2382798D01*
X27103063Y2382793D01*
X27198060Y2192011D01*
X27326500Y2021930D01*
X27484001Y1878348D01*
X27665204Y1766153D01*
X27665211Y1766150D01*
X27863939Y1689162D01*
X27929999Y1676814D01*
X27930000Y1676814D01*
X27930000Y2534314D01*
X27941955Y2522359D01*
X28054852Y2464835D01*
X28180000Y2445014D01*
X28305148Y2464835D01*
X28418045Y2522359D01*
X28430000Y2534314D01*
X28430000Y1676814D01*
X28496060Y1689162D01*
X28496061Y1689162D01*
X28694788Y1766150D01*
X28694795Y1766153D01*
X28875998Y1878348D01*
X29033499Y2021930D01*
X29161939Y2192011D01*
X29256936Y2382793D01*
X29256938Y2382798D01*
X29315261Y2587782D01*
X29330000Y2746837D01*
X29330000Y2900000D01*
X28580000Y2900000D01*
X28580000Y3400000D01*
X29330000Y3400000D01*
X29330000Y3553164D01*
X29315261Y3712219D01*
X29256938Y3917203D01*
X29256936Y3917208D01*
X29161939Y4107990D01*
X29033499Y4278071D01*
X28875998Y4421653D01*
X28694794Y4533848D01*
X28684055Y4538008D01*
X28627760Y4581268D01*
X28603789Y4648095D01*
X28619753Y4717274D01*
X28670583Y4766839D01*
X28729571Y4781500D01*
X29734287Y4781500D01*
X29802408Y4761498D01*
X29823383Y4744595D01*
X30399522Y4168455D01*
X30415906Y4148279D01*
X30421940Y4139044D01*
X30421941Y4139043D01*
X30421943Y4139041D01*
X30450394Y4116897D01*
X30456253Y4111724D01*
X30459092Y4108885D01*
X30478397Y4095102D01*
X30489804Y4086224D01*
X30522415Y4060842D01*
X30522417Y4060842D01*
X30522419Y4060840D01*
X30529442Y4057040D01*
X30536631Y4053525D01*
X30590082Y4037612D01*
X30642839Y4019500D01*
X30642843Y4019500D01*
X30650751Y4018180D01*
X30658657Y4017195D01*
X30658658Y4017196D01*
X30658659Y4017195D01*
X30714384Y4019500D01*
X34146366Y4019500D01*
X34172224Y4016819D01*
X34183017Y4014555D01*
X34218809Y4019017D01*
X34226600Y4019500D01*
X34230611Y4019500D01*
X34254005Y4023404D01*
X34261887Y4024387D01*
X34309360Y4030304D01*
X34309362Y4030306D01*
X34317011Y4032583D01*
X34324584Y4035182D01*
X34324586Y4035182D01*
X34373641Y4061730D01*
X34423746Y4086224D01*
X34423750Y4086229D01*
X34430266Y4090880D01*
X34436562Y4095780D01*
X34474341Y4136820D01*
X35082119Y4744596D01*
X35144431Y4778621D01*
X35171214Y4781500D01*
X36270429Y4781500D01*
X36338550Y4761498D01*
X36385043Y4707842D01*
X36395147Y4637568D01*
X36365653Y4572988D01*
X36315945Y4538008D01*
X36305205Y4533848D01*
X36305204Y4533848D01*
X36124001Y4421653D01*
X35966500Y4278071D01*
X35838060Y4107990D01*
X35743063Y3917208D01*
X35743061Y3917203D01*
X35684738Y3712219D01*
X35670000Y3553164D01*
X35670000Y3400000D01*
X36420000Y3400000D01*
X36420000Y2900000D01*
X35670000Y2900000D01*
X35670000Y2746837D01*
X35684738Y2587782D01*
X35743061Y2382798D01*
X35743063Y2382793D01*
X35838060Y2192011D01*
X35966500Y2021930D01*
X36124001Y1878348D01*
X36305204Y1766153D01*
X36305211Y1766150D01*
X36503939Y1689162D01*
X36569999Y1676814D01*
X36570000Y1676814D01*
X36570000Y2534314D01*
X36581955Y2522359D01*
X36694852Y2464835D01*
X36820000Y2445014D01*
X36945148Y2464835D01*
X37058045Y2522359D01*
X37070000Y2534314D01*
X37070000Y1676814D01*
X37136060Y1689162D01*
X37136061Y1689162D01*
X37334788Y1766150D01*
X37334795Y1766153D01*
X37515998Y1878348D01*
X37673499Y2021930D01*
X37801939Y2192011D01*
X37896936Y2382793D01*
X37896938Y2382798D01*
X37955261Y2587782D01*
X37970000Y2746837D01*
X37970000Y2900000D01*
X37220000Y2900000D01*
X37220000Y3400000D01*
X37970000Y3400000D01*
X37970000Y3553164D01*
X37955261Y3712219D01*
X37896938Y3917203D01*
X37896936Y3917208D01*
X37801939Y4107990D01*
X37673499Y4278071D01*
X37515998Y4421653D01*
X37334795Y4533848D01*
X37334788Y4533851D01*
X37253503Y4565341D01*
X37197208Y4608600D01*
X37173238Y4675428D01*
X37189202Y4744606D01*
X37239050Y4793645D01*
X37286649Y4819405D01*
X37294641Y4823730D01*
X37344746Y4848224D01*
X37344748Y4848226D01*
X37351266Y4852880D01*
X37357562Y4857780D01*
X37395341Y4898820D01*
X38241543Y5745021D01*
X38261717Y5761405D01*
X38270956Y5767440D01*
X38293111Y5795907D01*
X38298277Y5801756D01*
X38301114Y5804591D01*
X38314900Y5823901D01*
X38349158Y5867915D01*
X38349160Y5867924D01*
X38352956Y5874935D01*
X38356470Y5882124D01*
X38356475Y5882130D01*
X38370693Y5929889D01*
X38372390Y5935588D01*
X38390499Y5988336D01*
X38391819Y5996248D01*
X38392805Y6004158D01*
X38390500Y6059885D01*
X38390500Y11190893D01*
X38410502Y11259014D01*
X38464158Y11305507D01*
X38534432Y11315611D01*
X38599012Y11286117D01*
X38637135Y11227268D01*
X38702399Y11010820D01*
X38702403Y11010811D01*
X38847484Y10667044D01*
X38847492Y10667027D01*
X38940079Y10499880D01*
X39028293Y10340626D01*
X39137536Y10185101D01*
X39242772Y10035282D01*
X39242777Y10035276D01*
X39488482Y9754474D01*
X39488484Y9754472D01*
X39762655Y9501371D01*
X40062171Y9278849D01*
X40062172Y9278847D01*
X40062176Y9278845D01*
X40062177Y9278844D01*
X40383655Y9089415D01*
X40723446Y8935230D01*
X41077702Y8818036D01*
X41442408Y8739161D01*
X41442410Y8739161D01*
X41442414Y8739160D01*
X41813418Y8699500D01*
X41813425Y8699500D01*
X41813431Y8699499D01*
X41813436Y8699499D01*
X42093219Y8699499D01*
X42372596Y8714389D01*
X42372601Y8714390D01*
X42372609Y8714390D01*
X42740995Y8773743D01*
X43100986Y8871916D01*
X43448503Y9007798D01*
X43779607Y9179849D01*
X44090547Y9386119D01*
X44377801Y9624272D01*
X44638114Y9891609D01*
X44868535Y10185101D01*
X45066455Y10501422D01*
X45229631Y10836989D01*
X45356213Y11187999D01*
X45370100Y11244840D01*
X45405697Y11306268D01*
X45468854Y11338698D01*
X45539518Y11331836D01*
X45595254Y11287859D01*
X45618367Y11220729D01*
X45618500Y11214937D01*
X45618500Y507500D01*
X45598498Y439379D01*
X45544842Y392886D01*
X45492500Y381500D01*
X507500Y381500D01*
X439379Y401502D01*
X392886Y455158D01*
X381500Y507500D01*
X381500Y11220741D01*
X401502Y11288862D01*
X455158Y11335355D01*
X525432Y11345459D01*
X590012Y11315965D01*
X628135Y11257116D01*
X702399Y11010820D01*
X702403Y11010811D01*
X847484Y10667044D01*
X847492Y10667027D01*
X940079Y10499880D01*
X1028293Y10340626D01*
X1137536Y10185101D01*
X1242772Y10035282D01*
X1242777Y10035276D01*
X1488482Y9754474D01*
X1488484Y9754472D01*
X1762655Y9501371D01*
X2062171Y9278849D01*
X2062172Y9278847D01*
X2062176Y9278845D01*
X2062177Y9278844D01*
X2383655Y9089415D01*
X2723446Y8935230D01*
X3077702Y8818036D01*
X3442408Y8739161D01*
X3442410Y8739161D01*
X3442414Y8739160D01*
X3813418Y8699500D01*
X3813425Y8699500D01*
X3813431Y8699499D01*
X3813436Y8699499D01*
X4093219Y8699499D01*
X4372596Y8714389D01*
X4372601Y8714390D01*
X4372609Y8714390D01*
X4740995Y8773743D01*
X5100986Y8871916D01*
X5448503Y9007798D01*
X5779607Y9179849D01*
X6090547Y9386119D01*
X6377801Y9624272D01*
X6638114Y9891609D01*
X6868535Y10185101D01*
X7066455Y10501422D01*
X7229631Y10836989D01*
X7356213Y11187999D01*
X7444769Y11550476D01*
X7494294Y11920312D01*
X7504227Y12293317D01*
X7504092Y12295002D01*
X7474457Y12665260D01*
X7405316Y13031944D01*
X7405313Y13031953D01*
X7403791Y13037000D01*
X7351024Y13212001D01*
X7297600Y13389181D01*
X7297596Y13389190D01*
X7285437Y13418000D01*
X7152511Y13732967D01*
X6971707Y14059374D01*
X6757232Y14364713D01*
X6757227Y14364719D01*
X6757222Y14364725D01*
X6511517Y14645527D01*
X6511515Y14645529D01*
X6237344Y14898630D01*
X5937828Y15121152D01*
X5937827Y15121154D01*
X5758157Y15227023D01*
X5616345Y15310585D01*
X5276554Y15464770D01*
X4922298Y15581964D01*
X4922297Y15581965D01*
X4922288Y15581967D01*
X4557585Y15660841D01*
X4186581Y15700501D01*
X4186569Y15700501D01*
X3906787Y15700501D01*
X3906781Y15700501D01*
X3743877Y15691820D01*
X3674789Y15708168D01*
X3625506Y15759274D01*
X3611677Y15828910D01*
X3637691Y15894969D01*
X3695290Y15936477D01*
X3696672Y15936955D01*
X3773711Y15963106D01*
X3773716Y15963108D01*
X4032357Y16090654D01*
X4272144Y16250876D01*
X4272147Y16250879D01*
X4300607Y16275838D01*
X4300607Y16275840D01*
X3585308Y16991139D01*
X3741898Y17109390D01*
X3891723Y17273740D01*
X3936880Y17346673D01*
X4654160Y16629393D01*
X4654162Y16629393D01*
X4679121Y16657853D01*
X4679124Y16657856D01*
X4839346Y16897643D01*
X4966892Y17156284D01*
X4966898Y17156298D01*
X5028404Y17337490D01*
X5069241Y17395566D01*
X5134993Y17422345D01*
X5204786Y17409324D01*
X5219987Y17400202D01*
X5372611Y17293334D01*
X5372613Y17293333D01*
X5570838Y17200899D01*
X5570844Y17200897D01*
X5782107Y17144289D01*
X6000000Y17125226D01*
X6217892Y17144289D01*
X6429155Y17200897D01*
X6429161Y17200899D01*
X6627384Y17293332D01*
X6689571Y17336876D01*
X6132533Y17893914D01*
X6142315Y17895320D01*
X6273100Y17955048D01*
X6381761Y18049202D01*
X6459493Y18170156D01*
X6483076Y18250476D01*
X7043123Y17690429D01*
X7043124Y17690429D01*
X7086668Y17752616D01*
X7179101Y17950839D01*
X7179103Y17950845D01*
X7235711Y18162108D01*
X7247631Y18298360D01*
X7273494Y18364478D01*
X7293592Y18379033D01*
X7281703Y18385944D01*
X7249358Y18449145D01*
X7247631Y18461641D01*
X7235711Y18597893D01*
X7179103Y18809156D01*
X7179101Y18809161D01*
X7086667Y19007387D01*
X7043123Y19069572D01*
X6483076Y18509525D01*
X6459493Y18589844D01*
X6381761Y18710798D01*
X6273100Y18804952D01*
X6142315Y18864680D01*
X6132532Y18866087D01*
X6689571Y19423126D01*
X6627389Y19466666D01*
X6429160Y19559102D01*
X6429153Y19559105D01*
X6394860Y19568293D01*
X6334237Y19605244D01*
X6303215Y19669105D01*
X6311643Y19739599D01*
X6356845Y19794346D01*
X6394860Y19811707D01*
X6429153Y19820896D01*
X6429161Y19820899D01*
X6627384Y19913332D01*
X6689571Y19956876D01*
X6689571Y19956877D01*
X6132534Y20513914D01*
X6142315Y20515320D01*
X6273100Y20575048D01*
X6381761Y20669202D01*
X6459493Y20790156D01*
X6483076Y20870476D01*
X7043123Y20310429D01*
X7043124Y20310429D01*
X7086668Y20372616D01*
X7179101Y20570839D01*
X7179103Y20570845D01*
X7235711Y20782108D01*
X7247631Y20918360D01*
X7273494Y20984478D01*
X7293592Y20999033D01*
X7281703Y21005944D01*
X7249358Y21069145D01*
X7247631Y21081641D01*
X7235711Y21217893D01*
X7179103Y21429156D01*
X7179101Y21429161D01*
X7086667Y21627387D01*
X7043123Y21689572D01*
X6483076Y21129525D01*
X6459493Y21209844D01*
X6381761Y21330798D01*
X6273100Y21424952D01*
X6142315Y21484680D01*
X6132532Y21486087D01*
X6689571Y22043126D01*
X6627389Y22086666D01*
X6429160Y22179102D01*
X6429155Y22179104D01*
X6217892Y22235712D01*
X6000000Y22254775D01*
X5782107Y22235712D01*
X5570844Y22179104D01*
X5570839Y22179102D01*
X5372609Y22086666D01*
X5310428Y22043127D01*
X5310428Y22043126D01*
X5867467Y21486087D01*
X5857685Y21484680D01*
X5726900Y21424952D01*
X5618239Y21330798D01*
X5540507Y21209844D01*
X5516922Y21129524D01*
X4956874Y21689572D01*
X4956873Y21689572D01*
X4913334Y21627391D01*
X4820898Y21429161D01*
X4820896Y21429156D01*
X4764288Y21217893D01*
X4745225Y21000000D01*
X4764288Y20782108D01*
X4820896Y20570845D01*
X4820898Y20570840D01*
X4913334Y20372611D01*
X4956874Y20310429D01*
X5516922Y20870477D01*
X5540507Y20790156D01*
X5618239Y20669202D01*
X5726900Y20575048D01*
X5857685Y20515320D01*
X5867466Y20513914D01*
X5310427Y19956876D01*
X5310427Y19956874D01*
X5372608Y19913335D01*
X5570838Y19820899D01*
X5570844Y19820897D01*
X5605140Y19811707D01*
X5665763Y19774755D01*
X5696784Y19710895D01*
X5688356Y19640400D01*
X5643153Y19585653D01*
X5605140Y19568293D01*
X5570844Y19559104D01*
X5570839Y19559102D01*
X5372609Y19466666D01*
X5310428Y19423127D01*
X5310428Y19423126D01*
X5867467Y18866087D01*
X5857685Y18864680D01*
X5726900Y18804952D01*
X5618239Y18710798D01*
X5540507Y18589844D01*
X5516923Y18509524D01*
X4956875Y19069572D01*
X4940838Y19068169D01*
X4871234Y19082159D01*
X4825093Y19123688D01*
X4679123Y19342147D01*
X4654161Y19370610D01*
X3936880Y18653329D01*
X3891723Y18726260D01*
X3741898Y18890610D01*
X3585307Y19008862D01*
X4300607Y19724162D01*
X4300607Y19724164D01*
X4272152Y19749119D01*
X4272148Y19749122D01*
X4032357Y19909347D01*
X3773716Y20036893D01*
X3773702Y20036899D01*
X3500632Y20129594D01*
X3500619Y20129597D01*
X3217787Y20185856D01*
X3217769Y20185859D01*
X2930003Y20204720D01*
X2929997Y20204720D01*
X2642230Y20185859D01*
X2642212Y20185856D01*
X2359380Y20129597D01*
X2359367Y20129594D01*
X2086297Y20036899D01*
X2086283Y20036893D01*
X1827642Y19909347D01*
X1587852Y19749123D01*
X1587849Y19749121D01*
X1559391Y19724164D01*
X1559391Y19724162D01*
X2274691Y19008862D01*
X2118102Y18890610D01*
X1968277Y18726260D01*
X1923119Y18653328D01*
X1205838Y19370609D01*
X1205836Y19370609D01*
X1180879Y19342151D01*
X1180877Y19342148D01*
X1020653Y19102358D01*
X893107Y18843717D01*
X893101Y18843703D01*
X800406Y18570633D01*
X800403Y18570620D01*
X744144Y18287788D01*
X744141Y18287770D01*
X725280Y18000004D01*
X725280Y17999997D01*
X744141Y17712231D01*
X744144Y17712213D01*
X800403Y17429381D01*
X800406Y17429368D01*
X893101Y17156298D01*
X893107Y17156284D01*
X1020653Y16897643D01*
X1180878Y16657852D01*
X1180881Y16657848D01*
X1205836Y16629393D01*
X1205838Y16629393D01*
X1923118Y17346674D01*
X1968277Y17273740D01*
X2118102Y17109390D01*
X2274690Y16991140D01*
X1559390Y16275839D01*
X1587853Y16250877D01*
X1827642Y16090654D01*
X2086283Y15963108D01*
X2086297Y15963102D01*
X2359367Y15870407D01*
X2359380Y15870404D01*
X2642212Y15814145D01*
X2642230Y15814142D01*
X2929997Y15795280D01*
X2929999Y15795280D01*
X2930791Y15795332D01*
X2931024Y15795280D01*
X2934125Y15795280D01*
X2934125Y15794587D01*
X3000076Y15779836D01*
X3049984Y15729341D01*
X3064669Y15659880D01*
X3039470Y15593506D01*
X2982387Y15551292D01*
X2972197Y15548043D01*
X2899025Y15528088D01*
X2899009Y15528083D01*
X2551514Y15392209D01*
X2551507Y15392207D01*
X2551497Y15392202D01*
X2551488Y15392198D01*
X2551485Y15392196D01*
X2220399Y15220155D01*
X2220396Y15220153D01*
X1909452Y15013881D01*
X1909445Y15013876D01*
X1622202Y14775732D01*
X1361883Y14508388D01*
X1131464Y14214900D01*
X933543Y13898575D01*
X770370Y13563014D01*
X770369Y13563013D01*
X643788Y13212008D01*
X643787Y13212006D01*
X629900Y13155160D01*
X594302Y13093733D01*
X531146Y13061303D01*
X460482Y13068165D01*
X404745Y13112143D01*
X381633Y13179272D01*
X381500Y13185064D01*
X381500Y23699997D01*
X725280Y23699997D01*
X744141Y23412231D01*
X744144Y23412213D01*
X800403Y23129381D01*
X800406Y23129368D01*
X893101Y22856298D01*
X893107Y22856284D01*
X1020653Y22597643D01*
X1180878Y22357852D01*
X1180881Y22357848D01*
X1205836Y22329393D01*
X1205838Y22329393D01*
X1923118Y23046674D01*
X1968277Y22973740D01*
X2118102Y22809390D01*
X2274690Y22691140D01*
X1559390Y21975839D01*
X1587853Y21950877D01*
X1827642Y21790654D01*
X2086283Y21663108D01*
X2086297Y21663102D01*
X2359367Y21570407D01*
X2359380Y21570404D01*
X2642212Y21514145D01*
X2642230Y21514142D01*
X2929997Y21495280D01*
X2930003Y21495280D01*
X3217769Y21514142D01*
X3217787Y21514145D01*
X3500619Y21570404D01*
X3500632Y21570407D01*
X3773702Y21663102D01*
X3773716Y21663108D01*
X4032357Y21790654D01*
X4272144Y21950876D01*
X4272147Y21950879D01*
X4300607Y21975838D01*
X4300607Y21975840D01*
X3585308Y22691139D01*
X3741898Y22809390D01*
X3891723Y22973740D01*
X3936880Y23046673D01*
X4654160Y22329393D01*
X4654162Y22329393D01*
X4679121Y22357853D01*
X4679124Y22357856D01*
X4839346Y22597643D01*
X4966892Y22856284D01*
X4966898Y22856298D01*
X5059593Y23129368D01*
X5059596Y23129381D01*
X5115855Y23412213D01*
X5115858Y23412231D01*
X5134720Y23699997D01*
X5134720Y23700004D01*
X5115858Y23987770D01*
X5115855Y23987788D01*
X5059596Y24270620D01*
X5059593Y24270633D01*
X4966898Y24543703D01*
X4966892Y24543717D01*
X4839346Y24802358D01*
X4679123Y25042147D01*
X4654161Y25070610D01*
X3936880Y24353329D01*
X3891723Y24426260D01*
X3741898Y24590610D01*
X3585307Y24708862D01*
X4300607Y25424162D01*
X4300607Y25424164D01*
X4272152Y25449119D01*
X4272148Y25449122D01*
X4032357Y25609347D01*
X3773716Y25736893D01*
X3773702Y25736899D01*
X3500632Y25829594D01*
X3500619Y25829597D01*
X3217787Y25885856D01*
X3217769Y25885859D01*
X2930003Y25904720D01*
X2929997Y25904720D01*
X2642230Y25885859D01*
X2642212Y25885856D01*
X2359380Y25829597D01*
X2359367Y25829594D01*
X2086297Y25736899D01*
X2086283Y25736893D01*
X1827642Y25609347D01*
X1587852Y25449123D01*
X1587849Y25449121D01*
X1559391Y25424164D01*
X1559391Y25424162D01*
X2274691Y24708862D01*
X2118102Y24590610D01*
X1968277Y24426260D01*
X1923119Y24353328D01*
X1205838Y25070609D01*
X1205836Y25070609D01*
X1180879Y25042151D01*
X1180877Y25042148D01*
X1020653Y24802358D01*
X893107Y24543717D01*
X893101Y24543703D01*
X800406Y24270633D01*
X800403Y24270620D01*
X744144Y23987788D01*
X744141Y23987770D01*
X725280Y23700004D01*
X725280Y23699997D01*
X381500Y23699997D01*
X381500Y32992500D01*
X401502Y33060621D01*
X455158Y33107114D01*
X507500Y33118500D01*
X45492500Y33118500D01*
X45560621Y33098498D01*
G37*
%TD.AperFunction*%
%TA.AperFunction,Conductor*%
G36*
X38318891Y17657298D02*
G01*
X38371283Y17609385D01*
X38389500Y17544126D01*
X38389500Y15279215D01*
X38369498Y15211094D01*
X38352595Y15190119D01*
X37776452Y14613977D01*
X37756279Y14597594D01*
X37747041Y14591559D01*
X37724896Y14563107D01*
X37719736Y14557262D01*
X37716892Y14554417D01*
X37703099Y14535100D01*
X37668840Y14491084D01*
X37665030Y14484042D01*
X37661524Y14476871D01*
X37645610Y14423414D01*
X37627499Y14370661D01*
X37626184Y14362782D01*
X37625194Y14354840D01*
X37627500Y14299116D01*
X37627500Y8852200D01*
X37607498Y8784079D01*
X37553842Y8737586D01*
X37483568Y8727482D01*
X37438501Y8743080D01*
X37279032Y8835148D01*
X37080515Y8903856D01*
X37080511Y8903857D01*
X37070000Y8905369D01*
X37070000Y8095686D01*
X37058045Y8107641D01*
X36945148Y8165165D01*
X36820000Y8184986D01*
X36694852Y8165165D01*
X36581955Y8107641D01*
X36570000Y8095686D01*
X36570000Y8901259D01*
X36569999Y8901260D01*
X36458590Y8874231D01*
X36458586Y8874229D01*
X36267497Y8786962D01*
X36096376Y8665107D01*
X35951406Y8513066D01*
X35837830Y8336339D01*
X35759756Y8141319D01*
X35759756Y8141317D01*
X35720001Y7935044D01*
X35720000Y7935033D01*
X35720000Y7537054D01*
X35699998Y7468933D01*
X35646342Y7422440D01*
X35576068Y7412336D01*
X35556059Y7417826D01*
X35555994Y7417582D01*
X35548016Y7419720D01*
X35548015Y7419720D01*
X35508567Y7424914D01*
X35429675Y7435300D01*
X35429673Y7435300D01*
X35350327Y7435300D01*
X35350324Y7435300D01*
X35231986Y7419721D01*
X35158362Y7389224D01*
X35084739Y7358728D01*
X35084738Y7358727D01*
X35084737Y7358727D01*
X34958295Y7261705D01*
X34861273Y7135264D01*
X34861271Y7135261D01*
X34800279Y6988014D01*
X34779477Y6830001D01*
X34779477Y6830000D01*
X34800279Y6671987D01*
X34800280Y6671985D01*
X34861272Y6524739D01*
X34958295Y6398295D01*
X35084739Y6301272D01*
X35231985Y6240280D01*
X35350327Y6224700D01*
X35350334Y6224700D01*
X35429666Y6224700D01*
X35429673Y6224700D01*
X35548015Y6240280D01*
X35695261Y6301272D01*
X35695271Y6301281D01*
X35702415Y6305403D01*
X35703989Y6302676D01*
X35756263Y6322916D01*
X35825820Y6308689D01*
X35876643Y6259116D01*
X35878808Y6255095D01*
X35890406Y6232597D01*
X35890413Y6232586D01*
X36020265Y6067467D01*
X36020276Y6067455D01*
X36179036Y5929890D01*
X36179036Y5929889D01*
X36360964Y5824854D01*
X36360966Y5824853D01*
X36462908Y5789570D01*
X36520740Y5748388D01*
X36547126Y5682477D01*
X36533690Y5612763D01*
X36484697Y5561381D01*
X36421697Y5544500D01*
X35013635Y5544500D01*
X34987776Y5547182D01*
X34976982Y5549446D01*
X34954788Y5546679D01*
X34941189Y5544984D01*
X34933401Y5544500D01*
X34929389Y5544500D01*
X34911842Y5541572D01*
X34905992Y5540596D01*
X34850642Y5533697D01*
X34842974Y5531414D01*
X34835414Y5528819D01*
X34786369Y5502278D01*
X34736255Y5477778D01*
X34729760Y5473141D01*
X34723436Y5468219D01*
X34685668Y5427192D01*
X34077882Y4819405D01*
X34015569Y4785380D01*
X33988786Y4782500D01*
X30916713Y4782500D01*
X30848592Y4802502D01*
X30827618Y4819405D01*
X30251480Y5395543D01*
X30235091Y5415724D01*
X30234257Y5417000D01*
X30229060Y5424956D01*
X30200603Y5447105D01*
X30194745Y5452278D01*
X30191913Y5455110D01*
X30191902Y5455120D01*
X30172599Y5468901D01*
X30128586Y5503158D01*
X30121564Y5506958D01*
X30114372Y5510474D01*
X30114370Y5510475D01*
X30114367Y5510476D01*
X30060912Y5526391D01*
X30008164Y5544499D01*
X30008163Y5544500D01*
X30008161Y5544500D01*
X30008158Y5544500D01*
X30000248Y5545821D01*
X29992342Y5546806D01*
X29936616Y5544500D01*
X28592315Y5544500D01*
X28524194Y5564502D01*
X28477701Y5618158D01*
X28467597Y5688432D01*
X28497091Y5753012D01*
X28539973Y5785114D01*
X28732502Y5873039D01*
X28903623Y5994894D01*
X29048592Y6146934D01*
X29125571Y6266717D01*
X29179227Y6313210D01*
X29249501Y6323315D01*
X29296497Y6303520D01*
X29297585Y6305403D01*
X29304731Y6301278D01*
X29304739Y6301272D01*
X29451985Y6240280D01*
X29570327Y6224700D01*
X29570334Y6224700D01*
X29649666Y6224700D01*
X29649673Y6224700D01*
X29768015Y6240280D01*
X29915261Y6301272D01*
X30041705Y6398295D01*
X30138728Y6524738D01*
X30199720Y6671985D01*
X30220523Y6830000D01*
X30199720Y6988015D01*
X30138728Y7135261D01*
X30041705Y7261705D01*
X29915261Y7358728D01*
X29801369Y7405904D01*
X29768013Y7419721D01*
X29649675Y7435300D01*
X29649673Y7435300D01*
X29570327Y7435300D01*
X29570324Y7435300D01*
X29451985Y7419720D01*
X29444006Y7417582D01*
X29443494Y7419492D01*
X29383626Y7413056D01*
X29320140Y7444837D01*
X29283913Y7505895D01*
X29280000Y7537054D01*
X29280000Y7882403D01*
X29279999Y7882424D01*
X29265036Y8039113D01*
X29265033Y8039128D01*
X29205850Y8240687D01*
X29205846Y8240697D01*
X29109591Y8427407D01*
X29109585Y8427416D01*
X28979734Y8592534D01*
X28979723Y8592546D01*
X28820963Y8730111D01*
X28820963Y8730112D01*
X28639035Y8835147D01*
X28639033Y8835148D01*
X28581876Y8854930D01*
X28524044Y8896112D01*
X28497658Y8962023D01*
X28511094Y9031737D01*
X28560087Y9083119D01*
X28623087Y9100000D01*
X31660000Y9100000D01*
X31728121Y9079998D01*
X31774614Y9026342D01*
X31786000Y8974000D01*
X31786000Y8136191D01*
X31765998Y8068070D01*
X31749095Y8047096D01*
X30643000Y6941002D01*
X30643000Y6051999D01*
X31277998Y5417001D01*
X31278000Y5417000D01*
X33437000Y5417000D01*
X34199000Y6179000D01*
X34199000Y7650810D01*
X34219002Y7718931D01*
X34235905Y7739905D01*
X35977000Y9481000D01*
X35977000Y11513000D01*
X35976999Y11513002D01*
X35215001Y12275000D01*
X35215000Y12275000D01*
X33487191Y12275000D01*
X33419070Y12295002D01*
X33372577Y12348658D01*
X33362473Y12418932D01*
X33391967Y12483512D01*
X33398096Y12490095D01*
X37627999Y16719999D01*
X37628000Y16720000D01*
X37628000Y17275682D01*
X37648002Y17343803D01*
X37701658Y17390296D01*
X37717415Y17396254D01*
X37886265Y17447473D01*
X38060770Y17540748D01*
X38183568Y17641526D01*
X38248913Y17669279D01*
X38318891Y17657298D01*
G37*
%TD.AperFunction*%
%TA.AperFunction,Conductor*%
G36*
X40840907Y17675367D02*
G01*
X40893299Y17627454D01*
X40909095Y17586777D01*
X40940404Y17429378D01*
X40940406Y17429368D01*
X41033101Y17156298D01*
X41033107Y17156284D01*
X41160653Y16897643D01*
X41320878Y16657852D01*
X41320881Y16657848D01*
X41345836Y16629393D01*
X41345838Y16629393D01*
X42063118Y17346674D01*
X42108277Y17273740D01*
X42258102Y17109390D01*
X42414690Y16991140D01*
X41699390Y16275839D01*
X41727853Y16250877D01*
X41967642Y16090654D01*
X42226283Y15963108D01*
X42226297Y15963102D01*
X42297191Y15939037D01*
X42355267Y15898201D01*
X42382046Y15832448D01*
X42369025Y15762656D01*
X42320339Y15710982D01*
X42251444Y15693833D01*
X42243299Y15694438D01*
X42186586Y15700500D01*
X42186572Y15700501D01*
X42186569Y15700501D01*
X41906787Y15700501D01*
X41906781Y15700501D01*
X41627403Y15685612D01*
X41627385Y15685610D01*
X41259000Y15626257D01*
X40899012Y15528084D01*
X40899009Y15528083D01*
X40551514Y15392209D01*
X40551507Y15392207D01*
X40551497Y15392202D01*
X40551488Y15392198D01*
X40551485Y15392196D01*
X40220399Y15220155D01*
X40220396Y15220153D01*
X39909452Y15013881D01*
X39909445Y15013876D01*
X39622202Y14775732D01*
X39361883Y14508388D01*
X39131464Y14214900D01*
X38933543Y13898575D01*
X38770370Y13563014D01*
X38770369Y13563013D01*
X38643788Y13212008D01*
X38643787Y13212006D01*
X38638900Y13191999D01*
X38603302Y13130572D01*
X38540145Y13098141D01*
X38469481Y13105005D01*
X38413745Y13148982D01*
X38390633Y13216112D01*
X38390500Y13221903D01*
X38390500Y14096788D01*
X38410502Y14164909D01*
X38427399Y14185878D01*
X39003549Y14762028D01*
X39023721Y14778407D01*
X39032956Y14784440D01*
X39055103Y14812897D01*
X39060271Y14818750D01*
X39063114Y14821591D01*
X39076898Y14840899D01*
X39111158Y14884915D01*
X39111159Y14884921D01*
X39114950Y14891924D01*
X39118471Y14899127D01*
X39118475Y14899131D01*
X39127823Y14930532D01*
X39134389Y14952584D01*
X39152498Y15005334D01*
X39152500Y15005339D01*
X39152500Y15005346D01*
X39153819Y15013248D01*
X39154805Y15021158D01*
X39152500Y15076885D01*
X39152500Y17509658D01*
X39172502Y17577779D01*
X39226158Y17624272D01*
X39296432Y17634376D01*
X39358431Y17607058D01*
X39439230Y17540748D01*
X39613735Y17447473D01*
X39803084Y17390035D01*
X39803088Y17390035D01*
X39803090Y17390034D01*
X39999997Y17370640D01*
X40000000Y17370640D01*
X40000003Y17370640D01*
X40196909Y17390034D01*
X40196910Y17390035D01*
X40196916Y17390035D01*
X40386265Y17447473D01*
X40560770Y17540748D01*
X40705586Y17659596D01*
X40770929Y17687348D01*
X40840907Y17675367D01*
G37*
%TD.AperFunction*%
M02*
