M48
; DRILL file {KiCad 7.0.9-7.0.9~ubuntu22.04.1} date 26.01.2024 (пт) 14:57:27
; FORMAT={-:-/ absolute / inch / decimal}
; #@! TF.CreationDate,2024-01-26T14:57:27+02:00
; #@! TF.GenerationSoftware,Kicad,Pcbnew,7.0.9-7.0.9~ubuntu22.04.1
; #@! TF.FileFunction,Plated,1,2,PTH
FMAT,2
INCH
; #@! TA.AperFunction,Plated,PTH,ViaDrill
T1C0.0157
; #@! TA.AperFunction,Plated,PTH,ViaDrill
T2C0.0236
; #@! TA.AperFunction,Plated,PTH,ComponentDrill
T3C0.0315
; #@! TA.AperFunction,Plated,PTH,ComponentDrill
T4C0.0394
; #@! TA.AperFunction,Plated,PTH,ComponentDrill
T5C0.0945
%
G90
G05
T1
X0.4914Y0.3183
X0.4915Y0.2574
X0.4915Y0.2179
X0.5125Y0.1243
X0.5404Y0.1522
X0.5514Y0.2233
X0.5664Y0.5783
X0.6014Y0.3583
X0.6414Y0.2883
X0.6552Y0.3854
X0.6552Y0.3459
X0.6914Y0.523
X0.6914Y0.4835
X0.7164Y0.5683
X0.7864Y0.5033
X0.7964Y0.2033
X0.7988Y0.4558
X0.824Y0.4307
X0.8714Y0.4133
X0.9664Y0.7333
X1.2564Y0.2583
X1.3017Y0.2743
X1.3025Y0.4422
X1.3304Y0.4143
T2
X0.0564Y0.3183
X0.0564Y0.1833
X0.0764Y1.0933
X0.1414Y0.2383
X0.1414Y0.0533
X0.2164Y0.1283
X0.2264Y1.2533
X0.2564Y1.0183
X0.2914Y0.5783
X0.3014Y0.3833
X0.3114Y1.1533
X0.3164Y0.0533
X0.3464Y0.1633
X0.3814Y1.2533
X0.4564Y0.6533
X0.4914Y0.5133
X0.4964Y1.1533
X0.5314Y0.0533
X0.5664Y1.2533
X0.6464Y0.0533
X0.6714Y1.1533
X0.7514Y1.2533
X0.7864Y0.0533
X0.8903Y0.7433
X0.8903Y0.6683
X0.8903Y0.5983
X0.9414Y0.1483
X0.9864Y0.3083
X0.9952Y0.6833
X0.9964Y1.1533
X0.9964Y0.7983
X1.0714Y0.0383
X1.1164Y1.2433
X1.1564Y0.5283
X1.2164Y0.1233
X1.2764Y1.1383
X1.2764Y0.0483
X1.3414Y0.4933
X1.3564Y1.2433
X1.3664Y0.1233
X1.4364Y0.5083
X1.4664Y1.1333
X1.5514Y1.0283
X1.5764Y0.3233
X1.5914Y0.0483
X1.6114Y1.2433
X1.6535Y0.1417
X1.6564Y0.2483
X1.7264Y1.1533
X1.7664Y0.3333
X1.7664Y0.1933
T4
X0.2362Y0.8268
X0.2362Y0.7236
X0.3346Y0.8268
X0.3346Y0.7236
X0.4134Y0.8268
X0.4134Y0.7236
X0.5118Y0.8268
X0.5118Y0.7236
X1.2992Y0.8268
X1.2992Y0.7236
X1.3976Y0.8268
X1.3976Y0.7236
X1.4764Y0.8268
X1.4764Y0.7236
X1.5748Y0.8268
X1.5748Y0.7236
T5
X0.1154Y0.9331
X0.1154Y0.7087
X0.6327Y0.9331
X0.6327Y0.7087
X1.1783Y0.9331
X1.1783Y0.7087
X1.6957Y0.9331
X1.6957Y0.7087
T3
G00X1.1094Y0.3063
M15
G01X1.1094Y0.2709
M16
G05
G00X1.1094Y0.1358
M15
G01X1.1094Y0.1122
M16
G05
G00X1.4496Y0.3063
M15
G01X1.4496Y0.2709
M16
G05
G00X1.4496Y0.1358
M15
G01X1.4496Y0.1122
M16
G05
T0
M30
