%TF.GenerationSoftware,KiCad,Pcbnew,7.0.9-7.0.9~ubuntu22.04.1*%
%TF.CreationDate,2024-01-26T14:57:20+02:00*%
%TF.ProjectId,USB-NeoHUB_Rev_A,5553422d-4e65-46f4-9855-425f5265765f,A*%
%TF.SameCoordinates,PX5cfbb60PY69925e0*%
%TF.FileFunction,Legend,Bot*%
%TF.FilePolarity,Positive*%
%FSLAX46Y46*%
G04 Gerber Fmt 4.6, Leading zero omitted, Abs format (unit mm)*
G04 Created by KiCad (PCBNEW 7.0.9-7.0.9~ubuntu22.04.1) date 2024-01-26 14:57:20*
%MOMM*%
%LPD*%
G01*
G04 APERTURE LIST*
%ADD10C,0.254000*%
%ADD11C,0.317500*%
%ADD12C,0.350000*%
%ADD13C,0.500000*%
%ADD14C,0.190500*%
%ADD15C,0.508000*%
%ADD16C,0.150000*%
%ADD17C,0.127000*%
%ADD18C,0.010000*%
%ADD19C,0.700000*%
%ADD20C,0.100000*%
%ADD21C,0.400000*%
%ADD22C,0.300000*%
%ADD23C,0.200000*%
G04 APERTURE END LIST*
D10*
X34255656Y26310823D02*
X34316133Y26371299D01*
X34316133Y26371299D02*
X34437085Y26552728D01*
X34437085Y26552728D02*
X34497561Y26673680D01*
X34497561Y26673680D02*
X34558037Y26855108D01*
X34558037Y26855108D02*
X34618514Y27157489D01*
X34618514Y27157489D02*
X34618514Y27399394D01*
X34618514Y27399394D02*
X34558037Y27701775D01*
X34558037Y27701775D02*
X34497561Y27883204D01*
X34497561Y27883204D02*
X34437085Y28004156D01*
X34437085Y28004156D02*
X34316133Y28185585D01*
X34316133Y28185585D02*
X34255656Y28246061D01*
X33227561Y26855108D02*
X33348513Y26794632D01*
X33348513Y26794632D02*
X33590418Y26794632D01*
X33590418Y26794632D02*
X33711370Y26855108D01*
X33711370Y26855108D02*
X33771847Y26915585D01*
X33771847Y26915585D02*
X33832323Y27036537D01*
X33832323Y27036537D02*
X33832323Y27399394D01*
X33832323Y27399394D02*
X33771847Y27520347D01*
X33771847Y27520347D02*
X33711370Y27580823D01*
X33711370Y27580823D02*
X33590418Y27641299D01*
X33590418Y27641299D02*
X33348513Y27641299D01*
X33348513Y27641299D02*
X33227561Y27580823D01*
X32804228Y26310823D02*
X32743752Y26371299D01*
X32743752Y26371299D02*
X32622799Y26552728D01*
X32622799Y26552728D02*
X32562323Y26673680D01*
X32562323Y26673680D02*
X32501847Y26855108D01*
X32501847Y26855108D02*
X32441371Y27157489D01*
X32441371Y27157489D02*
X32441371Y27399394D01*
X32441371Y27399394D02*
X32501847Y27701775D01*
X32501847Y27701775D02*
X32562323Y27883204D01*
X32562323Y27883204D02*
X32622799Y28004156D01*
X32622799Y28004156D02*
X32743752Y28185585D01*
X32743752Y28185585D02*
X32804228Y28246061D01*
X30929466Y27943680D02*
X30868990Y28004156D01*
X30868990Y28004156D02*
X30748037Y28064632D01*
X30748037Y28064632D02*
X30445656Y28064632D01*
X30445656Y28064632D02*
X30324704Y28004156D01*
X30324704Y28004156D02*
X30264228Y27943680D01*
X30264228Y27943680D02*
X30203751Y27822728D01*
X30203751Y27822728D02*
X30203751Y27701775D01*
X30203751Y27701775D02*
X30264228Y27520347D01*
X30264228Y27520347D02*
X30989942Y26794632D01*
X30989942Y26794632D02*
X30203751Y26794632D01*
X29417561Y28064632D02*
X29296608Y28064632D01*
X29296608Y28064632D02*
X29175656Y28004156D01*
X29175656Y28004156D02*
X29115180Y27943680D01*
X29115180Y27943680D02*
X29054704Y27822728D01*
X29054704Y27822728D02*
X28994227Y27580823D01*
X28994227Y27580823D02*
X28994227Y27278442D01*
X28994227Y27278442D02*
X29054704Y27036537D01*
X29054704Y27036537D02*
X29115180Y26915585D01*
X29115180Y26915585D02*
X29175656Y26855108D01*
X29175656Y26855108D02*
X29296608Y26794632D01*
X29296608Y26794632D02*
X29417561Y26794632D01*
X29417561Y26794632D02*
X29538513Y26855108D01*
X29538513Y26855108D02*
X29598989Y26915585D01*
X29598989Y26915585D02*
X29659466Y27036537D01*
X29659466Y27036537D02*
X29719942Y27278442D01*
X29719942Y27278442D02*
X29719942Y27580823D01*
X29719942Y27580823D02*
X29659466Y27822728D01*
X29659466Y27822728D02*
X29598989Y27943680D01*
X29598989Y27943680D02*
X29538513Y28004156D01*
X29538513Y28004156D02*
X29417561Y28064632D01*
X28510418Y27943680D02*
X28449942Y28004156D01*
X28449942Y28004156D02*
X28328989Y28064632D01*
X28328989Y28064632D02*
X28026608Y28064632D01*
X28026608Y28064632D02*
X27905656Y28004156D01*
X27905656Y28004156D02*
X27845180Y27943680D01*
X27845180Y27943680D02*
X27784703Y27822728D01*
X27784703Y27822728D02*
X27784703Y27701775D01*
X27784703Y27701775D02*
X27845180Y27520347D01*
X27845180Y27520347D02*
X28570894Y26794632D01*
X28570894Y26794632D02*
X27784703Y26794632D01*
X26696132Y27641299D02*
X26696132Y26794632D01*
X26998513Y28125108D02*
X27300894Y27217966D01*
X27300894Y27217966D02*
X26514703Y27217966D01*
X40623799Y26794632D02*
X41047133Y27399394D01*
X41349514Y26794632D02*
X41349514Y28064632D01*
X41349514Y28064632D02*
X40865704Y28064632D01*
X40865704Y28064632D02*
X40744752Y28004156D01*
X40744752Y28004156D02*
X40684275Y27943680D01*
X40684275Y27943680D02*
X40623799Y27822728D01*
X40623799Y27822728D02*
X40623799Y27641299D01*
X40623799Y27641299D02*
X40684275Y27520347D01*
X40684275Y27520347D02*
X40744752Y27459870D01*
X40744752Y27459870D02*
X40865704Y27399394D01*
X40865704Y27399394D02*
X41349514Y27399394D01*
X39595704Y26855108D02*
X39716656Y26794632D01*
X39716656Y26794632D02*
X39958561Y26794632D01*
X39958561Y26794632D02*
X40079514Y26855108D01*
X40079514Y26855108D02*
X40139990Y26976061D01*
X40139990Y26976061D02*
X40139990Y27459870D01*
X40139990Y27459870D02*
X40079514Y27580823D01*
X40079514Y27580823D02*
X39958561Y27641299D01*
X39958561Y27641299D02*
X39716656Y27641299D01*
X39716656Y27641299D02*
X39595704Y27580823D01*
X39595704Y27580823D02*
X39535228Y27459870D01*
X39535228Y27459870D02*
X39535228Y27338918D01*
X39535228Y27338918D02*
X40139990Y27217966D01*
X39111895Y27641299D02*
X38809514Y26794632D01*
X38809514Y26794632D02*
X38507133Y27641299D01*
X38023324Y26915585D02*
X37962847Y26855108D01*
X37962847Y26855108D02*
X38023324Y26794632D01*
X38023324Y26794632D02*
X38083800Y26855108D01*
X38083800Y26855108D02*
X38023324Y26915585D01*
X38023324Y26915585D02*
X38023324Y26794632D01*
X37479038Y27157489D02*
X36874276Y27157489D01*
X37599990Y26794632D02*
X37176657Y28064632D01*
X37176657Y28064632D02*
X36753323Y26794632D01*
D11*
X41374261Y30893019D02*
X41374261Y29659305D01*
X41374261Y29659305D02*
X41301690Y29514162D01*
X41301690Y29514162D02*
X41229119Y29441590D01*
X41229119Y29441590D02*
X41083976Y29369019D01*
X41083976Y29369019D02*
X40793690Y29369019D01*
X40793690Y29369019D02*
X40648547Y29441590D01*
X40648547Y29441590D02*
X40575976Y29514162D01*
X40575976Y29514162D02*
X40503404Y29659305D01*
X40503404Y29659305D02*
X40503404Y30893019D01*
X39850262Y29441590D02*
X39632548Y29369019D01*
X39632548Y29369019D02*
X39269690Y29369019D01*
X39269690Y29369019D02*
X39124548Y29441590D01*
X39124548Y29441590D02*
X39051976Y29514162D01*
X39051976Y29514162D02*
X38979405Y29659305D01*
X38979405Y29659305D02*
X38979405Y29804448D01*
X38979405Y29804448D02*
X39051976Y29949590D01*
X39051976Y29949590D02*
X39124548Y30022162D01*
X39124548Y30022162D02*
X39269690Y30094733D01*
X39269690Y30094733D02*
X39559976Y30167305D01*
X39559976Y30167305D02*
X39705119Y30239876D01*
X39705119Y30239876D02*
X39777690Y30312448D01*
X39777690Y30312448D02*
X39850262Y30457590D01*
X39850262Y30457590D02*
X39850262Y30602733D01*
X39850262Y30602733D02*
X39777690Y30747876D01*
X39777690Y30747876D02*
X39705119Y30820448D01*
X39705119Y30820448D02*
X39559976Y30893019D01*
X39559976Y30893019D02*
X39197119Y30893019D01*
X39197119Y30893019D02*
X38979405Y30820448D01*
X37818261Y30167305D02*
X37600547Y30094733D01*
X37600547Y30094733D02*
X37527976Y30022162D01*
X37527976Y30022162D02*
X37455404Y29877019D01*
X37455404Y29877019D02*
X37455404Y29659305D01*
X37455404Y29659305D02*
X37527976Y29514162D01*
X37527976Y29514162D02*
X37600547Y29441590D01*
X37600547Y29441590D02*
X37745690Y29369019D01*
X37745690Y29369019D02*
X38326261Y29369019D01*
X38326261Y29369019D02*
X38326261Y30893019D01*
X38326261Y30893019D02*
X37818261Y30893019D01*
X37818261Y30893019D02*
X37673119Y30820448D01*
X37673119Y30820448D02*
X37600547Y30747876D01*
X37600547Y30747876D02*
X37527976Y30602733D01*
X37527976Y30602733D02*
X37527976Y30457590D01*
X37527976Y30457590D02*
X37600547Y30312448D01*
X37600547Y30312448D02*
X37673119Y30239876D01*
X37673119Y30239876D02*
X37818261Y30167305D01*
X37818261Y30167305D02*
X38326261Y30167305D01*
X36802261Y29949590D02*
X35641119Y29949590D01*
X34915404Y29369019D02*
X34915404Y30893019D01*
X34915404Y30893019D02*
X34044547Y29369019D01*
X34044547Y29369019D02*
X34044547Y30893019D01*
X32738262Y29441590D02*
X32883405Y29369019D01*
X32883405Y29369019D02*
X33173691Y29369019D01*
X33173691Y29369019D02*
X33318833Y29441590D01*
X33318833Y29441590D02*
X33391405Y29586733D01*
X33391405Y29586733D02*
X33391405Y30167305D01*
X33391405Y30167305D02*
X33318833Y30312448D01*
X33318833Y30312448D02*
X33173691Y30385019D01*
X33173691Y30385019D02*
X32883405Y30385019D01*
X32883405Y30385019D02*
X32738262Y30312448D01*
X32738262Y30312448D02*
X32665691Y30167305D01*
X32665691Y30167305D02*
X32665691Y30022162D01*
X32665691Y30022162D02*
X33391405Y29877019D01*
X31794833Y29369019D02*
X31939976Y29441590D01*
X31939976Y29441590D02*
X32012547Y29514162D01*
X32012547Y29514162D02*
X32085119Y29659305D01*
X32085119Y29659305D02*
X32085119Y30094733D01*
X32085119Y30094733D02*
X32012547Y30239876D01*
X32012547Y30239876D02*
X31939976Y30312448D01*
X31939976Y30312448D02*
X31794833Y30385019D01*
X31794833Y30385019D02*
X31577119Y30385019D01*
X31577119Y30385019D02*
X31431976Y30312448D01*
X31431976Y30312448D02*
X31359405Y30239876D01*
X31359405Y30239876D02*
X31286833Y30094733D01*
X31286833Y30094733D02*
X31286833Y29659305D01*
X31286833Y29659305D02*
X31359405Y29514162D01*
X31359405Y29514162D02*
X31431976Y29441590D01*
X31431976Y29441590D02*
X31577119Y29369019D01*
X31577119Y29369019D02*
X31794833Y29369019D01*
X30633690Y29369019D02*
X30633690Y30893019D01*
X30633690Y30167305D02*
X29762833Y30167305D01*
X29762833Y29369019D02*
X29762833Y30893019D01*
X29037119Y30893019D02*
X29037119Y29659305D01*
X29037119Y29659305D02*
X28964548Y29514162D01*
X28964548Y29514162D02*
X28891977Y29441590D01*
X28891977Y29441590D02*
X28746834Y29369019D01*
X28746834Y29369019D02*
X28456548Y29369019D01*
X28456548Y29369019D02*
X28311405Y29441590D01*
X28311405Y29441590D02*
X28238834Y29514162D01*
X28238834Y29514162D02*
X28166262Y29659305D01*
X28166262Y29659305D02*
X28166262Y30893019D01*
X26932548Y30167305D02*
X26714834Y30094733D01*
X26714834Y30094733D02*
X26642263Y30022162D01*
X26642263Y30022162D02*
X26569691Y29877019D01*
X26569691Y29877019D02*
X26569691Y29659305D01*
X26569691Y29659305D02*
X26642263Y29514162D01*
X26642263Y29514162D02*
X26714834Y29441590D01*
X26714834Y29441590D02*
X26859977Y29369019D01*
X26859977Y29369019D02*
X27440548Y29369019D01*
X27440548Y29369019D02*
X27440548Y30893019D01*
X27440548Y30893019D02*
X26932548Y30893019D01*
X26932548Y30893019D02*
X26787406Y30820448D01*
X26787406Y30820448D02*
X26714834Y30747876D01*
X26714834Y30747876D02*
X26642263Y30602733D01*
X26642263Y30602733D02*
X26642263Y30457590D01*
X26642263Y30457590D02*
X26714834Y30312448D01*
X26714834Y30312448D02*
X26787406Y30239876D01*
X26787406Y30239876D02*
X26932548Y30167305D01*
X26932548Y30167305D02*
X27440548Y30167305D01*
D12*
X19659193Y2191196D02*
X19743860Y2106529D01*
X19743860Y2106529D02*
X19997860Y2021863D01*
X19997860Y2021863D02*
X20167193Y2021863D01*
X20167193Y2021863D02*
X20421193Y2106529D01*
X20421193Y2106529D02*
X20590527Y2275863D01*
X20590527Y2275863D02*
X20675193Y2445196D01*
X20675193Y2445196D02*
X20759860Y2783863D01*
X20759860Y2783863D02*
X20759860Y3037863D01*
X20759860Y3037863D02*
X20675193Y3376529D01*
X20675193Y3376529D02*
X20590527Y3545863D01*
X20590527Y3545863D02*
X20421193Y3715196D01*
X20421193Y3715196D02*
X20167193Y3799863D01*
X20167193Y3799863D02*
X19997860Y3799863D01*
X19997860Y3799863D02*
X19743860Y3715196D01*
X19743860Y3715196D02*
X19659193Y3630529D01*
X18643193Y2021863D02*
X18812527Y2106529D01*
X18812527Y2106529D02*
X18897193Y2191196D01*
X18897193Y2191196D02*
X18981860Y2360529D01*
X18981860Y2360529D02*
X18981860Y2868529D01*
X18981860Y2868529D02*
X18897193Y3037863D01*
X18897193Y3037863D02*
X18812527Y3122529D01*
X18812527Y3122529D02*
X18643193Y3207196D01*
X18643193Y3207196D02*
X18389193Y3207196D01*
X18389193Y3207196D02*
X18219860Y3122529D01*
X18219860Y3122529D02*
X18135193Y3037863D01*
X18135193Y3037863D02*
X18050527Y2868529D01*
X18050527Y2868529D02*
X18050527Y2360529D01*
X18050527Y2360529D02*
X18135193Y2191196D01*
X18135193Y2191196D02*
X18219860Y2106529D01*
X18219860Y2106529D02*
X18389193Y2021863D01*
X18389193Y2021863D02*
X18643193Y2021863D01*
X17288526Y2021863D02*
X17288526Y3207196D01*
X17288526Y3037863D02*
X17203860Y3122529D01*
X17203860Y3122529D02*
X17034526Y3207196D01*
X17034526Y3207196D02*
X16780526Y3207196D01*
X16780526Y3207196D02*
X16611193Y3122529D01*
X16611193Y3122529D02*
X16526526Y2953196D01*
X16526526Y2953196D02*
X16526526Y2021863D01*
X16526526Y2953196D02*
X16441860Y3122529D01*
X16441860Y3122529D02*
X16272526Y3207196D01*
X16272526Y3207196D02*
X16018526Y3207196D01*
X16018526Y3207196D02*
X15849193Y3122529D01*
X15849193Y3122529D02*
X15764526Y2953196D01*
X15764526Y2953196D02*
X15764526Y2021863D01*
X14917859Y3207196D02*
X14917859Y1429196D01*
X14917859Y3122529D02*
X14748526Y3207196D01*
X14748526Y3207196D02*
X14409859Y3207196D01*
X14409859Y3207196D02*
X14240526Y3122529D01*
X14240526Y3122529D02*
X14155859Y3037863D01*
X14155859Y3037863D02*
X14071193Y2868529D01*
X14071193Y2868529D02*
X14071193Y2360529D01*
X14071193Y2360529D02*
X14155859Y2191196D01*
X14155859Y2191196D02*
X14240526Y2106529D01*
X14240526Y2106529D02*
X14409859Y2021863D01*
X14409859Y2021863D02*
X14748526Y2021863D01*
X14748526Y2021863D02*
X14917859Y2106529D01*
X13055192Y2021863D02*
X13224526Y2106529D01*
X13224526Y2106529D02*
X13309192Y2275863D01*
X13309192Y2275863D02*
X13309192Y3799863D01*
X12377859Y2021863D02*
X12377859Y3207196D01*
X12377859Y3799863D02*
X12462526Y3715196D01*
X12462526Y3715196D02*
X12377859Y3630529D01*
X12377859Y3630529D02*
X12293193Y3715196D01*
X12293193Y3715196D02*
X12377859Y3799863D01*
X12377859Y3799863D02*
X12377859Y3630529D01*
X10769192Y2021863D02*
X10769192Y2953196D01*
X10769192Y2953196D02*
X10853859Y3122529D01*
X10853859Y3122529D02*
X11023192Y3207196D01*
X11023192Y3207196D02*
X11361859Y3207196D01*
X11361859Y3207196D02*
X11531192Y3122529D01*
X10769192Y2106529D02*
X10938526Y2021863D01*
X10938526Y2021863D02*
X11361859Y2021863D01*
X11361859Y2021863D02*
X11531192Y2106529D01*
X11531192Y2106529D02*
X11615859Y2275863D01*
X11615859Y2275863D02*
X11615859Y2445196D01*
X11615859Y2445196D02*
X11531192Y2614529D01*
X11531192Y2614529D02*
X11361859Y2699196D01*
X11361859Y2699196D02*
X10938526Y2699196D01*
X10938526Y2699196D02*
X10769192Y2783863D01*
X9922525Y3207196D02*
X9922525Y2021863D01*
X9922525Y3037863D02*
X9837859Y3122529D01*
X9837859Y3122529D02*
X9668525Y3207196D01*
X9668525Y3207196D02*
X9414525Y3207196D01*
X9414525Y3207196D02*
X9245192Y3122529D01*
X9245192Y3122529D02*
X9160525Y2953196D01*
X9160525Y2953196D02*
X9160525Y2021863D01*
X8567858Y3207196D02*
X7890525Y3207196D01*
X8313858Y3799863D02*
X8313858Y2275863D01*
X8313858Y2275863D02*
X8229192Y2106529D01*
X8229192Y2106529D02*
X8059858Y2021863D01*
X8059858Y2021863D02*
X7890525Y2021863D01*
D13*
X19080634Y5132442D02*
X19747301Y6084823D01*
X20223491Y5132442D02*
X20223491Y7132442D01*
X20223491Y7132442D02*
X19461586Y7132442D01*
X19461586Y7132442D02*
X19271110Y7037204D01*
X19271110Y7037204D02*
X19175872Y6941966D01*
X19175872Y6941966D02*
X19080634Y6751490D01*
X19080634Y6751490D02*
X19080634Y6465776D01*
X19080634Y6465776D02*
X19175872Y6275300D01*
X19175872Y6275300D02*
X19271110Y6180061D01*
X19271110Y6180061D02*
X19461586Y6084823D01*
X19461586Y6084823D02*
X20223491Y6084823D01*
X17937777Y5132442D02*
X18128253Y5227680D01*
X18128253Y5227680D02*
X18223491Y5322919D01*
X18223491Y5322919D02*
X18318729Y5513395D01*
X18318729Y5513395D02*
X18318729Y6084823D01*
X18318729Y6084823D02*
X18223491Y6275300D01*
X18223491Y6275300D02*
X18128253Y6370538D01*
X18128253Y6370538D02*
X17937777Y6465776D01*
X17937777Y6465776D02*
X17652062Y6465776D01*
X17652062Y6465776D02*
X17461586Y6370538D01*
X17461586Y6370538D02*
X17366348Y6275300D01*
X17366348Y6275300D02*
X17271110Y6084823D01*
X17271110Y6084823D02*
X17271110Y5513395D01*
X17271110Y5513395D02*
X17366348Y5322919D01*
X17366348Y5322919D02*
X17461586Y5227680D01*
X17461586Y5227680D02*
X17652062Y5132442D01*
X17652062Y5132442D02*
X17937777Y5132442D01*
X16413967Y5132442D02*
X16413967Y7132442D01*
X16413967Y6180061D02*
X15271110Y6180061D01*
X15271110Y5132442D02*
X15271110Y7132442D01*
X14413967Y5227680D02*
X14128253Y5132442D01*
X14128253Y5132442D02*
X13652062Y5132442D01*
X13652062Y5132442D02*
X13461586Y5227680D01*
X13461586Y5227680D02*
X13366348Y5322919D01*
X13366348Y5322919D02*
X13271110Y5513395D01*
X13271110Y5513395D02*
X13271110Y5703871D01*
X13271110Y5703871D02*
X13366348Y5894347D01*
X13366348Y5894347D02*
X13461586Y5989585D01*
X13461586Y5989585D02*
X13652062Y6084823D01*
X13652062Y6084823D02*
X14033015Y6180061D01*
X14033015Y6180061D02*
X14223491Y6275300D01*
X14223491Y6275300D02*
X14318729Y6370538D01*
X14318729Y6370538D02*
X14413967Y6561014D01*
X14413967Y6561014D02*
X14413967Y6751490D01*
X14413967Y6751490D02*
X14318729Y6941966D01*
X14318729Y6941966D02*
X14223491Y7037204D01*
X14223491Y7037204D02*
X14033015Y7132442D01*
X14033015Y7132442D02*
X13556824Y7132442D01*
X13556824Y7132442D02*
X13271110Y7037204D01*
D14*
X27105143Y20096391D02*
X26960000Y20096391D01*
X26960000Y20096391D02*
X26887429Y20060105D01*
X26887429Y20060105D02*
X26814857Y19987534D01*
X26814857Y19987534D02*
X26778572Y19842391D01*
X26778572Y19842391D02*
X26778572Y19588391D01*
X26778572Y19588391D02*
X26814857Y19443248D01*
X26814857Y19443248D02*
X26887429Y19370676D01*
X26887429Y19370676D02*
X26960000Y19334391D01*
X26960000Y19334391D02*
X27105143Y19334391D01*
X27105143Y19334391D02*
X27177715Y19370676D01*
X27177715Y19370676D02*
X27250286Y19443248D01*
X27250286Y19443248D02*
X27286572Y19588391D01*
X27286572Y19588391D02*
X27286572Y19842391D01*
X27286572Y19842391D02*
X27250286Y19987534D01*
X27250286Y19987534D02*
X27177715Y20060105D01*
X27177715Y20060105D02*
X27105143Y20096391D01*
X26452000Y19842391D02*
X26452000Y19080391D01*
X26452000Y19806105D02*
X26379429Y19842391D01*
X26379429Y19842391D02*
X26234286Y19842391D01*
X26234286Y19842391D02*
X26161714Y19806105D01*
X26161714Y19806105D02*
X26125429Y19769819D01*
X26125429Y19769819D02*
X26089143Y19697248D01*
X26089143Y19697248D02*
X26089143Y19479534D01*
X26089143Y19479534D02*
X26125429Y19406962D01*
X26125429Y19406962D02*
X26161714Y19370676D01*
X26161714Y19370676D02*
X26234286Y19334391D01*
X26234286Y19334391D02*
X26379429Y19334391D01*
X26379429Y19334391D02*
X26452000Y19370676D01*
X25472285Y19370676D02*
X25544857Y19334391D01*
X25544857Y19334391D02*
X25690000Y19334391D01*
X25690000Y19334391D02*
X25762571Y19370676D01*
X25762571Y19370676D02*
X25798857Y19443248D01*
X25798857Y19443248D02*
X25798857Y19733534D01*
X25798857Y19733534D02*
X25762571Y19806105D01*
X25762571Y19806105D02*
X25690000Y19842391D01*
X25690000Y19842391D02*
X25544857Y19842391D01*
X25544857Y19842391D02*
X25472285Y19806105D01*
X25472285Y19806105D02*
X25436000Y19733534D01*
X25436000Y19733534D02*
X25436000Y19660962D01*
X25436000Y19660962D02*
X25798857Y19588391D01*
X25109428Y19842391D02*
X25109428Y19334391D01*
X25109428Y19769819D02*
X25073142Y19806105D01*
X25073142Y19806105D02*
X25000571Y19842391D01*
X25000571Y19842391D02*
X24891714Y19842391D01*
X24891714Y19842391D02*
X24819142Y19806105D01*
X24819142Y19806105D02*
X24782857Y19733534D01*
X24782857Y19733534D02*
X24782857Y19334391D01*
X23839428Y19334391D02*
X23839428Y20096391D01*
X23512857Y19334391D02*
X23512857Y19733534D01*
X23512857Y19733534D02*
X23549142Y19806105D01*
X23549142Y19806105D02*
X23621714Y19842391D01*
X23621714Y19842391D02*
X23730571Y19842391D01*
X23730571Y19842391D02*
X23803142Y19806105D01*
X23803142Y19806105D02*
X23839428Y19769819D01*
X22823428Y19334391D02*
X22823428Y19733534D01*
X22823428Y19733534D02*
X22859713Y19806105D01*
X22859713Y19806105D02*
X22932285Y19842391D01*
X22932285Y19842391D02*
X23077428Y19842391D01*
X23077428Y19842391D02*
X23149999Y19806105D01*
X22823428Y19370676D02*
X22895999Y19334391D01*
X22895999Y19334391D02*
X23077428Y19334391D01*
X23077428Y19334391D02*
X23149999Y19370676D01*
X23149999Y19370676D02*
X23186285Y19443248D01*
X23186285Y19443248D02*
X23186285Y19515819D01*
X23186285Y19515819D02*
X23149999Y19588391D01*
X23149999Y19588391D02*
X23077428Y19624676D01*
X23077428Y19624676D02*
X22895999Y19624676D01*
X22895999Y19624676D02*
X22823428Y19660962D01*
X22460570Y19334391D02*
X22460570Y19842391D01*
X22460570Y19697248D02*
X22424284Y19769819D01*
X22424284Y19769819D02*
X22387999Y19806105D01*
X22387999Y19806105D02*
X22315427Y19842391D01*
X22315427Y19842391D02*
X22242856Y19842391D01*
X21662285Y19334391D02*
X21662285Y20096391D01*
X21662285Y19370676D02*
X21734856Y19334391D01*
X21734856Y19334391D02*
X21879999Y19334391D01*
X21879999Y19334391D02*
X21952570Y19370676D01*
X21952570Y19370676D02*
X21988856Y19406962D01*
X21988856Y19406962D02*
X22025142Y19479534D01*
X22025142Y19479534D02*
X22025142Y19697248D01*
X22025142Y19697248D02*
X21988856Y19769819D01*
X21988856Y19769819D02*
X21952570Y19806105D01*
X21952570Y19806105D02*
X21879999Y19842391D01*
X21879999Y19842391D02*
X21734856Y19842391D01*
X21734856Y19842391D02*
X21662285Y19806105D01*
X21371998Y19842391D02*
X21226856Y19334391D01*
X21226856Y19334391D02*
X21081713Y19697248D01*
X21081713Y19697248D02*
X20936570Y19334391D01*
X20936570Y19334391D02*
X20791427Y19842391D01*
X20174570Y19334391D02*
X20174570Y19733534D01*
X20174570Y19733534D02*
X20210855Y19806105D01*
X20210855Y19806105D02*
X20283427Y19842391D01*
X20283427Y19842391D02*
X20428570Y19842391D01*
X20428570Y19842391D02*
X20501141Y19806105D01*
X20174570Y19370676D02*
X20247141Y19334391D01*
X20247141Y19334391D02*
X20428570Y19334391D01*
X20428570Y19334391D02*
X20501141Y19370676D01*
X20501141Y19370676D02*
X20537427Y19443248D01*
X20537427Y19443248D02*
X20537427Y19515819D01*
X20537427Y19515819D02*
X20501141Y19588391D01*
X20501141Y19588391D02*
X20428570Y19624676D01*
X20428570Y19624676D02*
X20247141Y19624676D01*
X20247141Y19624676D02*
X20174570Y19660962D01*
X19811712Y19334391D02*
X19811712Y19842391D01*
X19811712Y19697248D02*
X19775426Y19769819D01*
X19775426Y19769819D02*
X19739141Y19806105D01*
X19739141Y19806105D02*
X19666569Y19842391D01*
X19666569Y19842391D02*
X19593998Y19842391D01*
X19049712Y19370676D02*
X19122284Y19334391D01*
X19122284Y19334391D02*
X19267427Y19334391D01*
X19267427Y19334391D02*
X19339998Y19370676D01*
X19339998Y19370676D02*
X19376284Y19443248D01*
X19376284Y19443248D02*
X19376284Y19733534D01*
X19376284Y19733534D02*
X19339998Y19806105D01*
X19339998Y19806105D02*
X19267427Y19842391D01*
X19267427Y19842391D02*
X19122284Y19842391D01*
X19122284Y19842391D02*
X19049712Y19806105D01*
X19049712Y19806105D02*
X19013427Y19733534D01*
X19013427Y19733534D02*
X19013427Y19660962D01*
X19013427Y19660962D02*
X19376284Y19588391D01*
D10*
X37134788Y13107035D02*
X37134788Y14807035D01*
X37134788Y14807035D02*
X36563359Y14807035D01*
X36563359Y14807035D02*
X36420502Y14726083D01*
X36420502Y14726083D02*
X36349073Y14645130D01*
X36349073Y14645130D02*
X36277645Y14483226D01*
X36277645Y14483226D02*
X36277645Y14240368D01*
X36277645Y14240368D02*
X36349073Y14078464D01*
X36349073Y14078464D02*
X36420502Y13997511D01*
X36420502Y13997511D02*
X36563359Y13916559D01*
X36563359Y13916559D02*
X37134788Y13916559D01*
X35634788Y13107035D02*
X35634788Y14807035D01*
X35634788Y14159416D02*
X35491931Y14240368D01*
X35491931Y14240368D02*
X35206216Y14240368D01*
X35206216Y14240368D02*
X35063359Y14159416D01*
X35063359Y14159416D02*
X34991931Y14078464D01*
X34991931Y14078464D02*
X34920502Y13916559D01*
X34920502Y13916559D02*
X34920502Y13430845D01*
X34920502Y13430845D02*
X34991931Y13268940D01*
X34991931Y13268940D02*
X35063359Y13187987D01*
X35063359Y13187987D02*
X35206216Y13107035D01*
X35206216Y13107035D02*
X35491931Y13107035D01*
X35491931Y13107035D02*
X35634788Y13187987D01*
X3464978Y5731960D02*
G75*
G03*
X3778947Y4974027I1071922J40D01*
G01*
X3536103Y6100267D02*
G75*
G03*
X3465283Y5731513I922097J-368267D01*
G01*
X3536110Y6100264D02*
G75*
G03*
X3600148Y7034864I-1414810J566436D01*
G01*
X3802832Y4952194D02*
G75*
G03*
X4382497Y4678547I784868J911806D01*
G01*
X4384480Y4677862D02*
G75*
G03*
X4583927Y4653697I198120J800038D01*
G01*
X4404797Y5803080D02*
G75*
G03*
X4050794Y6793934I-1762767J-71120D01*
G01*
X4430195Y5455099D02*
G75*
G03*
X4932340Y4659387I1211605J208301D01*
G01*
X4811200Y5848800D02*
G75*
G03*
X5221340Y4751954I1529080J-53340D01*
G01*
X4811199Y5856420D02*
G75*
G03*
X4304020Y6887819I-1498599J-96520D01*
G01*
X5194712Y4779432D02*
G75*
G03*
X5498788Y4653209I304788J304868D01*
G01*
X5497011Y4781989D02*
G75*
G03*
X5750555Y5392629I-612111J612111D01*
G01*
X5624009Y6369505D02*
G75*
G03*
X4902000Y7013489I-1323309J-756905D01*
G01*
X5631606Y4520366D02*
G75*
G03*
X5923720Y4399388I292094J292134D01*
G01*
X5794180Y5074100D02*
G75*
G03*
X5879874Y5518099I-1109980J444500D01*
G01*
X5877999Y5518600D02*
G75*
G03*
X5677793Y6273679I-1523999J0D01*
G01*
X5923720Y4400998D02*
G75*
G03*
X6281134Y4549046I-20J505502D01*
G01*
X6319965Y7492179D02*
G75*
G03*
X6259760Y6814757I2989535J-607079D01*
G01*
X6385981Y4990280D02*
G75*
G03*
X6891979Y3765721I1734819J20D01*
G01*
X6385965Y5036000D02*
G75*
G03*
X6654257Y4383289I922035J-2500D01*
G01*
X6386000Y5163000D02*
G75*
G03*
X6833549Y4077441I1534160J-2540D01*
G01*
X6505380Y6100260D02*
G75*
G03*
X6385154Y5162931I642620J-558800D01*
G01*
X6767000Y2877000D02*
G75*
G03*
X8291000Y1353000I1524000J0D01*
G01*
X7320713Y7507430D02*
G75*
G03*
X6265642Y6437234I2776287J-3792230D01*
G01*
X7381680Y5437320D02*
G75*
G03*
X6662860Y5439860I-360680J-358120D01*
G01*
X7435012Y5383972D02*
G75*
G03*
X7973500Y5160934I538488J538528D01*
G01*
X8291000Y4401000D02*
G75*
G03*
X6767000Y2877000I0J-1524000D01*
G01*
X8489119Y5162986D02*
G75*
G03*
X10354933Y5828988I126981J2590814D01*
G01*
X8517060Y9608000D02*
G75*
G03*
X6466736Y8095415I93980J-2273300D01*
G01*
X8595801Y8015414D02*
G75*
G03*
X7332130Y7515066I871199J-4046214D01*
G01*
X9113959Y8089088D02*
G75*
G03*
X10456379Y8304814I-469859J7208512D01*
G01*
X9230802Y7558210D02*
G75*
G03*
X6676474Y6288843I1099798J-5417810D01*
G01*
X9540679Y7619191D02*
G75*
G03*
X11567541Y8369222I-604479J4747209D01*
G01*
X10394132Y5866566D02*
G75*
G03*
X12375464Y8248553I-6362732J7307534D01*
G01*
X10665900Y9412419D02*
G75*
G03*
X12380952Y9752479I447040J2240271D01*
G01*
X20102000Y1353000D02*
G75*
G03*
X21626000Y2877000I0J1524000D01*
G01*
X21626000Y2877000D02*
G75*
G03*
X20102000Y4401000I-1523999J1D01*
G01*
X3465000Y7576000D02*
X3599620Y7037520D01*
X3719000Y6941000D02*
X3846000Y6941000D01*
X3779960Y4975040D02*
X3802820Y4952180D01*
X3846000Y6941000D02*
X3846000Y6433000D01*
X3846000Y6941000D02*
X3973000Y6941000D01*
X3973000Y6941000D02*
X3973000Y6433000D01*
X3973000Y6941000D02*
X4862000Y6941000D01*
X4100000Y7322000D02*
X3592000Y7322000D01*
X4227000Y6306000D02*
X3719000Y6306000D01*
X4227000Y6433000D02*
X3719000Y6433000D01*
X4227000Y7195000D02*
X3592000Y7195000D01*
X4354000Y5417000D02*
X3592000Y5417000D01*
X4354000Y5544000D02*
X3592000Y5544000D01*
X4354000Y5671000D02*
X3592000Y5671000D01*
X4354000Y5798000D02*
X3592000Y5798000D01*
X4354000Y5925000D02*
X3592000Y5925000D01*
X4354000Y6052000D02*
X3592000Y6052000D01*
X4354000Y6179000D02*
X3719000Y6179000D01*
X4404800Y5846260D02*
X4430200Y5455100D01*
X4430200Y5290000D02*
X3592000Y5290000D01*
X4481000Y5036000D02*
X3846000Y5036000D01*
X4481000Y5163000D02*
X3719000Y5163000D01*
X4481000Y6814000D02*
X4989000Y6814000D01*
X4481000Y7068000D02*
X3719000Y7068000D01*
X4481000Y7195000D02*
X3465000Y7576000D01*
X4582600Y4655000D02*
X4938200Y4655000D01*
X4608000Y4909000D02*
X3973000Y4909000D01*
X4608000Y6560000D02*
X5370000Y6560000D01*
X4608000Y6687000D02*
X5243000Y6687000D01*
X4735000Y4782000D02*
X4227000Y4782000D01*
X4735000Y6306000D02*
X5624000Y6306000D01*
X4735000Y6433000D02*
X5497000Y6433000D01*
X4811200Y5848800D02*
X4811200Y5856420D01*
X4862000Y5671000D02*
X5370000Y4782000D01*
X4862000Y5798000D02*
X5751000Y5798000D01*
X4862000Y5925000D02*
X5751000Y5925000D01*
X4862000Y6052000D02*
X5624000Y6052000D01*
X4862000Y6179000D02*
X5624000Y6179000D01*
X4902640Y7014660D02*
X4481000Y7195000D01*
X5116000Y5671000D02*
X4862000Y5671000D01*
X5116000Y5671000D02*
X5116000Y5163000D01*
X5194740Y4779460D02*
X5222680Y4751520D01*
X5484300Y4655000D02*
X5497000Y4655000D01*
X5497000Y4655000D02*
X5794180Y5074100D01*
X5497000Y5671000D02*
X5116000Y5671000D01*
X5497000Y5671000D02*
X5497000Y5036000D01*
X5624000Y5036000D02*
X5116000Y5036000D01*
X5624000Y5036000D02*
X5624000Y4909000D01*
X5624000Y5163000D02*
X4989000Y5163000D01*
X5624000Y5163000D02*
X5624000Y5036000D01*
X5624000Y5544000D02*
X4989000Y5544000D01*
X5624000Y5544000D02*
X5624000Y5163000D01*
X5624000Y5671000D02*
X5497000Y5671000D01*
X5624000Y5671000D02*
X5624000Y5544000D01*
X5631620Y4520380D02*
X5497000Y4655000D01*
X5677340Y6275520D02*
X5624000Y6369500D01*
X5751000Y5290000D02*
X4989000Y5290000D01*
X5751000Y5394140D02*
X5751000Y5417000D01*
X5751000Y5417000D02*
X4989000Y5417000D01*
X5751000Y5417000D02*
X5751000Y5671000D01*
X5751000Y5671000D02*
X5624000Y5671000D01*
X6261540Y6433000D02*
X6264080Y6435540D01*
X6261540Y6814000D02*
X6261540Y6433000D01*
X6363140Y5208720D02*
X6386000Y5163000D01*
X6386000Y4655000D02*
X6281860Y4548320D01*
X6386000Y4990280D02*
X6386000Y5036000D01*
X6467280Y8091620D02*
X6319960Y7492180D01*
D15*
X6513000Y5544000D02*
X6767000Y6052000D01*
X6513000Y6941000D02*
X7021000Y7576000D01*
X6640000Y7957000D02*
X6513000Y6941000D01*
D10*
X6662860Y5437320D02*
X6386000Y5163000D01*
X6675560Y6288220D02*
X6505380Y6100260D01*
D15*
X6767000Y5798000D02*
X6513000Y5544000D01*
X6767000Y6052000D02*
X7275000Y6560000D01*
X6894000Y8465000D02*
X6640000Y7957000D01*
D10*
X7021000Y3766000D02*
X6513000Y4528000D01*
X7021000Y3893000D02*
X6835580Y4078420D01*
D15*
X7021000Y7576000D02*
X7656000Y7957000D01*
D10*
X7148000Y3893000D02*
X6657780Y4383220D01*
D15*
X7148000Y5925000D02*
X6767000Y5798000D01*
X7275000Y6560000D02*
X7960800Y6966400D01*
X7275000Y8338000D02*
X8926000Y8338000D01*
D10*
X7320720Y7507420D02*
X7328340Y7512500D01*
D15*
X7402000Y6179000D02*
X7529000Y5925000D01*
X7402000Y8465000D02*
X7021000Y7957000D01*
X7402000Y8465000D02*
X7402000Y8719000D01*
X7402000Y8719000D02*
X12355000Y8795200D01*
X7402000Y8973000D02*
X6894000Y8465000D01*
X7402000Y8973000D02*
X7402000Y8719000D01*
D10*
X7435020Y5383980D02*
X7381680Y5437320D01*
D15*
X7529000Y5925000D02*
X7783000Y5925000D01*
X7529000Y6306000D02*
X7402000Y6179000D01*
X7656000Y7957000D02*
X7402000Y8465000D01*
X7783000Y5925000D02*
X8164000Y5798000D01*
X7783000Y7957000D02*
X8418000Y8338000D01*
X7910000Y5417000D02*
X7148000Y5925000D01*
X7960800Y6966400D02*
X9357800Y7449000D01*
X8037000Y6179000D02*
X8164000Y6052000D01*
X8037000Y6306000D02*
X8037000Y6179000D01*
X8037000Y9354000D02*
X7402000Y8973000D01*
X8164000Y5798000D02*
X8799000Y5798000D01*
X8164000Y6052000D02*
X8545000Y6179000D01*
X8164000Y6814000D02*
X7529000Y6306000D01*
D10*
X8291000Y4401000D02*
X20102000Y4401000D01*
D15*
X8418000Y8338000D02*
X8926000Y8338000D01*
D10*
X8489120Y5163000D02*
X7973500Y5163000D01*
D15*
X8545000Y6179000D02*
X9815000Y6433000D01*
X8545000Y6560000D02*
X8037000Y6306000D01*
D10*
X8595800Y8015420D02*
X9113960Y8089080D01*
D15*
X8799000Y5417000D02*
X7910000Y5417000D01*
X8799000Y5798000D02*
X9180000Y5925000D01*
X8799000Y6560000D02*
X8545000Y6560000D01*
X8926000Y8338000D02*
X9053000Y8338000D01*
X9053000Y8338000D02*
X10196000Y8465000D01*
X9180000Y5925000D02*
X9688000Y6052000D01*
X9180000Y7068000D02*
X8164000Y6814000D01*
X9357800Y7449000D02*
X9967400Y7449000D01*
D10*
X9540680Y7619180D02*
X9230800Y7558220D01*
D15*
X9688000Y5671000D02*
X8799000Y5417000D01*
X9688000Y6052000D02*
X10323000Y6560000D01*
X9688000Y9354000D02*
X8037000Y9354000D01*
X9815000Y6814000D02*
X8799000Y6560000D01*
X9967400Y7449000D02*
X10704000Y7703000D01*
X10196000Y6052000D02*
X9688000Y5671000D01*
X10196000Y8465000D02*
X11466000Y8846000D01*
X10323000Y6560000D02*
X10450000Y6687000D01*
X10323000Y6814000D02*
X9815000Y6814000D01*
X10323000Y7195000D02*
X9180000Y7068000D01*
D10*
X10394120Y5866580D02*
X10358560Y5831020D01*
D15*
X10450000Y6687000D02*
X10323000Y6814000D01*
X10450000Y7195000D02*
X10323000Y7195000D01*
D10*
X10462700Y8304980D02*
X11849540Y8719000D01*
D15*
X10577000Y7068000D02*
X10450000Y7195000D01*
D10*
X10665900Y9412420D02*
X8517060Y9608000D01*
D15*
X10704000Y7703000D02*
X11466000Y8084000D01*
X10704000Y9224460D02*
X9688000Y9354000D01*
X11085000Y6941000D02*
X10196000Y6052000D01*
X11339000Y7322000D02*
X11085000Y6941000D01*
X11339000Y7703000D02*
X10577000Y7068000D01*
X11466000Y8846000D02*
X11974000Y8973000D01*
X11720000Y7830000D02*
X11339000Y7322000D01*
X11849540Y7957000D02*
X11849540Y8338000D01*
X11849540Y8338000D02*
X12228000Y9224460D01*
D10*
X11849540Y8719000D02*
X11567600Y8371020D01*
D15*
X11849540Y9224460D02*
X10704000Y9224460D01*
X11974000Y8973000D02*
X7402000Y8973000D01*
X12228000Y8465000D02*
X11849540Y7957000D01*
X12355000Y8973000D02*
X12228000Y8465000D01*
D10*
X12863000Y9862000D02*
X11849540Y9224460D01*
D15*
X12863000Y9862000D02*
X12355000Y8973000D01*
D10*
X13244000Y10370000D02*
X12377860Y8254180D01*
X13244000Y10370000D02*
X12382940Y9750240D01*
X20102000Y1353000D02*
X8291000Y1353000D01*
D16*
X27229500Y11434000D02*
X22657500Y11434000D01*
X27229500Y10672000D02*
X27229500Y11434000D01*
X27178700Y11281600D02*
X22708300Y11281600D01*
X27178700Y11230800D02*
X22759100Y11230800D01*
X27178700Y11078400D02*
X22708300Y11078400D01*
X27178700Y10773600D02*
X22759100Y10773600D01*
D10*
X27023500Y16210000D02*
X22832500Y12019000D01*
X26896500Y12146000D02*
X22832500Y16083000D01*
X26388500Y15702000D02*
X23467500Y15702000D01*
X25880500Y16337000D02*
X25753500Y16337000D01*
X25880500Y15829000D02*
X25880500Y16337000D01*
X25880500Y12527000D02*
X26134500Y15575000D01*
X25880500Y12527000D02*
X25880500Y12146000D01*
X25880500Y12527000D02*
X24483500Y12527000D01*
X25880500Y12146000D02*
X25372500Y12146000D01*
X25753500Y16337000D02*
X25753500Y15829000D01*
X25372500Y12146000D02*
X25372500Y12400000D01*
X25118500Y16591000D02*
X25118500Y16464000D01*
X25118500Y16464000D02*
X24737500Y16464000D01*
X25118500Y15194000D02*
X24229500Y15194000D01*
X25118500Y14813000D02*
X25118500Y15194000D01*
X24991500Y15067000D02*
X24356500Y15067000D01*
X24737500Y16591000D02*
X25118500Y16591000D01*
X24737500Y16464000D02*
X24737500Y16591000D01*
X24229500Y15194000D02*
X24229500Y14813000D01*
X24229500Y14813000D02*
X25118500Y14813000D01*
X23975500Y13035000D02*
X23848500Y15067000D01*
X23848500Y15702000D02*
X23848500Y15194000D01*
X23848500Y15194000D02*
X23467500Y15194000D01*
X23721500Y15702000D02*
X23594500Y15321000D01*
X23721500Y15575000D02*
X23721500Y15448000D01*
X23721500Y15575000D02*
X23721500Y15448000D01*
X23721500Y15575000D02*
X23594500Y15575000D01*
X23721500Y15194000D02*
X23721500Y15575000D01*
X23594500Y15575000D02*
X23594500Y15194000D01*
X23467500Y15194000D02*
X23467500Y15702000D01*
D16*
X22759100Y10875200D02*
X27127900Y10875200D01*
X22708300Y11383200D02*
X27127900Y11383200D01*
X22708300Y11129200D02*
X27127900Y11129200D01*
X22708300Y10976800D02*
X27127900Y10976800D01*
X22657500Y11434000D02*
X22657500Y10672000D01*
X22657500Y10672000D02*
X27229500Y10672000D01*
D10*
X26134500Y15829000D02*
G75*
G03*
X23848500Y15829000I-1143000J-1143000D01*
G01*
D17*
X24102500Y12527000D02*
G75*
G03*
X24102500Y12527000I-127000J0D01*
G01*
D10*
X24377109Y12527000D02*
G75*
G03*
X24377109Y12527000I-401609J0D01*
G01*
D18*
X23263933Y24684629D02*
X23339856Y24684135D01*
X23394491Y24682865D01*
X23431500Y24680453D01*
X23454547Y24676533D01*
X23467296Y24670738D01*
X23473411Y24662701D01*
X23476556Y24652057D01*
X23476646Y24651675D01*
X23481814Y24626653D01*
X23491209Y24578319D01*
X23503867Y24511740D01*
X23518825Y24431986D01*
X23535119Y24344125D01*
X23536448Y24336936D01*
X23552691Y24251660D01*
X23567805Y24176758D01*
X23580808Y24116781D01*
X23590715Y24076283D01*
X23596544Y24059816D01*
X23596575Y24059790D01*
X23614943Y24050680D01*
X23652640Y24035543D01*
X23701543Y24017642D01*
X23704297Y24016670D01*
X23766817Y23993041D01*
X23839543Y23963405D01*
X23907294Y23933938D01*
X24018703Y23883374D01*
X24265399Y24051840D01*
X24282775Y24063689D01*
X24357202Y24114053D01*
X24423614Y24158388D01*
X24478039Y24194084D01*
X24516506Y24218529D01*
X24535042Y24229111D01*
X24547743Y24226685D01*
X24576579Y24207890D01*
X24621143Y24170670D01*
X24682670Y24113980D01*
X24762398Y24036773D01*
X24769532Y24029745D01*
X24832796Y23966778D01*
X24888990Y23909732D01*
X24934677Y23862183D01*
X24966414Y23827703D01*
X24980764Y23809869D01*
X24980810Y23809783D01*
X24982633Y23796205D01*
X24975910Y23774180D01*
X24958946Y23740696D01*
X24930044Y23692739D01*
X24887508Y23627296D01*
X24829644Y23541355D01*
X24819783Y23526849D01*
X24769913Y23453365D01*
X24725905Y23388313D01*
X24690380Y23335583D01*
X24665959Y23299064D01*
X24655264Y23282644D01*
X24654458Y23279166D01*
X24659518Y23253215D01*
X24674677Y23210841D01*
X24697463Y23159272D01*
X24728429Y23091830D01*
X24763004Y23011805D01*
X24792366Y22939371D01*
X24799645Y22920623D01*
X24818710Y22872754D01*
X24832715Y22839404D01*
X24839041Y22826886D01*
X24846025Y22825950D01*
X24877413Y22820539D01*
X24928787Y22811194D01*
X24994802Y22798931D01*
X25070113Y22784768D01*
X25149375Y22769720D01*
X25227243Y22754805D01*
X25298370Y22741039D01*
X25357412Y22729438D01*
X25399022Y22721020D01*
X25417857Y22716801D01*
X25420980Y22715611D01*
X25428591Y22709195D01*
X25434254Y22695535D01*
X25438251Y22671001D01*
X25440866Y22631962D01*
X25442384Y22574787D01*
X25443086Y22495846D01*
X25443257Y22391508D01*
X25443257Y22074201D01*
X25367057Y22059161D01*
X25357840Y22057358D01*
X25308891Y22048020D01*
X25241205Y22035331D01*
X25162478Y22020727D01*
X25080400Y22005645D01*
X25048078Y21999578D01*
X24975855Y21984819D01*
X24915666Y21970863D01*
X24873040Y21959048D01*
X24853510Y21950713D01*
X24844660Y21937095D01*
X24828548Y21901062D01*
X24812065Y21854428D01*
X24806263Y21836966D01*
X24784906Y21779642D01*
X24757359Y21711799D01*
X24728107Y21644645D01*
X24712463Y21609570D01*
X24690174Y21557178D01*
X24674857Y21517942D01*
X24669162Y21498437D01*
X24669478Y21496964D01*
X24680281Y21476271D01*
X24704638Y21436335D01*
X24740081Y21381028D01*
X24784136Y21314219D01*
X24834332Y21239780D01*
X24999501Y20997377D01*
X24782503Y20780017D01*
X24761516Y20759101D01*
X24697342Y20696495D01*
X24639990Y20642505D01*
X24592820Y20600174D01*
X24559192Y20572543D01*
X24542467Y20562657D01*
X24524303Y20570179D01*
X24486265Y20591773D01*
X24432726Y20624849D01*
X24367884Y20666809D01*
X24295940Y20715057D01*
X24225275Y20762709D01*
X24161526Y20804672D01*
X24109513Y20837835D01*
X24073279Y20859622D01*
X24056867Y20867457D01*
X24055905Y20867386D01*
X24034103Y20859662D01*
X23995440Y20841677D01*
X23947612Y20816987D01*
X23947110Y20816716D01*
X23883587Y20784901D01*
X23840060Y20769358D01*
X23813052Y20769315D01*
X23799090Y20784000D01*
X23793180Y20798456D01*
X23777229Y20837169D01*
X23752660Y20896684D01*
X23720779Y20973835D01*
X23682893Y21065459D01*
X23640310Y21168393D01*
X23594337Y21279474D01*
X23552667Y21380528D01*
X23510268Y21484220D01*
X23472756Y21576881D01*
X23441388Y21655358D01*
X23417425Y21716500D01*
X23402123Y21757157D01*
X23396743Y21774175D01*
X23407018Y21789781D01*
X23435563Y21815838D01*
X23475971Y21846113D01*
X23572979Y21925316D01*
X23659793Y22026525D01*
X23723322Y22137884D01*
X23763177Y22256107D01*
X23778965Y22377905D01*
X23770296Y22499990D01*
X23736778Y22619075D01*
X23678021Y22731871D01*
X23593632Y22835089D01*
X23549631Y22875287D01*
X23444211Y22946362D01*
X23331410Y22992699D01*
X23214525Y23015401D01*
X23096853Y23015572D01*
X22981690Y22994313D01*
X22872335Y22952730D01*
X22772083Y22891924D01*
X22684233Y22812999D01*
X22612080Y22717059D01*
X22558922Y22605205D01*
X22528057Y22478543D01*
X22522392Y22417493D01*
X22530185Y22285224D01*
X22565284Y22159734D01*
X22626649Y22043241D01*
X22713243Y21937961D01*
X22824029Y21846113D01*
X22862931Y21817070D01*
X22892104Y21790728D01*
X22903257Y21774200D01*
X22898810Y21759791D01*
X22884378Y21721185D01*
X22861173Y21661799D01*
X22830452Y21584785D01*
X22793474Y21493297D01*
X22751496Y21390484D01*
X22705778Y21279498D01*
X22664178Y21178928D01*
X22621222Y21075053D01*
X22582829Y20982181D01*
X22550305Y20903475D01*
X22524958Y20842101D01*
X22508095Y20801221D01*
X22501025Y20784000D01*
X22500943Y20783796D01*
X22486798Y20769255D01*
X22459659Y20769421D01*
X22416023Y20785073D01*
X22352388Y20816987D01*
X22347379Y20819674D01*
X22300125Y20843850D01*
X22262811Y20860963D01*
X22243133Y20867457D01*
X22227005Y20859782D01*
X22190959Y20838129D01*
X22139092Y20805072D01*
X22075445Y20763190D01*
X22004060Y20715057D01*
X21933724Y20667869D01*
X21868670Y20625733D01*
X21814820Y20592422D01*
X21776374Y20570531D01*
X21757534Y20562657D01*
X21754325Y20563657D01*
X21731954Y20579416D01*
X21693733Y20611967D01*
X21643021Y20658267D01*
X21583181Y20715274D01*
X21517571Y20779942D01*
X21300648Y20997228D01*
X21469601Y21245747D01*
X21638553Y21494267D01*
X21587183Y21605405D01*
X21587031Y21605734D01*
X21556183Y21676582D01*
X21524661Y21755477D01*
X21499266Y21825400D01*
X21495423Y21836678D01*
X21476047Y21889033D01*
X21458574Y21929717D01*
X21446388Y21950713D01*
X21441426Y21953678D01*
X21411634Y21963625D01*
X21361047Y21976495D01*
X21295194Y21990947D01*
X21219600Y22005645D01*
X21196957Y22009790D01*
X21115038Y22024884D01*
X21038600Y22039101D01*
X20975337Y22051005D01*
X20932943Y22059161D01*
X20856743Y22074201D01*
X20856743Y22391508D01*
X20856760Y22430524D01*
X20857082Y22525708D01*
X20858033Y22596745D01*
X20859896Y22647266D01*
X20862955Y22680902D01*
X20867494Y22701282D01*
X20873795Y22712038D01*
X20882143Y22716801D01*
X20890224Y22718730D01*
X20923172Y22725555D01*
X20975736Y22735978D01*
X21042569Y22748982D01*
X21118328Y22763551D01*
X21197665Y22778667D01*
X21275237Y22793315D01*
X21345698Y22806477D01*
X21403702Y22817137D01*
X21443904Y22824279D01*
X21460959Y22826886D01*
X21462112Y22828459D01*
X21471385Y22848881D01*
X21487432Y22887955D01*
X21507635Y22939371D01*
X21535672Y23008647D01*
X21570186Y23088710D01*
X21602538Y23159272D01*
X21609952Y23175111D01*
X21630755Y23224707D01*
X21643219Y23262962D01*
X21644863Y23282644D01*
X21644015Y23284038D01*
X21630548Y23304580D01*
X21603850Y23344484D01*
X21566539Y23399860D01*
X21521234Y23466823D01*
X21470552Y23541483D01*
X21413445Y23626308D01*
X21370607Y23692200D01*
X21341460Y23740522D01*
X21324317Y23774267D01*
X21317495Y23796428D01*
X21319306Y23809998D01*
X21319915Y23811016D01*
X21336297Y23830790D01*
X21369695Y23866825D01*
X21416671Y23915549D01*
X21473786Y23973388D01*
X21537603Y24036773D01*
X21603802Y24101095D01*
X21668648Y24161553D01*
X21716299Y24202345D01*
X21747990Y24224516D01*
X21764958Y24229111D01*
X21767175Y24228079D01*
X21790524Y24214163D01*
X21832912Y24186970D01*
X21890369Y24149111D01*
X21958923Y24103197D01*
X22034601Y24051840D01*
X22281298Y23883374D01*
X22392706Y23933938D01*
X22395943Y23935403D01*
X22464343Y23965035D01*
X22536907Y23994507D01*
X22598457Y24017642D01*
X22598729Y24017738D01*
X22647595Y24035633D01*
X22685212Y24050747D01*
X22703457Y24059816D01*
X22703752Y24060145D01*
X22709946Y24078718D01*
X22720139Y24120955D01*
X22733348Y24182304D01*
X22748590Y24258211D01*
X22764881Y24344125D01*
X22765449Y24347204D01*
X22781713Y24434872D01*
X22796608Y24514259D01*
X22809171Y24580299D01*
X22818438Y24627921D01*
X22823444Y24652057D01*
X22823764Y24653395D01*
X22827060Y24663727D01*
X22833738Y24671494D01*
X22847462Y24677060D01*
X22871895Y24680793D01*
X22910702Y24683058D01*
X22967546Y24684222D01*
X23046090Y24684652D01*
X23150000Y24684714D01*
X23163056Y24684714D01*
X23263933Y24684629D01*
G36*
X23263933Y24684629D02*
G01*
X23339856Y24684135D01*
X23394491Y24682865D01*
X23431500Y24680453D01*
X23454547Y24676533D01*
X23467296Y24670738D01*
X23473411Y24662701D01*
X23476556Y24652057D01*
X23476646Y24651675D01*
X23481814Y24626653D01*
X23491209Y24578319D01*
X23503867Y24511740D01*
X23518825Y24431986D01*
X23535119Y24344125D01*
X23536448Y24336936D01*
X23552691Y24251660D01*
X23567805Y24176758D01*
X23580808Y24116781D01*
X23590715Y24076283D01*
X23596544Y24059816D01*
X23596575Y24059790D01*
X23614943Y24050680D01*
X23652640Y24035543D01*
X23701543Y24017642D01*
X23704297Y24016670D01*
X23766817Y23993041D01*
X23839543Y23963405D01*
X23907294Y23933938D01*
X24018703Y23883374D01*
X24265399Y24051840D01*
X24282775Y24063689D01*
X24357202Y24114053D01*
X24423614Y24158388D01*
X24478039Y24194084D01*
X24516506Y24218529D01*
X24535042Y24229111D01*
X24547743Y24226685D01*
X24576579Y24207890D01*
X24621143Y24170670D01*
X24682670Y24113980D01*
X24762398Y24036773D01*
X24769532Y24029745D01*
X24832796Y23966778D01*
X24888990Y23909732D01*
X24934677Y23862183D01*
X24966414Y23827703D01*
X24980764Y23809869D01*
X24980810Y23809783D01*
X24982633Y23796205D01*
X24975910Y23774180D01*
X24958946Y23740696D01*
X24930044Y23692739D01*
X24887508Y23627296D01*
X24829644Y23541355D01*
X24819783Y23526849D01*
X24769913Y23453365D01*
X24725905Y23388313D01*
X24690380Y23335583D01*
X24665959Y23299064D01*
X24655264Y23282644D01*
X24654458Y23279166D01*
X24659518Y23253215D01*
X24674677Y23210841D01*
X24697463Y23159272D01*
X24728429Y23091830D01*
X24763004Y23011805D01*
X24792366Y22939371D01*
X24799645Y22920623D01*
X24818710Y22872754D01*
X24832715Y22839404D01*
X24839041Y22826886D01*
X24846025Y22825950D01*
X24877413Y22820539D01*
X24928787Y22811194D01*
X24994802Y22798931D01*
X25070113Y22784768D01*
X25149375Y22769720D01*
X25227243Y22754805D01*
X25298370Y22741039D01*
X25357412Y22729438D01*
X25399022Y22721020D01*
X25417857Y22716801D01*
X25420980Y22715611D01*
X25428591Y22709195D01*
X25434254Y22695535D01*
X25438251Y22671001D01*
X25440866Y22631962D01*
X25442384Y22574787D01*
X25443086Y22495846D01*
X25443257Y22391508D01*
X25443257Y22074201D01*
X25367057Y22059161D01*
X25357840Y22057358D01*
X25308891Y22048020D01*
X25241205Y22035331D01*
X25162478Y22020727D01*
X25080400Y22005645D01*
X25048078Y21999578D01*
X24975855Y21984819D01*
X24915666Y21970863D01*
X24873040Y21959048D01*
X24853510Y21950713D01*
X24844660Y21937095D01*
X24828548Y21901062D01*
X24812065Y21854428D01*
X24806263Y21836966D01*
X24784906Y21779642D01*
X24757359Y21711799D01*
X24728107Y21644645D01*
X24712463Y21609570D01*
X24690174Y21557178D01*
X24674857Y21517942D01*
X24669162Y21498437D01*
X24669478Y21496964D01*
X24680281Y21476271D01*
X24704638Y21436335D01*
X24740081Y21381028D01*
X24784136Y21314219D01*
X24834332Y21239780D01*
X24999501Y20997377D01*
X24782503Y20780017D01*
X24761516Y20759101D01*
X24697342Y20696495D01*
X24639990Y20642505D01*
X24592820Y20600174D01*
X24559192Y20572543D01*
X24542467Y20562657D01*
X24524303Y20570179D01*
X24486265Y20591773D01*
X24432726Y20624849D01*
X24367884Y20666809D01*
X24295940Y20715057D01*
X24225275Y20762709D01*
X24161526Y20804672D01*
X24109513Y20837835D01*
X24073279Y20859622D01*
X24056867Y20867457D01*
X24055905Y20867386D01*
X24034103Y20859662D01*
X23995440Y20841677D01*
X23947612Y20816987D01*
X23947110Y20816716D01*
X23883587Y20784901D01*
X23840060Y20769358D01*
X23813052Y20769315D01*
X23799090Y20784000D01*
X23793180Y20798456D01*
X23777229Y20837169D01*
X23752660Y20896684D01*
X23720779Y20973835D01*
X23682893Y21065459D01*
X23640310Y21168393D01*
X23594337Y21279474D01*
X23552667Y21380528D01*
X23510268Y21484220D01*
X23472756Y21576881D01*
X23441388Y21655358D01*
X23417425Y21716500D01*
X23402123Y21757157D01*
X23396743Y21774175D01*
X23407018Y21789781D01*
X23435563Y21815838D01*
X23475971Y21846113D01*
X23572979Y21925316D01*
X23659793Y22026525D01*
X23723322Y22137884D01*
X23763177Y22256107D01*
X23778965Y22377905D01*
X23770296Y22499990D01*
X23736778Y22619075D01*
X23678021Y22731871D01*
X23593632Y22835089D01*
X23549631Y22875287D01*
X23444211Y22946362D01*
X23331410Y22992699D01*
X23214525Y23015401D01*
X23096853Y23015572D01*
X22981690Y22994313D01*
X22872335Y22952730D01*
X22772083Y22891924D01*
X22684233Y22812999D01*
X22612080Y22717059D01*
X22558922Y22605205D01*
X22528057Y22478543D01*
X22522392Y22417493D01*
X22530185Y22285224D01*
X22565284Y22159734D01*
X22626649Y22043241D01*
X22713243Y21937961D01*
X22824029Y21846113D01*
X22862931Y21817070D01*
X22892104Y21790728D01*
X22903257Y21774200D01*
X22898810Y21759791D01*
X22884378Y21721185D01*
X22861173Y21661799D01*
X22830452Y21584785D01*
X22793474Y21493297D01*
X22751496Y21390484D01*
X22705778Y21279498D01*
X22664178Y21178928D01*
X22621222Y21075053D01*
X22582829Y20982181D01*
X22550305Y20903475D01*
X22524958Y20842101D01*
X22508095Y20801221D01*
X22501025Y20784000D01*
X22500943Y20783796D01*
X22486798Y20769255D01*
X22459659Y20769421D01*
X22416023Y20785073D01*
X22352388Y20816987D01*
X22347379Y20819674D01*
X22300125Y20843850D01*
X22262811Y20860963D01*
X22243133Y20867457D01*
X22227005Y20859782D01*
X22190959Y20838129D01*
X22139092Y20805072D01*
X22075445Y20763190D01*
X22004060Y20715057D01*
X21933724Y20667869D01*
X21868670Y20625733D01*
X21814820Y20592422D01*
X21776374Y20570531D01*
X21757534Y20562657D01*
X21754325Y20563657D01*
X21731954Y20579416D01*
X21693733Y20611967D01*
X21643021Y20658267D01*
X21583181Y20715274D01*
X21517571Y20779942D01*
X21300648Y20997228D01*
X21469601Y21245747D01*
X21638553Y21494267D01*
X21587183Y21605405D01*
X21587031Y21605734D01*
X21556183Y21676582D01*
X21524661Y21755477D01*
X21499266Y21825400D01*
X21495423Y21836678D01*
X21476047Y21889033D01*
X21458574Y21929717D01*
X21446388Y21950713D01*
X21441426Y21953678D01*
X21411634Y21963625D01*
X21361047Y21976495D01*
X21295194Y21990947D01*
X21219600Y22005645D01*
X21196957Y22009790D01*
X21115038Y22024884D01*
X21038600Y22039101D01*
X20975337Y22051005D01*
X20932943Y22059161D01*
X20856743Y22074201D01*
X20856743Y22391508D01*
X20856760Y22430524D01*
X20857082Y22525708D01*
X20858033Y22596745D01*
X20859896Y22647266D01*
X20862955Y22680902D01*
X20867494Y22701282D01*
X20873795Y22712038D01*
X20882143Y22716801D01*
X20890224Y22718730D01*
X20923172Y22725555D01*
X20975736Y22735978D01*
X21042569Y22748982D01*
X21118328Y22763551D01*
X21197665Y22778667D01*
X21275237Y22793315D01*
X21345698Y22806477D01*
X21403702Y22817137D01*
X21443904Y22824279D01*
X21460959Y22826886D01*
X21462112Y22828459D01*
X21471385Y22848881D01*
X21487432Y22887955D01*
X21507635Y22939371D01*
X21535672Y23008647D01*
X21570186Y23088710D01*
X21602538Y23159272D01*
X21609952Y23175111D01*
X21630755Y23224707D01*
X21643219Y23262962D01*
X21644863Y23282644D01*
X21644015Y23284038D01*
X21630548Y23304580D01*
X21603850Y23344484D01*
X21566539Y23399860D01*
X21521234Y23466823D01*
X21470552Y23541483D01*
X21413445Y23626308D01*
X21370607Y23692200D01*
X21341460Y23740522D01*
X21324317Y23774267D01*
X21317495Y23796428D01*
X21319306Y23809998D01*
X21319915Y23811016D01*
X21336297Y23830790D01*
X21369695Y23866825D01*
X21416671Y23915549D01*
X21473786Y23973388D01*
X21537603Y24036773D01*
X21603802Y24101095D01*
X21668648Y24161553D01*
X21716299Y24202345D01*
X21747990Y24224516D01*
X21764958Y24229111D01*
X21767175Y24228079D01*
X21790524Y24214163D01*
X21832912Y24186970D01*
X21890369Y24149111D01*
X21958923Y24103197D01*
X22034601Y24051840D01*
X22281298Y23883374D01*
X22392706Y23933938D01*
X22395943Y23935403D01*
X22464343Y23965035D01*
X22536907Y23994507D01*
X22598457Y24017642D01*
X22598729Y24017738D01*
X22647595Y24035633D01*
X22685212Y24050747D01*
X22703457Y24059816D01*
X22703752Y24060145D01*
X22709946Y24078718D01*
X22720139Y24120955D01*
X22733348Y24182304D01*
X22748590Y24258211D01*
X22764881Y24344125D01*
X22765449Y24347204D01*
X22781713Y24434872D01*
X22796608Y24514259D01*
X22809171Y24580299D01*
X22818438Y24627921D01*
X22823444Y24652057D01*
X22823764Y24653395D01*
X22827060Y24663727D01*
X22833738Y24671494D01*
X22847462Y24677060D01*
X22871895Y24680793D01*
X22910702Y24683058D01*
X22967546Y24684222D01*
X23046090Y24684652D01*
X23150000Y24684714D01*
X23163056Y24684714D01*
X23263933Y24684629D01*
G37*
D19*
X19848000Y29559700D02*
X19340000Y30067700D01*
X19848000Y29508900D02*
X19848000Y29267600D01*
X19848000Y27540400D02*
X19263800Y26968900D01*
X19835300Y27527700D02*
X19835300Y28289700D01*
X19276500Y26968900D02*
X18235100Y26968900D01*
X18247800Y30156600D02*
X19251100Y30156600D01*
X18247800Y30143900D02*
X17612800Y29534300D01*
X17638200Y27578500D02*
X18197000Y26994300D01*
X17625500Y29547000D02*
X17625500Y27616600D01*
D20*
X16774600Y30499500D02*
X16774600Y27349900D01*
X16761900Y30499500D02*
X16774600Y30499500D01*
X16749200Y30499500D02*
X16761900Y30499500D01*
X16634900Y30410600D02*
X16698400Y30423300D01*
X16469800Y30499500D02*
X16749200Y30499500D01*
D19*
X16469800Y27426100D02*
X16469800Y30156600D01*
D20*
X16457100Y30499500D02*
X16152300Y30499500D01*
X16330100Y30423300D02*
X16215800Y30423300D01*
X16152300Y30499500D02*
X16152300Y27464200D01*
D19*
X16012600Y26981600D02*
X16469800Y27438800D01*
X15026800Y26981600D02*
X16012600Y26981600D01*
D20*
X14831500Y29813700D02*
X14831500Y27794400D01*
X14831500Y27794400D02*
X14221900Y27794400D01*
X14691800Y27857900D02*
X14755300Y27857900D01*
D19*
X14514000Y29699400D02*
X14514000Y28099200D01*
D20*
X14348900Y27857900D02*
X14260000Y27857900D01*
X14221900Y27794400D02*
X14196500Y27794400D01*
X14196500Y27794400D02*
X14196500Y29813700D01*
X13612300Y30448700D02*
X12367700Y30448700D01*
X13612300Y27451500D02*
X13612300Y30436000D01*
X13459900Y30385200D02*
X13536100Y30385200D01*
D19*
X13294800Y30131200D02*
X12456600Y30131200D01*
X13294800Y27540400D02*
X13294800Y30131200D01*
X12456600Y30131200D02*
X11847000Y29623200D01*
D20*
X12367700Y30448700D02*
X11783500Y29966100D01*
D19*
X11745400Y28835800D02*
X11745400Y29547000D01*
X11669200Y29623200D02*
X11034200Y30131200D01*
D20*
X11123100Y30448700D02*
X11745400Y29953400D01*
X11097700Y30448700D02*
X11123100Y30448700D01*
D19*
X11034200Y30131200D02*
X10145200Y30131200D01*
X10132500Y30143900D02*
X10132500Y27540400D01*
D20*
X9954700Y30372500D02*
X9853100Y30372500D01*
X9802300Y30448700D02*
X11097700Y30448700D01*
X9802300Y30436000D02*
X9802300Y30448700D01*
X9802300Y27426100D02*
X9802300Y30436000D01*
D19*
X8875200Y29674000D02*
X8392600Y30182000D01*
X8875200Y29648600D02*
X8875200Y27413400D01*
X8875200Y27413400D02*
X8443400Y26981600D01*
X8443400Y26981600D02*
X7122600Y26981600D01*
D20*
X8430700Y30486800D02*
X7059100Y30486800D01*
D19*
X8344500Y30156600D02*
X7122600Y30156600D01*
X7656000Y28581800D02*
X8875200Y28581800D01*
X7122600Y30156600D02*
X6030400Y29089800D01*
X7122600Y26981600D02*
X5979600Y28099200D01*
D20*
X7059100Y30486800D02*
X7008300Y30486800D01*
X7008300Y30486800D02*
X5751000Y29242200D01*
D13*
X6005000Y28975500D02*
X5446200Y28975500D01*
X5979600Y28200800D02*
X5446200Y28200800D01*
D19*
X4633400Y27286400D02*
X5471600Y28099200D01*
X4582600Y29966100D02*
X5446200Y29072400D01*
D21*
X20172747Y28785000D02*
G75*
G03*
X20172747Y28785000I-337447J0D01*
G01*
X14880324Y27007000D02*
G75*
G03*
X14880324Y27007000I-366324J0D01*
G01*
X14874818Y30232800D02*
G75*
G03*
X14874818Y30232800I-373518J0D01*
G01*
X13641759Y27032400D02*
G75*
G03*
X13641759Y27032400I-359659J0D01*
G01*
X12116318Y28302400D02*
G75*
G03*
X12116318Y28302400I-370918J0D01*
G01*
X10495729Y27019700D02*
G75*
G03*
X10495729Y27019700I-363229J0D01*
G01*
X7507659Y28581800D02*
G75*
G03*
X7507659Y28581800I-359659J0D01*
G01*
X4632666Y26930800D02*
G75*
G03*
X4632666Y26930800I-329466J0D01*
G01*
X4573735Y30321700D02*
G75*
G03*
X4573735Y30321700I-359435J0D01*
G01*
D10*
X11946000Y15545000D02*
X11946000Y15045000D01*
X11946000Y12045000D02*
X11946000Y11545000D01*
X9946000Y13795000D02*
X8696000Y13795000D01*
X8696000Y13795000D02*
X8696000Y13295000D01*
X8696000Y13545000D02*
X9946000Y13545000D01*
X8696000Y13295000D02*
X9946000Y13295000D01*
X8446000Y15545000D02*
X8446000Y15045000D01*
X8446000Y12045000D02*
X8446000Y11545000D01*
D22*
X11995980Y11795000D02*
G75*
G03*
X11996000Y15295000I-49979J1750000D01*
G01*
D10*
X11946000Y12045000D02*
G75*
G03*
X11946000Y15045000I0J1500000D01*
G01*
X11946000Y11545000D02*
G75*
G03*
X11946000Y15545000I0J2000000D01*
G01*
D22*
X8495980Y11795000D02*
G75*
G03*
X8496000Y15295000I-49980J1750000D01*
G01*
D10*
X8446000Y12045000D02*
G75*
G03*
X8446000Y15045000I0J1500000D01*
G01*
X8446000Y11545000D02*
G75*
G03*
X8446000Y15545000I0J2000000D01*
G01*
X35977000Y2115000D02*
X28865000Y2115000D01*
X34199000Y5607500D02*
X28865000Y2115000D01*
X34135500Y4591500D02*
X34135500Y3512000D01*
X33754500Y3385000D02*
X33818000Y3385000D01*
X33754500Y3385000D02*
X33754500Y4401000D01*
X33691000Y3194500D02*
X33691000Y3321500D01*
X33183000Y3194500D02*
X33030600Y3194500D01*
X32421000Y9227000D02*
X35977000Y2115000D01*
X31824100Y5671000D02*
X30643000Y5671000D01*
X30643000Y5671000D02*
X32421000Y9227000D01*
X30198500Y4782000D02*
X30643000Y5671000D01*
X30198500Y4782000D02*
X30516000Y4782000D01*
X28865000Y2115000D02*
X30198500Y4782000D01*
X34135521Y4591500D02*
G75*
G03*
X33946048Y4907425I-358121J0D01*
G01*
X33945000Y3258000D02*
G75*
G03*
X33818000Y3385000I-127000J0D01*
G01*
X33754500Y3385000D02*
G75*
G03*
X33691000Y3321500I0J-63500D01*
G01*
X33754500Y3131000D02*
G75*
G03*
X34135500Y3512000I0J381000D01*
G01*
X33690959Y3194502D02*
G75*
G03*
X33752071Y3128456I63541J-2502D01*
G01*
X33627489Y5226493D02*
G75*
G03*
X33943549Y4908859I795011J475007D01*
G01*
X33627500Y5226500D02*
G75*
G03*
X32040721Y5734321I-1120140J-767080D01*
G01*
X33310000Y3639000D02*
G75*
G03*
X32358708Y4399834I-1236980J-571500D01*
G01*
X33309999Y3321500D02*
G75*
G03*
X33309067Y3638326I-317499J157480D01*
G01*
X33183000Y3194501D02*
G75*
G03*
X33309966Y3321400I-63500J190499D01*
G01*
X33056002Y4845502D02*
G75*
G03*
X33752935Y4399156I850908J561348D01*
G01*
X32992500Y3194500D02*
G75*
G03*
X32420915Y3955035I-855980J-48260D01*
G01*
X32421001Y3956502D02*
G75*
G03*
X31981275Y4082506I-1264801J-3583602D01*
G01*
X31824098Y5670985D02*
G75*
G03*
X32039916Y5732886I33002J292115D01*
G01*
X31024016Y4591513D02*
G75*
G03*
X31846462Y4145424I970284J807687D01*
G01*
X31023995Y4591496D02*
G75*
G03*
X30515301Y4781526I-444495J-413996D01*
G01*
D23*
X37340980Y15023280D02*
X34907660Y12602660D01*
D10*
X37982437Y13859960D02*
G75*
G03*
X37982437Y13859960I-1802237J0D01*
G01*
M02*
